%TF.GenerationSoftware,KiCad,Pcbnew,9.0.7*%
%TF.CreationDate,2026-01-28T11:34:08-05:00*%
%TF.ProjectId,Serene Mini,53657265-6e65-4204-9d69-6e692e6b6963,rev?*%
%TF.SameCoordinates,Original*%
%TF.FileFunction,Drillmap*%
%TF.FilePolarity,Positive*%
%FSLAX45Y45*%
G04 Gerber Fmt 4.5, Leading zero omitted, Abs format (unit mm)*
G04 Created by KiCad (PCBNEW 9.0.7) date 2026-01-28 11:34:08*
%MOMM*%
%LPD*%
G01*
G04 APERTURE LIST*
%ADD10C,0.050000*%
%ADD11C,0.200000*%
%ADD12C,0.100000*%
G04 APERTURE END LIST*
D10*
X2071705Y-4875309D02*
X2071705Y-6625309D01*
X4568295Y-6625000D02*
G75*
G02*
X2071705Y-6625309I-1248295J-309D01*
G01*
X2071705Y-4875309D02*
G75*
G02*
X4568295Y-4875309I1248295J0D01*
G01*
X4568295Y-4875309D02*
X4568295Y-6625000D01*
D11*
D12*
X2397370Y-5845036D02*
X2412370Y-5860036D01*
X2412370Y-5845036D02*
X2397370Y-5860036D01*
X2397416Y-6044737D02*
X2412416Y-6059737D01*
X2412416Y-6044737D02*
X2397416Y-6059737D01*
X2434345Y-6045045D02*
X2449345Y-6060045D01*
X2449345Y-6045045D02*
X2434345Y-6060045D01*
X2444404Y-5843927D02*
X2459404Y-5858927D01*
X2459404Y-5843927D02*
X2444404Y-5858927D01*
X2446502Y-6076711D02*
X2461502Y-6091711D01*
X2461502Y-6076711D02*
X2446502Y-6091711D01*
X2446790Y-5784794D02*
X2461790Y-5799794D01*
X2461790Y-5784794D02*
X2446790Y-5799794D01*
X2616577Y-6101923D02*
X2631577Y-6116923D01*
X2631577Y-6101923D02*
X2616577Y-6116923D01*
X2616679Y-5806662D02*
X2631679Y-5821662D01*
X2631679Y-5806662D02*
X2616679Y-5821662D01*
X2616694Y-6068351D02*
X2631694Y-6083351D01*
X2631694Y-6068351D02*
X2616694Y-6083351D01*
X2622973Y-5845475D02*
X2637973Y-5860475D01*
X2637973Y-5845475D02*
X2622973Y-5860475D01*
X2640515Y-6044814D02*
X2655515Y-6059814D01*
X2655515Y-6044814D02*
X2640515Y-6059814D01*
X4317500Y-4847500D02*
X4332500Y-4862500D01*
X4332500Y-4847500D02*
X4317500Y-4862500D01*
X4387500Y-4882500D02*
X4402500Y-4897500D01*
X4402500Y-4882500D02*
X4387500Y-4897500D01*
X4387500Y-4917500D02*
X4402500Y-4932500D01*
X4402500Y-4917500D02*
X4387500Y-4932500D01*
X4457500Y-4882500D02*
X4472500Y-4897500D01*
X4472500Y-4882500D02*
X4457500Y-4897500D01*
X4457500Y-4917500D02*
X4472500Y-4932500D01*
X4472500Y-4917500D02*
X4457500Y-4932500D01*
X2116705Y-6500000D02*
G75*
G02*
X2096705Y-6500000I-10000J0D01*
G01*
X2096705Y-6500000D02*
G75*
G02*
X2116705Y-6500000I10000J0D01*
G01*
X2116705Y-6590000D02*
G75*
G02*
X2096705Y-6590000I-10000J0D01*
G01*
X2096705Y-6590000D02*
G75*
G02*
X2116705Y-6590000I10000J0D01*
G01*
X2268750Y-6358750D02*
G75*
G02*
X2248750Y-6358750I-10000J0D01*
G01*
X2248750Y-6358750D02*
G75*
G02*
X2268750Y-6358750I10000J0D01*
G01*
X3800000Y-7000000D02*
G75*
G02*
X3780000Y-7000000I-10000J0D01*
G01*
X3780000Y-7000000D02*
G75*
G02*
X3800000Y-7000000I10000J0D01*
G01*
X4030584Y-4819416D02*
G75*
G02*
X4010584Y-4819416I-10000J0D01*
G01*
X4010584Y-4819416D02*
G75*
G02*
X4030584Y-4819416I10000J0D01*
G01*
X4180000Y-6460000D02*
G75*
G02*
X4160000Y-6460000I-10000J0D01*
G01*
X4160000Y-6460000D02*
G75*
G02*
X4180000Y-6460000I10000J0D01*
G01*
X4240000Y-5860000D02*
G75*
G02*
X4220000Y-5860000I-10000J0D01*
G01*
X4220000Y-5860000D02*
G75*
G02*
X4240000Y-5860000I10000J0D01*
G01*
X4247700Y-4870000D02*
G75*
G02*
X4227700Y-4870000I-10000J0D01*
G01*
X4227700Y-4870000D02*
G75*
G02*
X4247700Y-4870000I10000J0D01*
G01*
X4260000Y-6090000D02*
G75*
G02*
X4240000Y-6090000I-10000J0D01*
G01*
X4240000Y-6090000D02*
G75*
G02*
X4260000Y-6090000I10000J0D01*
G01*
X4271940Y-6681312D02*
G75*
G02*
X4251940Y-6681312I-10000J0D01*
G01*
X4251940Y-6681312D02*
G75*
G02*
X4271940Y-6681312I10000J0D01*
G01*
X4290829Y-6776413D02*
G75*
G02*
X4270829Y-6776413I-10000J0D01*
G01*
X4270829Y-6776413D02*
G75*
G02*
X4290829Y-6776413I10000J0D01*
G01*
X4300000Y-6140000D02*
G75*
G02*
X4280000Y-6140000I-10000J0D01*
G01*
X4280000Y-6140000D02*
G75*
G02*
X4300000Y-6140000I10000J0D01*
G01*
X4304500Y-5858184D02*
G75*
G02*
X4284500Y-5858184I-10000J0D01*
G01*
X4284500Y-5858184D02*
G75*
G02*
X4304500Y-5858184I10000J0D01*
G01*
X4460000Y-6650000D02*
G75*
G02*
X4440000Y-6650000I-10000J0D01*
G01*
X4440000Y-6650000D02*
G75*
G02*
X4460000Y-6650000I10000J0D01*
G01*
X4510000Y-4860000D02*
G75*
G02*
X4490000Y-4860000I-10000J0D01*
G01*
X4490000Y-4860000D02*
G75*
G02*
X4510000Y-4860000I10000J0D01*
G01*
X4290000Y-4880000D02*
X4290000Y-4900000D01*
X4280000Y-4890000D02*
X4300000Y-4890000D01*
X4360000Y-4985000D02*
X4360000Y-5005000D01*
X4350000Y-4995000D02*
X4370000Y-4995000D01*
X4430000Y-4845000D02*
X4430000Y-4865000D01*
X4420000Y-4855000D02*
X4440000Y-4855000D01*
X4430000Y-4985000D02*
X4430000Y-5005000D01*
X4420000Y-4995000D02*
X4440000Y-4995000D01*
X2125325Y-4850744D02*
X2125325Y-4829531D01*
X2104112Y-4829531D01*
X2104112Y-4850744D01*
X2125325Y-4850744D01*
X2135407Y-5463740D02*
X2135407Y-5442527D01*
X2114193Y-5442527D01*
X2114193Y-5463740D01*
X2135407Y-5463740D01*
X2160607Y-5720607D02*
X2160607Y-5699393D01*
X2139393Y-5699393D01*
X2139393Y-5720607D01*
X2160607Y-5720607D01*
X2160607Y-5810607D02*
X2160607Y-5789393D01*
X2139393Y-5789393D01*
X2139393Y-5810607D01*
X2160607Y-5810607D01*
X2163107Y-6050607D02*
X2163107Y-6029393D01*
X2141893Y-6029393D01*
X2141893Y-6050607D01*
X2163107Y-6050607D01*
X2165994Y-5885060D02*
X2165994Y-5863846D01*
X2144781Y-5863846D01*
X2144781Y-5885060D01*
X2165994Y-5885060D01*
X2250607Y-4730607D02*
X2250607Y-4709393D01*
X2229393Y-4709393D01*
X2229393Y-4730607D01*
X2250607Y-4730607D01*
X2250607Y-4950607D02*
X2250607Y-4929393D01*
X2229393Y-4929393D01*
X2229393Y-4950607D01*
X2250607Y-4950607D01*
X2269357Y-5169357D02*
X2269357Y-5148143D01*
X2248143Y-5148143D01*
X2248143Y-5169357D01*
X2269357Y-5169357D01*
X2269357Y-5319357D02*
X2269357Y-5298143D01*
X2248143Y-5298143D01*
X2248143Y-5319357D01*
X2269357Y-5319357D01*
X2310607Y-4940607D02*
X2310607Y-4919393D01*
X2289393Y-4919393D01*
X2289393Y-4940607D01*
X2310607Y-4940607D01*
X2350607Y-7290607D02*
X2350607Y-7269393D01*
X2329393Y-7269393D01*
X2329393Y-7290607D01*
X2350607Y-7290607D01*
X2360607Y-7350607D02*
X2360607Y-7329393D01*
X2339393Y-7329393D01*
X2339393Y-7350607D01*
X2360607Y-7350607D01*
X2370760Y-6141670D02*
X2370760Y-6120456D01*
X2349547Y-6120456D01*
X2349547Y-6141670D01*
X2370760Y-6141670D01*
X2373165Y-5482768D02*
X2373165Y-5461554D01*
X2351952Y-5461554D01*
X2351952Y-5482768D01*
X2373165Y-5482768D01*
X2373605Y-5610804D02*
X2373605Y-5589591D01*
X2352392Y-5589591D01*
X2352392Y-5610804D01*
X2373605Y-5610804D01*
X2387649Y-6513564D02*
X2387649Y-6492351D01*
X2366436Y-6492351D01*
X2366436Y-6513564D01*
X2387649Y-6513564D01*
X2390396Y-6275646D02*
X2390396Y-6254432D01*
X2369183Y-6254432D01*
X2369183Y-6275646D01*
X2390396Y-6275646D01*
X2395807Y-5175407D02*
X2395807Y-5154193D01*
X2374593Y-5154193D01*
X2374593Y-5175407D01*
X2395807Y-5175407D01*
X2397607Y-6577607D02*
X2397607Y-6556393D01*
X2376393Y-6556393D01*
X2376393Y-6577607D01*
X2397607Y-6577607D01*
X2398567Y-5764156D02*
X2398567Y-5742943D01*
X2377354Y-5742943D01*
X2377354Y-5764156D01*
X2398567Y-5764156D01*
X2401570Y-5661275D02*
X2401570Y-5640062D01*
X2380356Y-5640062D01*
X2380356Y-5661275D01*
X2401570Y-5661275D01*
X2408928Y-4802850D02*
X2408928Y-4781637D01*
X2387714Y-4781637D01*
X2387714Y-4802850D01*
X2408928Y-4802850D01*
X2440607Y-7220607D02*
X2440607Y-7199393D01*
X2419393Y-7199393D01*
X2419393Y-7220607D01*
X2440607Y-7220607D01*
X2460607Y-5090607D02*
X2460607Y-5069393D01*
X2439393Y-5069393D01*
X2439393Y-5090607D01*
X2460607Y-5090607D01*
X2460607Y-5620607D02*
X2460607Y-5599393D01*
X2439393Y-5599393D01*
X2439393Y-5620607D01*
X2460607Y-5620607D01*
X2504607Y-5881607D02*
X2504607Y-5860393D01*
X2483393Y-5860393D01*
X2483393Y-5881607D01*
X2504607Y-5881607D01*
X2531920Y-5595370D02*
X2531920Y-5574157D01*
X2510707Y-5574157D01*
X2510707Y-5595370D01*
X2531920Y-5595370D01*
X2533226Y-6009465D02*
X2533226Y-5988252D01*
X2512013Y-5988252D01*
X2512013Y-6009465D01*
X2533226Y-6009465D01*
X2535807Y-5292907D02*
X2535807Y-5271693D01*
X2514594Y-5271693D01*
X2514594Y-5292907D01*
X2535807Y-5292907D01*
X2550230Y-5928152D02*
X2550230Y-5906939D01*
X2529017Y-5906939D01*
X2529017Y-5928152D01*
X2550230Y-5928152D01*
X2560607Y-4230607D02*
X2560607Y-4209393D01*
X2539393Y-4209393D01*
X2539393Y-4230607D01*
X2560607Y-4230607D01*
X2562494Y-7565401D02*
X2562494Y-7544188D01*
X2541280Y-7544188D01*
X2541280Y-7565401D01*
X2562494Y-7565401D01*
X2590607Y-5730607D02*
X2590607Y-5709393D01*
X2569393Y-5709393D01*
X2569393Y-5730607D01*
X2590607Y-5730607D01*
X2591107Y-6099407D02*
X2591107Y-6078193D01*
X2569893Y-6078193D01*
X2569893Y-6099407D01*
X2591107Y-6099407D01*
X2593607Y-6760607D02*
X2593607Y-6739393D01*
X2572393Y-6739393D01*
X2572393Y-6760607D01*
X2593607Y-6760607D01*
X2600607Y-6570607D02*
X2600607Y-6549393D01*
X2579393Y-6549393D01*
X2579393Y-6570607D01*
X2600607Y-6570607D01*
X2604607Y-5462607D02*
X2604607Y-5441393D01*
X2583393Y-5441393D01*
X2583393Y-5462607D01*
X2604607Y-5462607D01*
X2610607Y-6880607D02*
X2610607Y-6859393D01*
X2589393Y-6859393D01*
X2589393Y-6880607D01*
X2610607Y-6880607D01*
X2630607Y-4350607D02*
X2630607Y-4329393D01*
X2609393Y-4329393D01*
X2609393Y-4350607D01*
X2630607Y-4350607D01*
X2640607Y-4080607D02*
X2640607Y-4059393D01*
X2619393Y-4059393D01*
X2619393Y-4080607D01*
X2640607Y-4080607D01*
X2640607Y-4170607D02*
X2640607Y-4149393D01*
X2619393Y-4149393D01*
X2619393Y-4170607D01*
X2640607Y-4170607D01*
X2660607Y-5421107D02*
X2660607Y-5399894D01*
X2639393Y-5399894D01*
X2639393Y-5421107D01*
X2660607Y-5421107D01*
X2662237Y-7562053D02*
X2662237Y-7540840D01*
X2641023Y-7540840D01*
X2641023Y-7562053D01*
X2662237Y-7562053D01*
X2675177Y-5750607D02*
X2675177Y-5729393D01*
X2653964Y-5729393D01*
X2653964Y-5750607D01*
X2675177Y-5750607D01*
X2700607Y-5903107D02*
X2700607Y-5881893D01*
X2679393Y-5881893D01*
X2679393Y-5903107D01*
X2700607Y-5903107D01*
X2703629Y-6522233D02*
X2703629Y-6501019D01*
X2682416Y-6501019D01*
X2682416Y-6522233D01*
X2703629Y-6522233D01*
X2710607Y-3950607D02*
X2710607Y-3929393D01*
X2689393Y-3929393D01*
X2689393Y-3950607D01*
X2710607Y-3950607D01*
X2710607Y-6227307D02*
X2710607Y-6206093D01*
X2689393Y-6206093D01*
X2689393Y-6227307D01*
X2710607Y-6227307D01*
X2735873Y-5854988D02*
X2735873Y-5833774D01*
X2714659Y-5833774D01*
X2714659Y-5854988D01*
X2735873Y-5854988D01*
X2739652Y-5551133D02*
X2739652Y-5529920D01*
X2718439Y-5529920D01*
X2718439Y-5551133D01*
X2739652Y-5551133D01*
X2745294Y-5798062D02*
X2745294Y-5776848D01*
X2724081Y-5776848D01*
X2724081Y-5798062D01*
X2745294Y-5798062D01*
X2750175Y-6019309D02*
X2750175Y-5998096D01*
X2728961Y-5998096D01*
X2728961Y-6019309D01*
X2750175Y-6019309D01*
X2750607Y-4540607D02*
X2750607Y-4519393D01*
X2729393Y-4519393D01*
X2729393Y-4540607D01*
X2750607Y-4540607D01*
X2753207Y-7565807D02*
X2753207Y-7544593D01*
X2731994Y-7544593D01*
X2731994Y-7565807D01*
X2753207Y-7565807D01*
X2758883Y-5967029D02*
X2758883Y-5945816D01*
X2737669Y-5945816D01*
X2737669Y-5967029D01*
X2758883Y-5967029D01*
X2763651Y-5452582D02*
X2763651Y-5431369D01*
X2742437Y-5431369D01*
X2742437Y-5452582D01*
X2763651Y-5452582D01*
X2763699Y-6841203D02*
X2763699Y-6819990D01*
X2742485Y-6819990D01*
X2742485Y-6841203D01*
X2763699Y-6841203D01*
X2787179Y-7666552D02*
X2787179Y-7645339D01*
X2765966Y-7645339D01*
X2765966Y-7666552D01*
X2787179Y-7666552D01*
X2789505Y-4775614D02*
X2789505Y-4754400D01*
X2768292Y-4754400D01*
X2768292Y-4775614D01*
X2789505Y-4775614D01*
X2800607Y-5280607D02*
X2800607Y-5259393D01*
X2779393Y-5259393D01*
X2779393Y-5280607D01*
X2800607Y-5280607D01*
X2808093Y-5648851D02*
X2808093Y-5627638D01*
X2786880Y-5627638D01*
X2786880Y-5648851D01*
X2808093Y-5648851D01*
X2810607Y-5210607D02*
X2810607Y-5189393D01*
X2789393Y-5189393D01*
X2789393Y-5210607D01*
X2810607Y-5210607D01*
X2810607Y-5395607D02*
X2810607Y-5374393D01*
X2789393Y-5374393D01*
X2789393Y-5395607D01*
X2810607Y-5395607D01*
X2818264Y-5742836D02*
X2818264Y-5721622D01*
X2797050Y-5721622D01*
X2797050Y-5742836D01*
X2818264Y-5742836D01*
X2820607Y-4720607D02*
X2820607Y-4699393D01*
X2799393Y-4699393D01*
X2799393Y-4720607D01*
X2820607Y-4720607D01*
X2821299Y-6270341D02*
X2821299Y-6249127D01*
X2800085Y-6249127D01*
X2800085Y-6270341D01*
X2821299Y-6270341D01*
X2840607Y-5560607D02*
X2840607Y-5539393D01*
X2819393Y-5539393D01*
X2819393Y-5560607D01*
X2840607Y-5560607D01*
X2860607Y-6090607D02*
X2860607Y-6069393D01*
X2839393Y-6069393D01*
X2839393Y-6090607D01*
X2860607Y-6090607D01*
X2860607Y-7520607D02*
X2860607Y-7499393D01*
X2839393Y-7499393D01*
X2839393Y-7520607D01*
X2860607Y-7520607D01*
X2895607Y-4230607D02*
X2895607Y-4209393D01*
X2874393Y-4209393D01*
X2874393Y-4230607D01*
X2895607Y-4230607D01*
X2900607Y-5500607D02*
X2900607Y-5479393D01*
X2879393Y-5479393D01*
X2879393Y-5500607D01*
X2900607Y-5500607D01*
X2921897Y-6009861D02*
X2921897Y-5988648D01*
X2900684Y-5988648D01*
X2900684Y-6009861D01*
X2921897Y-6009861D01*
X2960407Y-7116883D02*
X2960407Y-7095670D01*
X2939193Y-7095670D01*
X2939193Y-7116883D01*
X2960407Y-7116883D01*
X2960607Y-3980607D02*
X2960607Y-3959393D01*
X2939393Y-3959393D01*
X2939393Y-3980607D01*
X2960607Y-3980607D01*
X2962166Y-5963087D02*
X2962166Y-5941874D01*
X2940952Y-5941874D01*
X2940952Y-5963087D01*
X2962166Y-5963087D01*
X2970607Y-4580607D02*
X2970607Y-4559393D01*
X2949393Y-4559393D01*
X2949393Y-4580607D01*
X2970607Y-4580607D01*
X2980607Y-7420607D02*
X2980607Y-7399393D01*
X2959393Y-7399393D01*
X2959393Y-7420607D01*
X2980607Y-7420607D01*
X2984001Y-7212628D02*
X2984001Y-7191415D01*
X2962788Y-7191415D01*
X2962788Y-7212628D01*
X2984001Y-7212628D01*
X2999787Y-6150319D02*
X2999787Y-6129105D01*
X2978574Y-6129105D01*
X2978574Y-6150319D01*
X2999787Y-6150319D01*
X3001730Y-5842602D02*
X3001730Y-5821388D01*
X2980517Y-5821388D01*
X2980517Y-5842602D01*
X3001730Y-5842602D01*
X3010607Y-4260607D02*
X3010607Y-4239393D01*
X2989393Y-4239393D01*
X2989393Y-4260607D01*
X3010607Y-4260607D01*
X3020607Y-5100607D02*
X3020607Y-5079393D01*
X2999393Y-5079393D01*
X2999393Y-5100607D01*
X3020607Y-5100607D01*
X3020607Y-6920607D02*
X3020607Y-6899393D01*
X2999393Y-6899393D01*
X2999393Y-6920607D01*
X3020607Y-6920607D01*
X3050607Y-5690607D02*
X3050607Y-5669393D01*
X3029393Y-5669393D01*
X3029393Y-5690607D01*
X3050607Y-5690607D01*
X3070607Y-7320607D02*
X3070607Y-7299393D01*
X3049393Y-7299393D01*
X3049393Y-7320607D01*
X3070607Y-7320607D01*
X3073402Y-7536007D02*
X3073402Y-7514793D01*
X3052188Y-7514793D01*
X3052188Y-7536007D01*
X3073402Y-7536007D01*
X3080607Y-4730607D02*
X3080607Y-4709393D01*
X3059393Y-4709393D01*
X3059393Y-4730607D01*
X3080607Y-4730607D01*
X3089820Y-7685807D02*
X3089820Y-7664593D01*
X3068607Y-7664593D01*
X3068607Y-7685807D01*
X3089820Y-7685807D01*
X3100607Y-4430607D02*
X3100607Y-4409393D01*
X3079393Y-4409393D01*
X3079393Y-4430607D01*
X3100607Y-4430607D01*
X3137607Y-7508607D02*
X3137607Y-7487393D01*
X3116393Y-7487393D01*
X3116393Y-7508607D01*
X3137607Y-7508607D01*
X3142735Y-6728478D02*
X3142735Y-6707264D01*
X3121522Y-6707264D01*
X3121522Y-6728478D01*
X3142735Y-6728478D01*
X3150607Y-5550607D02*
X3150607Y-5529393D01*
X3129393Y-5529393D01*
X3129393Y-5550607D01*
X3150607Y-5550607D01*
X3159607Y-7640607D02*
X3159607Y-7619393D01*
X3138393Y-7619393D01*
X3138393Y-7640607D01*
X3159607Y-7640607D01*
X3169230Y-6424972D02*
X3169230Y-6403759D01*
X3148016Y-6403759D01*
X3148016Y-6424972D01*
X3169230Y-6424972D01*
X3170607Y-6900607D02*
X3170607Y-6879393D01*
X3149393Y-6879393D01*
X3149393Y-6900607D01*
X3170607Y-6900607D01*
X3175858Y-5735355D02*
X3175858Y-5714142D01*
X3154644Y-5714142D01*
X3154644Y-5735355D01*
X3175858Y-5735355D01*
X3191607Y-6982607D02*
X3191607Y-6961393D01*
X3170393Y-6961393D01*
X3170393Y-6982607D01*
X3191607Y-6982607D01*
X3204807Y-7536607D02*
X3204807Y-7515393D01*
X3183593Y-7515393D01*
X3183593Y-7536607D01*
X3204807Y-7536607D01*
X3209749Y-6465491D02*
X3209749Y-6444278D01*
X3188536Y-6444278D01*
X3188536Y-6465491D01*
X3209749Y-6465491D01*
X3220607Y-4860607D02*
X3220607Y-4839393D01*
X3199393Y-4839393D01*
X3199393Y-4860607D01*
X3220607Y-4860607D01*
X3220607Y-6230607D02*
X3220607Y-6209393D01*
X3199393Y-6209393D01*
X3199393Y-6230607D01*
X3220607Y-6230607D01*
X3225355Y-5685858D02*
X3225355Y-5664644D01*
X3204142Y-5664644D01*
X3204142Y-5685858D01*
X3225355Y-5685858D01*
X3254504Y-7001657D02*
X3254504Y-6980443D01*
X3233291Y-6980443D01*
X3233291Y-7001657D01*
X3254504Y-7001657D01*
X3260607Y-5890607D02*
X3260607Y-5869393D01*
X3239393Y-5869393D01*
X3239393Y-5890607D01*
X3260607Y-5890607D01*
X3299607Y-7515607D02*
X3299607Y-7494393D01*
X3278393Y-7494393D01*
X3278393Y-7515607D01*
X3299607Y-7515607D01*
X3303107Y-6930607D02*
X3303107Y-6909393D01*
X3281893Y-6909393D01*
X3281893Y-6930607D01*
X3303107Y-6930607D01*
X3351387Y-7555620D02*
X3351387Y-7534407D01*
X3330173Y-7534407D01*
X3330173Y-7555620D01*
X3351387Y-7555620D01*
X3373107Y-6930607D02*
X3373107Y-6909393D01*
X3351893Y-6909393D01*
X3351893Y-6930607D01*
X3373107Y-6930607D01*
X3400050Y-7607807D02*
X3400050Y-7586593D01*
X3378837Y-7586593D01*
X3378837Y-7607807D01*
X3400050Y-7607807D01*
X3405807Y-6541444D02*
X3405807Y-6520231D01*
X3384593Y-6520231D01*
X3384593Y-6541444D01*
X3405807Y-6541444D01*
X3405807Y-6764139D02*
X3405807Y-6742926D01*
X3384593Y-6742926D01*
X3384593Y-6764139D01*
X3405807Y-6764139D01*
X3405807Y-6826155D02*
X3405807Y-6804941D01*
X3384593Y-6804941D01*
X3384593Y-6826155D01*
X3405807Y-6826155D01*
X3460607Y-7110607D02*
X3460607Y-7089393D01*
X3439393Y-7089393D01*
X3439393Y-7110607D01*
X3460607Y-7110607D01*
X3479507Y-5742326D02*
X3479507Y-5721113D01*
X3458293Y-5721113D01*
X3458293Y-5742326D01*
X3479507Y-5742326D01*
X3490607Y-4240607D02*
X3490607Y-4219393D01*
X3469393Y-4219393D01*
X3469393Y-4240607D01*
X3490607Y-4240607D01*
X3490607Y-4830607D02*
X3490607Y-4809393D01*
X3469393Y-4809393D01*
X3469393Y-4830607D01*
X3490607Y-4830607D01*
X3500435Y-7198671D02*
X3500435Y-7177458D01*
X3479222Y-7177458D01*
X3479222Y-7198671D01*
X3500435Y-7198671D01*
X3502607Y-7510420D02*
X3502607Y-7489207D01*
X3481393Y-7489207D01*
X3481393Y-7510420D01*
X3502607Y-7510420D01*
X3510607Y-4730607D02*
X3510607Y-4709393D01*
X3489393Y-4709393D01*
X3489393Y-4730607D01*
X3510607Y-4730607D01*
X3510607Y-5080607D02*
X3510607Y-5059393D01*
X3489393Y-5059393D01*
X3489393Y-5080607D01*
X3510607Y-5080607D01*
X3560607Y-5660607D02*
X3560607Y-5639393D01*
X3539393Y-5639393D01*
X3539393Y-5660607D01*
X3560607Y-5660607D01*
X3580607Y-4510607D02*
X3580607Y-4489393D01*
X3559393Y-4489393D01*
X3559393Y-4510607D01*
X3580607Y-4510607D01*
X3610607Y-4410607D02*
X3610607Y-4389393D01*
X3589393Y-4389393D01*
X3589393Y-4410607D01*
X3610607Y-4410607D01*
X3610607Y-6450607D02*
X3610607Y-6429393D01*
X3589393Y-6429393D01*
X3589393Y-6450607D01*
X3610607Y-6450607D01*
X3618887Y-6932808D02*
X3618887Y-6911595D01*
X3597673Y-6911595D01*
X3597673Y-6932808D01*
X3618887Y-6932808D01*
X3670607Y-7690607D02*
X3670607Y-7669393D01*
X3649393Y-7669393D01*
X3649393Y-7690607D01*
X3670607Y-7690607D01*
X3680607Y-6480607D02*
X3680607Y-6459393D01*
X3659393Y-6459393D01*
X3659393Y-6480607D01*
X3680607Y-6480607D01*
X3680607Y-7330607D02*
X3680607Y-7309393D01*
X3659393Y-7309393D01*
X3659393Y-7330607D01*
X3680607Y-7330607D01*
X3682365Y-7212238D02*
X3682365Y-7191025D01*
X3661152Y-7191025D01*
X3661152Y-7212238D01*
X3682365Y-7212238D01*
X3690607Y-7490607D02*
X3690607Y-7469393D01*
X3669393Y-7469393D01*
X3669393Y-7490607D01*
X3690607Y-7490607D01*
X3697607Y-7414607D02*
X3697607Y-7393393D01*
X3676393Y-7393393D01*
X3676393Y-7414607D01*
X3697607Y-7414607D01*
X3710607Y-6290607D02*
X3710607Y-6269393D01*
X3689393Y-6269393D01*
X3689393Y-6290607D01*
X3710607Y-6290607D01*
X3720607Y-6220607D02*
X3720607Y-6199393D01*
X3699393Y-6199393D01*
X3699393Y-6220607D01*
X3720607Y-6220607D01*
X3739492Y-7220349D02*
X3739492Y-7199136D01*
X3718279Y-7199136D01*
X3718279Y-7220349D01*
X3739492Y-7220349D01*
X3751107Y-6830607D02*
X3751107Y-6809393D01*
X3729893Y-6809393D01*
X3729893Y-6830607D01*
X3751107Y-6830607D01*
X3760607Y-6920607D02*
X3760607Y-6899393D01*
X3739393Y-6899393D01*
X3739393Y-6920607D01*
X3760607Y-6920607D01*
X3760607Y-7110607D02*
X3760607Y-7089393D01*
X3739393Y-7089393D01*
X3739393Y-7110607D01*
X3760607Y-7110607D01*
X3780607Y-6160607D02*
X3780607Y-6139393D01*
X3759393Y-6139393D01*
X3759393Y-6160607D01*
X3780607Y-6160607D01*
X3780607Y-6260607D02*
X3780607Y-6239393D01*
X3759393Y-6239393D01*
X3759393Y-6260607D01*
X3780607Y-6260607D01*
X3814107Y-7060607D02*
X3814107Y-7039393D01*
X3792893Y-7039393D01*
X3792893Y-7060607D01*
X3814107Y-7060607D01*
X3825715Y-7214088D02*
X3825715Y-7192874D01*
X3804502Y-7192874D01*
X3804502Y-7214088D01*
X3825715Y-7214088D01*
X3835985Y-7471911D02*
X3835985Y-7450698D01*
X3814772Y-7450698D01*
X3814772Y-7471911D01*
X3835985Y-7471911D01*
X3860607Y-7110607D02*
X3860607Y-7089393D01*
X3839393Y-7089393D01*
X3839393Y-7110607D01*
X3860607Y-7110607D01*
X3896053Y-7643622D02*
X3896053Y-7622409D01*
X3874840Y-7622409D01*
X3874840Y-7643622D01*
X3896053Y-7643622D01*
X3910807Y-4968650D02*
X3910807Y-4947437D01*
X3889593Y-4947437D01*
X3889593Y-4968650D01*
X3910807Y-4968650D01*
X3914107Y-7185435D02*
X3914107Y-7164222D01*
X3892893Y-7164222D01*
X3892893Y-7185435D01*
X3914107Y-7185435D01*
X3915107Y-7589159D02*
X3915107Y-7567945D01*
X3893893Y-7567945D01*
X3893893Y-7589159D01*
X3915107Y-7589159D01*
X3940607Y-5280607D02*
X3940607Y-5259393D01*
X3919393Y-5259393D01*
X3919393Y-5280607D01*
X3940607Y-5280607D01*
X3952607Y-4110607D02*
X3952607Y-4089393D01*
X3931393Y-4089393D01*
X3931393Y-4110607D01*
X3952607Y-4110607D01*
X3964107Y-5010607D02*
X3964107Y-4989393D01*
X3942893Y-4989393D01*
X3942893Y-5010607D01*
X3964107Y-5010607D01*
X3970866Y-6544270D02*
X3970866Y-6523057D01*
X3949652Y-6523057D01*
X3949652Y-6544270D01*
X3970866Y-6544270D01*
X3980607Y-6290607D02*
X3980607Y-6269393D01*
X3959393Y-6269393D01*
X3959393Y-6290607D01*
X3980607Y-6290607D01*
X4002607Y-7588607D02*
X4002607Y-7567393D01*
X3981393Y-7567393D01*
X3981393Y-7588607D01*
X4002607Y-7588607D01*
X4004186Y-4768108D02*
X4004186Y-4746895D01*
X3982972Y-4746895D01*
X3982972Y-4768108D01*
X4004186Y-4768108D01*
X4006107Y-4491270D02*
X4006107Y-4470056D01*
X3984893Y-4470056D01*
X3984893Y-4491270D01*
X4006107Y-4491270D01*
X4013122Y-7171541D02*
X4013122Y-7150328D01*
X3991909Y-7150328D01*
X3991909Y-7171541D01*
X4013122Y-7171541D01*
X4030607Y-5830607D02*
X4030607Y-5809393D01*
X4009393Y-5809393D01*
X4009393Y-5830607D01*
X4030607Y-5830607D01*
X4040607Y-5280607D02*
X4040607Y-5259393D01*
X4019393Y-5259393D01*
X4019393Y-5280607D01*
X4040607Y-5280607D01*
X4059607Y-7588607D02*
X4059607Y-7567393D01*
X4038393Y-7567393D01*
X4038393Y-7588607D01*
X4059607Y-7588607D01*
X4071107Y-6080607D02*
X4071107Y-6059393D01*
X4049893Y-6059393D01*
X4049893Y-6080607D01*
X4071107Y-6080607D01*
X4072607Y-4490607D02*
X4072607Y-4469393D01*
X4051393Y-4469393D01*
X4051393Y-4490607D01*
X4072607Y-4490607D01*
X4075807Y-5720607D02*
X4075807Y-5699393D01*
X4054593Y-5699393D01*
X4054593Y-5720607D01*
X4075807Y-5720607D01*
X4075807Y-5775934D02*
X4075807Y-5754721D01*
X4054593Y-5754721D01*
X4054593Y-5775934D01*
X4075807Y-5775934D01*
X4080607Y-4400607D02*
X4080607Y-4379393D01*
X4059393Y-4379393D01*
X4059393Y-4400607D01*
X4080607Y-4400607D01*
X4080607Y-6360607D02*
X4080607Y-6339393D01*
X4059393Y-6339393D01*
X4059393Y-6360607D01*
X4080607Y-6360607D01*
X4080607Y-6560607D02*
X4080607Y-6539393D01*
X4059393Y-6539393D01*
X4059393Y-6560607D01*
X4080607Y-6560607D01*
X4090182Y-4809434D02*
X4090182Y-4788221D01*
X4068969Y-4788221D01*
X4068969Y-4809434D01*
X4090182Y-4809434D01*
X4110607Y-6270607D02*
X4110607Y-6249393D01*
X4089393Y-6249393D01*
X4089393Y-6270607D01*
X4110607Y-6270607D01*
X4130607Y-4850607D02*
X4130607Y-4829393D01*
X4109393Y-4829393D01*
X4109393Y-4850607D01*
X4130607Y-4850607D01*
X4132283Y-5095307D02*
X4132283Y-5074093D01*
X4111070Y-5074093D01*
X4111070Y-5095307D01*
X4132283Y-5095307D01*
X4134418Y-5237244D02*
X4134418Y-5216031D01*
X4113205Y-5216031D01*
X4113205Y-5237244D01*
X4134418Y-5237244D01*
X4142607Y-4040607D02*
X4142607Y-4019393D01*
X4121393Y-4019393D01*
X4121393Y-4040607D01*
X4142607Y-4040607D01*
X4147328Y-5181007D02*
X4147328Y-5159793D01*
X4126115Y-5159793D01*
X4126115Y-5181007D01*
X4147328Y-5181007D01*
X4150607Y-5820607D02*
X4150607Y-5799393D01*
X4129393Y-5799393D01*
X4129393Y-5820607D01*
X4150607Y-5820607D01*
X4156107Y-7113382D02*
X4156107Y-7092169D01*
X4134893Y-7092169D01*
X4134893Y-7113382D01*
X4156107Y-7113382D01*
X4181107Y-5330607D02*
X4181107Y-5309393D01*
X4159893Y-5309393D01*
X4159893Y-5330607D01*
X4181107Y-5330607D01*
X4187691Y-7212030D02*
X4187691Y-7190817D01*
X4166478Y-7190817D01*
X4166478Y-7212030D01*
X4187691Y-7212030D01*
X4190607Y-5260607D02*
X4190607Y-5239393D01*
X4169393Y-5239393D01*
X4169393Y-5260607D01*
X4190607Y-5260607D01*
X4206361Y-7266361D02*
X4206361Y-7245148D01*
X4185148Y-7245148D01*
X4185148Y-7266361D01*
X4206361Y-7266361D01*
X4208661Y-6391423D02*
X4208661Y-6370209D01*
X4187448Y-6370209D01*
X4187448Y-6391423D01*
X4208661Y-6391423D01*
X4210807Y-7128179D02*
X4210807Y-7106965D01*
X4189593Y-7106965D01*
X4189593Y-7128179D01*
X4210807Y-7128179D01*
X4234907Y-6582964D02*
X4234907Y-6561751D01*
X4213693Y-6561751D01*
X4213693Y-6582964D01*
X4234907Y-6582964D01*
X4240564Y-4636678D02*
X4240564Y-4615464D01*
X4219350Y-4615464D01*
X4219350Y-4636678D01*
X4240564Y-4636678D01*
X4240607Y-6490607D02*
X4240607Y-6469393D01*
X4219393Y-6469393D01*
X4219393Y-6490607D01*
X4240607Y-6490607D01*
X4247568Y-7417568D02*
X4247568Y-7396355D01*
X4226355Y-7396355D01*
X4226355Y-7417568D01*
X4247568Y-7417568D01*
X4256107Y-7100607D02*
X4256107Y-7079393D01*
X4234893Y-7079393D01*
X4234893Y-7100607D01*
X4256107Y-7100607D01*
X4260607Y-5736246D02*
X4260607Y-5715033D01*
X4239393Y-5715033D01*
X4239393Y-5736246D01*
X4260607Y-5736246D01*
X4262474Y-6053252D02*
X4262474Y-6032039D01*
X4241261Y-6032039D01*
X4241261Y-6053252D01*
X4262474Y-6053252D01*
X4264407Y-6829322D02*
X4264407Y-6808109D01*
X4243193Y-6808109D01*
X4243193Y-6829322D01*
X4264407Y-6829322D01*
X4295590Y-6736992D02*
X4295590Y-6715779D01*
X4274377Y-6715779D01*
X4274377Y-6736992D01*
X4295590Y-6736992D01*
X4297535Y-5503351D02*
X4297535Y-5482138D01*
X4276321Y-5482138D01*
X4276321Y-5503351D01*
X4297535Y-5503351D01*
X4297535Y-6403351D02*
X4297535Y-6382138D01*
X4276321Y-6382138D01*
X4276321Y-6403351D01*
X4297535Y-6403351D01*
X4306389Y-7293842D02*
X4306389Y-7272629D01*
X4285176Y-7272629D01*
X4285176Y-7293842D01*
X4306389Y-7293842D01*
X4357903Y-4500030D02*
X4357903Y-4478817D01*
X4336689Y-4478817D01*
X4336689Y-4500030D01*
X4357903Y-4500030D01*
X4358757Y-4556483D02*
X4358757Y-4535270D01*
X4337544Y-4535270D01*
X4337544Y-4556483D01*
X4358757Y-4556483D01*
X4369034Y-5114998D02*
X4369034Y-5093785D01*
X4347820Y-5093785D01*
X4347820Y-5114998D01*
X4369034Y-5114998D01*
X4369100Y-7000705D02*
X4369100Y-6979491D01*
X4347886Y-6979491D01*
X4347886Y-7000705D01*
X4369100Y-7000705D01*
X4380580Y-4776895D02*
X4380580Y-4755682D01*
X4359366Y-4755682D01*
X4359366Y-4776895D01*
X4380580Y-4776895D01*
X4390607Y-6322857D02*
X4390607Y-6301643D01*
X4369393Y-6301643D01*
X4369393Y-6322857D01*
X4390607Y-6322857D01*
X4401857Y-5969357D02*
X4401857Y-5948143D01*
X4380643Y-5948143D01*
X4380643Y-5969357D01*
X4401857Y-5969357D01*
X4401857Y-6619357D02*
X4401857Y-6598143D01*
X4380643Y-6598143D01*
X4380643Y-6619357D01*
X4401857Y-6619357D01*
X4405188Y-4468052D02*
X4405188Y-4446839D01*
X4383974Y-4446839D01*
X4383974Y-4468052D01*
X4405188Y-4468052D01*
X4405495Y-5272995D02*
X4405495Y-5251781D01*
X4384281Y-5251781D01*
X4384281Y-5272995D01*
X4405495Y-5272995D01*
X4410607Y-4410607D02*
X4410607Y-4389393D01*
X4389393Y-4389393D01*
X4389393Y-4410607D01*
X4410607Y-4410607D01*
X4414592Y-6765902D02*
X4414592Y-6744688D01*
X4393378Y-6744688D01*
X4393378Y-6765902D01*
X4414592Y-6765902D01*
X4416276Y-4561058D02*
X4416276Y-4539844D01*
X4395063Y-4539844D01*
X4395063Y-4561058D01*
X4416276Y-4561058D01*
X4418212Y-4662607D02*
X4418212Y-4641393D01*
X4396999Y-4641393D01*
X4396999Y-4662607D01*
X4418212Y-4662607D01*
X4420607Y-6372857D02*
X4420607Y-6351643D01*
X4399393Y-6351643D01*
X4399393Y-6372857D01*
X4420607Y-6372857D01*
X4436953Y-4764592D02*
X4436953Y-4743378D01*
X4415740Y-4743378D01*
X4415740Y-4764592D01*
X4436953Y-4764592D01*
X4450607Y-5319157D02*
X4450607Y-5297943D01*
X4429393Y-5297943D01*
X4429393Y-5319157D01*
X4450607Y-5319157D01*
X4466814Y-5214857D02*
X4466814Y-5193643D01*
X4445601Y-5193643D01*
X4445601Y-5214857D01*
X4466814Y-5214857D01*
X4469893Y-5267795D02*
X4469893Y-5246581D01*
X4448680Y-5246581D01*
X4448680Y-5267795D01*
X4469893Y-5267795D01*
X4475607Y-6996607D02*
X4475607Y-6975393D01*
X4454393Y-6975393D01*
X4454393Y-6996607D01*
X4475607Y-6996607D01*
X4503602Y-6343973D02*
X4503602Y-6322760D01*
X4482388Y-6322760D01*
X4482388Y-6343973D01*
X4503602Y-6343973D01*
X4505888Y-5531243D02*
X4505888Y-5510030D01*
X4484674Y-5510030D01*
X4484674Y-5531243D01*
X4505888Y-5531243D01*
X4506881Y-5631362D02*
X4506881Y-5610149D01*
X4485667Y-5610149D01*
X4485667Y-5631362D01*
X4506881Y-5631362D01*
X4507189Y-6589407D02*
X4507189Y-6568193D01*
X4485976Y-6568193D01*
X4485976Y-6589407D01*
X4507189Y-6589407D01*
X4507309Y-6494570D02*
X4507309Y-6473356D01*
X4486096Y-6473356D01*
X4486096Y-6494570D01*
X4507309Y-6494570D01*
X4510607Y-5720607D02*
X4510607Y-5699393D01*
X4489393Y-5699393D01*
X4489393Y-5720607D01*
X4510607Y-5720607D01*
X4510607Y-5780607D02*
X4510607Y-5759393D01*
X4489393Y-5759393D01*
X4489393Y-5780607D01*
X4510607Y-5780607D01*
X4518107Y-5851493D02*
X4518107Y-5830279D01*
X4496893Y-5830279D01*
X4496893Y-5851493D01*
X4518107Y-5851493D01*
X4536402Y-5330247D02*
X4536402Y-5309033D01*
X4515188Y-5309033D01*
X4515188Y-5330247D01*
X4536402Y-5330247D01*
X4536402Y-6270607D02*
X4536402Y-6249393D01*
X4515188Y-6249393D01*
X4515188Y-6270607D01*
X4536402Y-6270607D01*
X3030000Y-7267500D02*
X3050000Y-7247500D01*
X3030000Y-7227500D01*
X3010000Y-7247500D01*
X3030000Y-7267500D01*
X3030000Y-7402500D02*
X3050000Y-7382500D01*
X3030000Y-7362500D01*
X3010000Y-7382500D01*
X3030000Y-7402500D01*
X3115000Y-7267500D02*
X3135000Y-7247500D01*
X3115000Y-7227500D01*
X3095000Y-7247500D01*
X3115000Y-7267500D01*
X3115000Y-7402500D02*
X3135000Y-7382500D01*
X3115000Y-7362500D01*
X3095000Y-7382500D01*
X3115000Y-7402500D01*
X3200000Y-7267500D02*
X3220000Y-7247500D01*
X3200000Y-7227500D01*
X3180000Y-7247500D01*
X3200000Y-7267500D01*
X3200000Y-7402500D02*
X3220000Y-7382500D01*
X3200000Y-7362500D01*
X3180000Y-7382500D01*
X3200000Y-7402500D01*
X3285000Y-7267500D02*
X3305000Y-7247500D01*
X3285000Y-7227500D01*
X3265000Y-7247500D01*
X3285000Y-7267500D01*
X3285000Y-7402500D02*
X3305000Y-7382500D01*
X3285000Y-7362500D01*
X3265000Y-7382500D01*
X3285000Y-7402500D01*
X3370000Y-7267500D02*
X3390000Y-7247500D01*
X3370000Y-7227500D01*
X3350000Y-7247500D01*
X3370000Y-7267500D01*
X3370000Y-7402500D02*
X3390000Y-7382500D01*
X3370000Y-7362500D01*
X3350000Y-7382500D01*
X3370000Y-7402500D01*
X3455000Y-7267500D02*
X3475000Y-7247500D01*
X3455000Y-7227500D01*
X3435000Y-7247500D01*
X3455000Y-7267500D01*
X3455000Y-7402500D02*
X3475000Y-7382500D01*
X3455000Y-7362500D01*
X3435000Y-7382500D01*
X3455000Y-7402500D01*
X3540000Y-7267500D02*
X3560000Y-7247500D01*
X3540000Y-7227500D01*
X3520000Y-7247500D01*
X3540000Y-7267500D01*
X3540000Y-7402500D02*
X3560000Y-7382500D01*
X3540000Y-7362500D01*
X3520000Y-7382500D01*
X3540000Y-7402500D01*
X3625000Y-7267500D02*
X3645000Y-7247500D01*
X3625000Y-7227500D01*
X3605000Y-7247500D01*
X3625000Y-7267500D01*
X3625000Y-7402500D02*
X3645000Y-7382500D01*
X3625000Y-7362500D01*
X3605000Y-7382500D01*
X3625000Y-7402500D01*
X2865000Y-7315500D02*
X2925000Y-7375500D01*
X2925000Y-7315500D02*
X2865000Y-7375500D01*
X2925000Y-7345500D02*
G75*
G02*
X2865000Y-7345500I-30000J0D01*
G01*
X2865000Y-7345500D02*
G75*
G02*
X2925000Y-7345500I30000J0D01*
G01*
X2865000Y-7270500D02*
X2865000Y-7420500D01*
X2925000Y-7420500D02*
G75*
G02*
X2865000Y-7420500I-30000J0D01*
G01*
X2925000Y-7420500D02*
X2925000Y-7270500D01*
X2925000Y-7270500D02*
G75*
G03*
X2865000Y-7270500I-30000J0D01*
G01*
X2865000Y-7653500D02*
X2925000Y-7713500D01*
X2925000Y-7653500D02*
X2865000Y-7713500D01*
X2925000Y-7683500D02*
G75*
G02*
X2865000Y-7683500I-30000J0D01*
G01*
X2865000Y-7683500D02*
G75*
G02*
X2925000Y-7683500I30000J0D01*
G01*
X2865000Y-7643500D02*
X2865000Y-7723500D01*
X2925000Y-7723500D02*
G75*
G02*
X2865000Y-7723500I-30000J0D01*
G01*
X2925000Y-7723500D02*
X2925000Y-7643500D01*
X2925000Y-7643500D02*
G75*
G03*
X2865000Y-7643500I-30000J0D01*
G01*
X3730000Y-7315500D02*
X3790000Y-7375500D01*
X3790000Y-7315500D02*
X3730000Y-7375500D01*
X3790000Y-7345500D02*
G75*
G02*
X3730000Y-7345500I-30000J0D01*
G01*
X3730000Y-7345500D02*
G75*
G02*
X3790000Y-7345500I30000J0D01*
G01*
X3730000Y-7270500D02*
X3730000Y-7420500D01*
X3790000Y-7420500D02*
G75*
G02*
X3730000Y-7420500I-30000J0D01*
G01*
X3790000Y-7420500D02*
X3790000Y-7270500D01*
X3790000Y-7270500D02*
G75*
G03*
X3730000Y-7270500I-30000J0D01*
G01*
X3730000Y-7653500D02*
X3790000Y-7713500D01*
X3790000Y-7653500D02*
X3730000Y-7713500D01*
X3790000Y-7683500D02*
G75*
G02*
X3730000Y-7683500I-30000J0D01*
G01*
X3730000Y-7683500D02*
G75*
G02*
X3790000Y-7683500I30000J0D01*
G01*
X3730000Y-7643500D02*
X3730000Y-7723500D01*
X3790000Y-7723500D02*
G75*
G02*
X3730000Y-7723500I-30000J0D01*
G01*
X3790000Y-7723500D02*
X3790000Y-7643500D01*
X3790000Y-7643500D02*
G75*
G03*
X3730000Y-7643500I-30000J0D01*
G01*
D11*
X2329982Y-8187588D02*
X2329982Y-7987588D01*
X2329982Y-7987588D02*
X2377601Y-7987588D01*
X2377601Y-7987588D02*
X2406172Y-7997112D01*
X2406172Y-7997112D02*
X2425220Y-8016160D01*
X2425220Y-8016160D02*
X2434744Y-8035207D01*
X2434744Y-8035207D02*
X2444267Y-8073302D01*
X2444267Y-8073302D02*
X2444267Y-8101874D01*
X2444267Y-8101874D02*
X2434744Y-8139969D01*
X2434744Y-8139969D02*
X2425220Y-8159017D01*
X2425220Y-8159017D02*
X2406172Y-8178064D01*
X2406172Y-8178064D02*
X2377601Y-8187588D01*
X2377601Y-8187588D02*
X2329982Y-8187588D01*
X2529982Y-8187588D02*
X2529982Y-8054255D01*
X2529982Y-8092350D02*
X2539506Y-8073302D01*
X2539506Y-8073302D02*
X2549029Y-8063779D01*
X2549029Y-8063779D02*
X2568077Y-8054255D01*
X2568077Y-8054255D02*
X2587125Y-8054255D01*
X2653791Y-8187588D02*
X2653791Y-8054255D01*
X2653791Y-7987588D02*
X2644267Y-7997112D01*
X2644267Y-7997112D02*
X2653791Y-8006636D01*
X2653791Y-8006636D02*
X2663315Y-7997112D01*
X2663315Y-7997112D02*
X2653791Y-7987588D01*
X2653791Y-7987588D02*
X2653791Y-8006636D01*
X2777601Y-8187588D02*
X2758553Y-8178064D01*
X2758553Y-8178064D02*
X2749029Y-8159017D01*
X2749029Y-8159017D02*
X2749029Y-7987588D01*
X2882363Y-8187588D02*
X2863315Y-8178064D01*
X2863315Y-8178064D02*
X2853791Y-8159017D01*
X2853791Y-8159017D02*
X2853791Y-7987588D01*
X3110934Y-8187588D02*
X3110934Y-7987588D01*
X3110934Y-7987588D02*
X3177601Y-8130445D01*
X3177601Y-8130445D02*
X3244267Y-7987588D01*
X3244267Y-7987588D02*
X3244267Y-8187588D01*
X3425220Y-8187588D02*
X3425220Y-8082826D01*
X3425220Y-8082826D02*
X3415696Y-8063779D01*
X3415696Y-8063779D02*
X3396648Y-8054255D01*
X3396648Y-8054255D02*
X3358553Y-8054255D01*
X3358553Y-8054255D02*
X3339505Y-8063779D01*
X3425220Y-8178064D02*
X3406172Y-8187588D01*
X3406172Y-8187588D02*
X3358553Y-8187588D01*
X3358553Y-8187588D02*
X3339505Y-8178064D01*
X3339505Y-8178064D02*
X3329982Y-8159017D01*
X3329982Y-8159017D02*
X3329982Y-8139969D01*
X3329982Y-8139969D02*
X3339505Y-8120921D01*
X3339505Y-8120921D02*
X3358553Y-8111398D01*
X3358553Y-8111398D02*
X3406172Y-8111398D01*
X3406172Y-8111398D02*
X3425220Y-8101874D01*
X3520458Y-8054255D02*
X3520458Y-8254255D01*
X3520458Y-8063779D02*
X3539505Y-8054255D01*
X3539505Y-8054255D02*
X3577601Y-8054255D01*
X3577601Y-8054255D02*
X3596648Y-8063779D01*
X3596648Y-8063779D02*
X3606172Y-8073302D01*
X3606172Y-8073302D02*
X3615696Y-8092350D01*
X3615696Y-8092350D02*
X3615696Y-8149493D01*
X3615696Y-8149493D02*
X3606172Y-8168540D01*
X3606172Y-8168540D02*
X3596648Y-8178064D01*
X3596648Y-8178064D02*
X3577601Y-8187588D01*
X3577601Y-8187588D02*
X3539505Y-8187588D01*
X3539505Y-8187588D02*
X3520458Y-8178064D01*
X3701410Y-8168540D02*
X3710934Y-8178064D01*
X3710934Y-8178064D02*
X3701410Y-8187588D01*
X3701410Y-8187588D02*
X3691886Y-8178064D01*
X3691886Y-8178064D02*
X3701410Y-8168540D01*
X3701410Y-8168540D02*
X3701410Y-8187588D01*
X3701410Y-8063779D02*
X3710934Y-8073302D01*
X3710934Y-8073302D02*
X3701410Y-8082826D01*
X3701410Y-8082826D02*
X3691886Y-8073302D01*
X3691886Y-8073302D02*
X3701410Y-8063779D01*
X3701410Y-8063779D02*
X3701410Y-8082826D01*
D12*
X2054205Y-8508604D02*
X2069205Y-8523604D01*
X2069205Y-8508604D02*
X2054205Y-8523604D01*
D11*
X2368077Y-8407588D02*
X2387125Y-8407588D01*
X2387125Y-8407588D02*
X2406172Y-8417112D01*
X2406172Y-8417112D02*
X2415696Y-8426636D01*
X2415696Y-8426636D02*
X2425220Y-8445683D01*
X2425220Y-8445683D02*
X2434744Y-8483779D01*
X2434744Y-8483779D02*
X2434744Y-8531398D01*
X2434744Y-8531398D02*
X2425220Y-8569493D01*
X2425220Y-8569493D02*
X2415696Y-8588541D01*
X2415696Y-8588541D02*
X2406172Y-8598064D01*
X2406172Y-8598064D02*
X2387125Y-8607588D01*
X2387125Y-8607588D02*
X2368077Y-8607588D01*
X2368077Y-8607588D02*
X2349029Y-8598064D01*
X2349029Y-8598064D02*
X2339506Y-8588541D01*
X2339506Y-8588541D02*
X2329982Y-8569493D01*
X2329982Y-8569493D02*
X2320458Y-8531398D01*
X2320458Y-8531398D02*
X2320458Y-8483779D01*
X2320458Y-8483779D02*
X2329982Y-8445683D01*
X2329982Y-8445683D02*
X2339506Y-8426636D01*
X2339506Y-8426636D02*
X2349029Y-8417112D01*
X2349029Y-8417112D02*
X2368077Y-8407588D01*
X2520458Y-8588541D02*
X2529982Y-8598064D01*
X2529982Y-8598064D02*
X2520458Y-8607588D01*
X2520458Y-8607588D02*
X2510934Y-8598064D01*
X2510934Y-8598064D02*
X2520458Y-8588541D01*
X2520458Y-8588541D02*
X2520458Y-8607588D01*
X2720458Y-8607588D02*
X2606172Y-8607588D01*
X2663315Y-8607588D02*
X2663315Y-8407588D01*
X2663315Y-8407588D02*
X2644267Y-8436160D01*
X2644267Y-8436160D02*
X2625220Y-8455207D01*
X2625220Y-8455207D02*
X2606172Y-8464731D01*
X2901410Y-8407588D02*
X2806172Y-8407588D01*
X2806172Y-8407588D02*
X2796648Y-8502826D01*
X2796648Y-8502826D02*
X2806172Y-8493302D01*
X2806172Y-8493302D02*
X2825220Y-8483779D01*
X2825220Y-8483779D02*
X2872839Y-8483779D01*
X2872839Y-8483779D02*
X2891886Y-8493302D01*
X2891886Y-8493302D02*
X2901410Y-8502826D01*
X2901410Y-8502826D02*
X2910934Y-8521874D01*
X2910934Y-8521874D02*
X2910934Y-8569493D01*
X2910934Y-8569493D02*
X2901410Y-8588541D01*
X2901410Y-8588541D02*
X2891886Y-8598064D01*
X2891886Y-8598064D02*
X2872839Y-8607588D01*
X2872839Y-8607588D02*
X2825220Y-8607588D01*
X2825220Y-8607588D02*
X2806172Y-8598064D01*
X2806172Y-8598064D02*
X2796648Y-8588541D01*
X3034744Y-8407588D02*
X3053791Y-8407588D01*
X3053791Y-8407588D02*
X3072839Y-8417112D01*
X3072839Y-8417112D02*
X3082363Y-8426636D01*
X3082363Y-8426636D02*
X3091886Y-8445683D01*
X3091886Y-8445683D02*
X3101410Y-8483779D01*
X3101410Y-8483779D02*
X3101410Y-8531398D01*
X3101410Y-8531398D02*
X3091886Y-8569493D01*
X3091886Y-8569493D02*
X3082363Y-8588541D01*
X3082363Y-8588541D02*
X3072839Y-8598064D01*
X3072839Y-8598064D02*
X3053791Y-8607588D01*
X3053791Y-8607588D02*
X3034744Y-8607588D01*
X3034744Y-8607588D02*
X3015696Y-8598064D01*
X3015696Y-8598064D02*
X3006172Y-8588541D01*
X3006172Y-8588541D02*
X2996648Y-8569493D01*
X2996648Y-8569493D02*
X2987125Y-8531398D01*
X2987125Y-8531398D02*
X2987125Y-8483779D01*
X2987125Y-8483779D02*
X2996648Y-8445683D01*
X2996648Y-8445683D02*
X3006172Y-8426636D01*
X3006172Y-8426636D02*
X3015696Y-8417112D01*
X3015696Y-8417112D02*
X3034744Y-8407588D01*
X3187125Y-8607588D02*
X3187125Y-8474255D01*
X3187125Y-8493302D02*
X3196648Y-8483779D01*
X3196648Y-8483779D02*
X3215696Y-8474255D01*
X3215696Y-8474255D02*
X3244267Y-8474255D01*
X3244267Y-8474255D02*
X3263315Y-8483779D01*
X3263315Y-8483779D02*
X3272839Y-8502826D01*
X3272839Y-8502826D02*
X3272839Y-8607588D01*
X3272839Y-8502826D02*
X3282363Y-8483779D01*
X3282363Y-8483779D02*
X3301410Y-8474255D01*
X3301410Y-8474255D02*
X3329982Y-8474255D01*
X3329982Y-8474255D02*
X3349029Y-8483779D01*
X3349029Y-8483779D02*
X3358553Y-8502826D01*
X3358553Y-8502826D02*
X3358553Y-8607588D01*
X3453791Y-8607588D02*
X3453791Y-8474255D01*
X3453791Y-8493302D02*
X3463315Y-8483779D01*
X3463315Y-8483779D02*
X3482363Y-8474255D01*
X3482363Y-8474255D02*
X3510934Y-8474255D01*
X3510934Y-8474255D02*
X3529982Y-8483779D01*
X3529982Y-8483779D02*
X3539506Y-8502826D01*
X3539506Y-8502826D02*
X3539506Y-8607588D01*
X3539506Y-8502826D02*
X3549029Y-8483779D01*
X3549029Y-8483779D02*
X3568077Y-8474255D01*
X3568077Y-8474255D02*
X3596648Y-8474255D01*
X3596648Y-8474255D02*
X3615696Y-8483779D01*
X3615696Y-8483779D02*
X3625220Y-8502826D01*
X3625220Y-8502826D02*
X3625220Y-8607588D01*
X4015696Y-8398064D02*
X3844268Y-8655207D01*
X4272839Y-8407588D02*
X4291887Y-8407588D01*
X4291887Y-8407588D02*
X4310934Y-8417112D01*
X4310934Y-8417112D02*
X4320458Y-8426636D01*
X4320458Y-8426636D02*
X4329982Y-8445683D01*
X4329982Y-8445683D02*
X4339506Y-8483779D01*
X4339506Y-8483779D02*
X4339506Y-8531398D01*
X4339506Y-8531398D02*
X4329982Y-8569493D01*
X4329982Y-8569493D02*
X4320458Y-8588541D01*
X4320458Y-8588541D02*
X4310934Y-8598064D01*
X4310934Y-8598064D02*
X4291887Y-8607588D01*
X4291887Y-8607588D02*
X4272839Y-8607588D01*
X4272839Y-8607588D02*
X4253791Y-8598064D01*
X4253791Y-8598064D02*
X4244268Y-8588541D01*
X4244268Y-8588541D02*
X4234744Y-8569493D01*
X4234744Y-8569493D02*
X4225220Y-8531398D01*
X4225220Y-8531398D02*
X4225220Y-8483779D01*
X4225220Y-8483779D02*
X4234744Y-8445683D01*
X4234744Y-8445683D02*
X4244268Y-8426636D01*
X4244268Y-8426636D02*
X4253791Y-8417112D01*
X4253791Y-8417112D02*
X4272839Y-8407588D01*
X4425220Y-8588541D02*
X4434744Y-8598064D01*
X4434744Y-8598064D02*
X4425220Y-8607588D01*
X4425220Y-8607588D02*
X4415696Y-8598064D01*
X4415696Y-8598064D02*
X4425220Y-8588541D01*
X4425220Y-8588541D02*
X4425220Y-8607588D01*
X4558553Y-8407588D02*
X4577601Y-8407588D01*
X4577601Y-8407588D02*
X4596649Y-8417112D01*
X4596649Y-8417112D02*
X4606172Y-8426636D01*
X4606172Y-8426636D02*
X4615696Y-8445683D01*
X4615696Y-8445683D02*
X4625220Y-8483779D01*
X4625220Y-8483779D02*
X4625220Y-8531398D01*
X4625220Y-8531398D02*
X4615696Y-8569493D01*
X4615696Y-8569493D02*
X4606172Y-8588541D01*
X4606172Y-8588541D02*
X4596649Y-8598064D01*
X4596649Y-8598064D02*
X4577601Y-8607588D01*
X4577601Y-8607588D02*
X4558553Y-8607588D01*
X4558553Y-8607588D02*
X4539506Y-8598064D01*
X4539506Y-8598064D02*
X4529982Y-8588541D01*
X4529982Y-8588541D02*
X4520458Y-8569493D01*
X4520458Y-8569493D02*
X4510934Y-8531398D01*
X4510934Y-8531398D02*
X4510934Y-8483779D01*
X4510934Y-8483779D02*
X4520458Y-8445683D01*
X4520458Y-8445683D02*
X4529982Y-8426636D01*
X4529982Y-8426636D02*
X4539506Y-8417112D01*
X4539506Y-8417112D02*
X4558553Y-8407588D01*
X4749030Y-8407588D02*
X4768077Y-8407588D01*
X4768077Y-8407588D02*
X4787125Y-8417112D01*
X4787125Y-8417112D02*
X4796649Y-8426636D01*
X4796649Y-8426636D02*
X4806172Y-8445683D01*
X4806172Y-8445683D02*
X4815696Y-8483779D01*
X4815696Y-8483779D02*
X4815696Y-8531398D01*
X4815696Y-8531398D02*
X4806172Y-8569493D01*
X4806172Y-8569493D02*
X4796649Y-8588541D01*
X4796649Y-8588541D02*
X4787125Y-8598064D01*
X4787125Y-8598064D02*
X4768077Y-8607588D01*
X4768077Y-8607588D02*
X4749030Y-8607588D01*
X4749030Y-8607588D02*
X4729982Y-8598064D01*
X4729982Y-8598064D02*
X4720458Y-8588541D01*
X4720458Y-8588541D02*
X4710934Y-8569493D01*
X4710934Y-8569493D02*
X4701411Y-8531398D01*
X4701411Y-8531398D02*
X4701411Y-8483779D01*
X4701411Y-8483779D02*
X4710934Y-8445683D01*
X4710934Y-8445683D02*
X4720458Y-8426636D01*
X4720458Y-8426636D02*
X4729982Y-8417112D01*
X4729982Y-8417112D02*
X4749030Y-8407588D01*
X4996649Y-8407588D02*
X4901411Y-8407588D01*
X4901411Y-8407588D02*
X4891887Y-8502826D01*
X4891887Y-8502826D02*
X4901411Y-8493302D01*
X4901411Y-8493302D02*
X4920458Y-8483779D01*
X4920458Y-8483779D02*
X4968077Y-8483779D01*
X4968077Y-8483779D02*
X4987125Y-8493302D01*
X4987125Y-8493302D02*
X4996649Y-8502826D01*
X4996649Y-8502826D02*
X5006172Y-8521874D01*
X5006172Y-8521874D02*
X5006172Y-8569493D01*
X5006172Y-8569493D02*
X4996649Y-8588541D01*
X4996649Y-8588541D02*
X4987125Y-8598064D01*
X4987125Y-8598064D02*
X4968077Y-8607588D01*
X4968077Y-8607588D02*
X4920458Y-8607588D01*
X4920458Y-8607588D02*
X4901411Y-8598064D01*
X4901411Y-8598064D02*
X4891887Y-8588541D01*
X5101411Y-8607588D02*
X5139506Y-8607588D01*
X5139506Y-8607588D02*
X5158553Y-8598064D01*
X5158553Y-8598064D02*
X5168077Y-8588541D01*
X5168077Y-8588541D02*
X5187125Y-8559969D01*
X5187125Y-8559969D02*
X5196649Y-8521874D01*
X5196649Y-8521874D02*
X5196649Y-8445683D01*
X5196649Y-8445683D02*
X5187125Y-8426636D01*
X5187125Y-8426636D02*
X5177601Y-8417112D01*
X5177601Y-8417112D02*
X5158553Y-8407588D01*
X5158553Y-8407588D02*
X5120458Y-8407588D01*
X5120458Y-8407588D02*
X5101411Y-8417112D01*
X5101411Y-8417112D02*
X5091887Y-8426636D01*
X5091887Y-8426636D02*
X5082363Y-8445683D01*
X5082363Y-8445683D02*
X5082363Y-8493302D01*
X5082363Y-8493302D02*
X5091887Y-8512350D01*
X5091887Y-8512350D02*
X5101411Y-8521874D01*
X5101411Y-8521874D02*
X5120458Y-8531398D01*
X5120458Y-8531398D02*
X5158553Y-8531398D01*
X5158553Y-8531398D02*
X5177601Y-8521874D01*
X5177601Y-8521874D02*
X5187125Y-8512350D01*
X5187125Y-8512350D02*
X5196649Y-8493302D01*
X5272839Y-8407588D02*
X5272839Y-8445683D01*
X5349030Y-8407588D02*
X5349030Y-8445683D01*
X5644268Y-8683779D02*
X5634744Y-8674255D01*
X5634744Y-8674255D02*
X5615696Y-8645683D01*
X5615696Y-8645683D02*
X5606172Y-8626636D01*
X5606172Y-8626636D02*
X5596649Y-8598064D01*
X5596649Y-8598064D02*
X5587125Y-8550445D01*
X5587125Y-8550445D02*
X5587125Y-8512350D01*
X5587125Y-8512350D02*
X5596649Y-8464731D01*
X5596649Y-8464731D02*
X5606172Y-8436160D01*
X5606172Y-8436160D02*
X5615696Y-8417112D01*
X5615696Y-8417112D02*
X5634744Y-8388540D01*
X5634744Y-8388540D02*
X5644268Y-8379017D01*
X5825220Y-8607588D02*
X5710934Y-8607588D01*
X5768077Y-8607588D02*
X5768077Y-8407588D01*
X5768077Y-8407588D02*
X5749030Y-8436160D01*
X5749030Y-8436160D02*
X5729982Y-8455207D01*
X5729982Y-8455207D02*
X5710934Y-8464731D01*
X5996649Y-8407588D02*
X5958553Y-8407588D01*
X5958553Y-8407588D02*
X5939506Y-8417112D01*
X5939506Y-8417112D02*
X5929982Y-8426636D01*
X5929982Y-8426636D02*
X5910934Y-8455207D01*
X5910934Y-8455207D02*
X5901411Y-8493302D01*
X5901411Y-8493302D02*
X5901411Y-8569493D01*
X5901411Y-8569493D02*
X5910934Y-8588541D01*
X5910934Y-8588541D02*
X5920458Y-8598064D01*
X5920458Y-8598064D02*
X5939506Y-8607588D01*
X5939506Y-8607588D02*
X5977601Y-8607588D01*
X5977601Y-8607588D02*
X5996649Y-8598064D01*
X5996649Y-8598064D02*
X6006172Y-8588541D01*
X6006172Y-8588541D02*
X6015696Y-8569493D01*
X6015696Y-8569493D02*
X6015696Y-8521874D01*
X6015696Y-8521874D02*
X6006172Y-8502826D01*
X6006172Y-8502826D02*
X5996649Y-8493302D01*
X5996649Y-8493302D02*
X5977601Y-8483779D01*
X5977601Y-8483779D02*
X5939506Y-8483779D01*
X5939506Y-8483779D02*
X5920458Y-8493302D01*
X5920458Y-8493302D02*
X5910934Y-8502826D01*
X5910934Y-8502826D02*
X5901411Y-8521874D01*
X6253792Y-8607588D02*
X6253792Y-8407588D01*
X6339506Y-8607588D02*
X6339506Y-8502826D01*
X6339506Y-8502826D02*
X6329982Y-8483779D01*
X6329982Y-8483779D02*
X6310934Y-8474255D01*
X6310934Y-8474255D02*
X6282363Y-8474255D01*
X6282363Y-8474255D02*
X6263315Y-8483779D01*
X6263315Y-8483779D02*
X6253792Y-8493302D01*
X6463315Y-8607588D02*
X6444268Y-8598064D01*
X6444268Y-8598064D02*
X6434744Y-8588541D01*
X6434744Y-8588541D02*
X6425220Y-8569493D01*
X6425220Y-8569493D02*
X6425220Y-8512350D01*
X6425220Y-8512350D02*
X6434744Y-8493302D01*
X6434744Y-8493302D02*
X6444268Y-8483779D01*
X6444268Y-8483779D02*
X6463315Y-8474255D01*
X6463315Y-8474255D02*
X6491887Y-8474255D01*
X6491887Y-8474255D02*
X6510934Y-8483779D01*
X6510934Y-8483779D02*
X6520458Y-8493302D01*
X6520458Y-8493302D02*
X6529982Y-8512350D01*
X6529982Y-8512350D02*
X6529982Y-8569493D01*
X6529982Y-8569493D02*
X6520458Y-8588541D01*
X6520458Y-8588541D02*
X6510934Y-8598064D01*
X6510934Y-8598064D02*
X6491887Y-8607588D01*
X6491887Y-8607588D02*
X6463315Y-8607588D01*
X6644268Y-8607588D02*
X6625220Y-8598064D01*
X6625220Y-8598064D02*
X6615696Y-8579017D01*
X6615696Y-8579017D02*
X6615696Y-8407588D01*
X6796649Y-8598064D02*
X6777601Y-8607588D01*
X6777601Y-8607588D02*
X6739506Y-8607588D01*
X6739506Y-8607588D02*
X6720458Y-8598064D01*
X6720458Y-8598064D02*
X6710934Y-8579017D01*
X6710934Y-8579017D02*
X6710934Y-8502826D01*
X6710934Y-8502826D02*
X6720458Y-8483779D01*
X6720458Y-8483779D02*
X6739506Y-8474255D01*
X6739506Y-8474255D02*
X6777601Y-8474255D01*
X6777601Y-8474255D02*
X6796649Y-8483779D01*
X6796649Y-8483779D02*
X6806173Y-8502826D01*
X6806173Y-8502826D02*
X6806173Y-8521874D01*
X6806173Y-8521874D02*
X6710934Y-8540922D01*
X6882363Y-8598064D02*
X6901411Y-8607588D01*
X6901411Y-8607588D02*
X6939506Y-8607588D01*
X6939506Y-8607588D02*
X6958554Y-8598064D01*
X6958554Y-8598064D02*
X6968077Y-8579017D01*
X6968077Y-8579017D02*
X6968077Y-8569493D01*
X6968077Y-8569493D02*
X6958554Y-8550445D01*
X6958554Y-8550445D02*
X6939506Y-8540922D01*
X6939506Y-8540922D02*
X6910934Y-8540922D01*
X6910934Y-8540922D02*
X6891887Y-8531398D01*
X6891887Y-8531398D02*
X6882363Y-8512350D01*
X6882363Y-8512350D02*
X6882363Y-8502826D01*
X6882363Y-8502826D02*
X6891887Y-8483779D01*
X6891887Y-8483779D02*
X6910934Y-8474255D01*
X6910934Y-8474255D02*
X6939506Y-8474255D01*
X6939506Y-8474255D02*
X6958554Y-8483779D01*
X7034744Y-8683779D02*
X7044268Y-8674255D01*
X7044268Y-8674255D02*
X7063315Y-8645683D01*
X7063315Y-8645683D02*
X7072839Y-8626636D01*
X7072839Y-8626636D02*
X7082363Y-8598064D01*
X7082363Y-8598064D02*
X7091887Y-8550445D01*
X7091887Y-8550445D02*
X7091887Y-8512350D01*
X7091887Y-8512350D02*
X7082363Y-8464731D01*
X7082363Y-8464731D02*
X7072839Y-8436160D01*
X7072839Y-8436160D02*
X7063315Y-8417112D01*
X7063315Y-8417112D02*
X7044268Y-8388540D01*
X7044268Y-8388540D02*
X7034744Y-8379017D01*
D12*
X2069205Y-8780104D02*
G75*
G02*
X2049205Y-8780104I-10000J0D01*
G01*
X2049205Y-8780104D02*
G75*
G02*
X2069205Y-8780104I10000J0D01*
G01*
D11*
X2368077Y-8671588D02*
X2387125Y-8671588D01*
X2387125Y-8671588D02*
X2406172Y-8681112D01*
X2406172Y-8681112D02*
X2415696Y-8690636D01*
X2415696Y-8690636D02*
X2425220Y-8709683D01*
X2425220Y-8709683D02*
X2434744Y-8747779D01*
X2434744Y-8747779D02*
X2434744Y-8795398D01*
X2434744Y-8795398D02*
X2425220Y-8833493D01*
X2425220Y-8833493D02*
X2415696Y-8852541D01*
X2415696Y-8852541D02*
X2406172Y-8862064D01*
X2406172Y-8862064D02*
X2387125Y-8871588D01*
X2387125Y-8871588D02*
X2368077Y-8871588D01*
X2368077Y-8871588D02*
X2349029Y-8862064D01*
X2349029Y-8862064D02*
X2339506Y-8852541D01*
X2339506Y-8852541D02*
X2329982Y-8833493D01*
X2329982Y-8833493D02*
X2320458Y-8795398D01*
X2320458Y-8795398D02*
X2320458Y-8747779D01*
X2320458Y-8747779D02*
X2329982Y-8709683D01*
X2329982Y-8709683D02*
X2339506Y-8690636D01*
X2339506Y-8690636D02*
X2349029Y-8681112D01*
X2349029Y-8681112D02*
X2368077Y-8671588D01*
X2520458Y-8852541D02*
X2529982Y-8862064D01*
X2529982Y-8862064D02*
X2520458Y-8871588D01*
X2520458Y-8871588D02*
X2510934Y-8862064D01*
X2510934Y-8862064D02*
X2520458Y-8852541D01*
X2520458Y-8852541D02*
X2520458Y-8871588D01*
X2606172Y-8690636D02*
X2615696Y-8681112D01*
X2615696Y-8681112D02*
X2634744Y-8671588D01*
X2634744Y-8671588D02*
X2682363Y-8671588D01*
X2682363Y-8671588D02*
X2701410Y-8681112D01*
X2701410Y-8681112D02*
X2710934Y-8690636D01*
X2710934Y-8690636D02*
X2720458Y-8709683D01*
X2720458Y-8709683D02*
X2720458Y-8728731D01*
X2720458Y-8728731D02*
X2710934Y-8757302D01*
X2710934Y-8757302D02*
X2596648Y-8871588D01*
X2596648Y-8871588D02*
X2720458Y-8871588D01*
X2844267Y-8671588D02*
X2863315Y-8671588D01*
X2863315Y-8671588D02*
X2882363Y-8681112D01*
X2882363Y-8681112D02*
X2891886Y-8690636D01*
X2891886Y-8690636D02*
X2901410Y-8709683D01*
X2901410Y-8709683D02*
X2910934Y-8747779D01*
X2910934Y-8747779D02*
X2910934Y-8795398D01*
X2910934Y-8795398D02*
X2901410Y-8833493D01*
X2901410Y-8833493D02*
X2891886Y-8852541D01*
X2891886Y-8852541D02*
X2882363Y-8862064D01*
X2882363Y-8862064D02*
X2863315Y-8871588D01*
X2863315Y-8871588D02*
X2844267Y-8871588D01*
X2844267Y-8871588D02*
X2825220Y-8862064D01*
X2825220Y-8862064D02*
X2815696Y-8852541D01*
X2815696Y-8852541D02*
X2806172Y-8833493D01*
X2806172Y-8833493D02*
X2796648Y-8795398D01*
X2796648Y-8795398D02*
X2796648Y-8747779D01*
X2796648Y-8747779D02*
X2806172Y-8709683D01*
X2806172Y-8709683D02*
X2815696Y-8690636D01*
X2815696Y-8690636D02*
X2825220Y-8681112D01*
X2825220Y-8681112D02*
X2844267Y-8671588D01*
X3034744Y-8671588D02*
X3053791Y-8671588D01*
X3053791Y-8671588D02*
X3072839Y-8681112D01*
X3072839Y-8681112D02*
X3082363Y-8690636D01*
X3082363Y-8690636D02*
X3091886Y-8709683D01*
X3091886Y-8709683D02*
X3101410Y-8747779D01*
X3101410Y-8747779D02*
X3101410Y-8795398D01*
X3101410Y-8795398D02*
X3091886Y-8833493D01*
X3091886Y-8833493D02*
X3082363Y-8852541D01*
X3082363Y-8852541D02*
X3072839Y-8862064D01*
X3072839Y-8862064D02*
X3053791Y-8871588D01*
X3053791Y-8871588D02*
X3034744Y-8871588D01*
X3034744Y-8871588D02*
X3015696Y-8862064D01*
X3015696Y-8862064D02*
X3006172Y-8852541D01*
X3006172Y-8852541D02*
X2996648Y-8833493D01*
X2996648Y-8833493D02*
X2987125Y-8795398D01*
X2987125Y-8795398D02*
X2987125Y-8747779D01*
X2987125Y-8747779D02*
X2996648Y-8709683D01*
X2996648Y-8709683D02*
X3006172Y-8690636D01*
X3006172Y-8690636D02*
X3015696Y-8681112D01*
X3015696Y-8681112D02*
X3034744Y-8671588D01*
X3187125Y-8871588D02*
X3187125Y-8738255D01*
X3187125Y-8757302D02*
X3196648Y-8747779D01*
X3196648Y-8747779D02*
X3215696Y-8738255D01*
X3215696Y-8738255D02*
X3244267Y-8738255D01*
X3244267Y-8738255D02*
X3263315Y-8747779D01*
X3263315Y-8747779D02*
X3272839Y-8766826D01*
X3272839Y-8766826D02*
X3272839Y-8871588D01*
X3272839Y-8766826D02*
X3282363Y-8747779D01*
X3282363Y-8747779D02*
X3301410Y-8738255D01*
X3301410Y-8738255D02*
X3329982Y-8738255D01*
X3329982Y-8738255D02*
X3349029Y-8747779D01*
X3349029Y-8747779D02*
X3358553Y-8766826D01*
X3358553Y-8766826D02*
X3358553Y-8871588D01*
X3453791Y-8871588D02*
X3453791Y-8738255D01*
X3453791Y-8757302D02*
X3463315Y-8747779D01*
X3463315Y-8747779D02*
X3482363Y-8738255D01*
X3482363Y-8738255D02*
X3510934Y-8738255D01*
X3510934Y-8738255D02*
X3529982Y-8747779D01*
X3529982Y-8747779D02*
X3539506Y-8766826D01*
X3539506Y-8766826D02*
X3539506Y-8871588D01*
X3539506Y-8766826D02*
X3549029Y-8747779D01*
X3549029Y-8747779D02*
X3568077Y-8738255D01*
X3568077Y-8738255D02*
X3596648Y-8738255D01*
X3596648Y-8738255D02*
X3615696Y-8747779D01*
X3615696Y-8747779D02*
X3625220Y-8766826D01*
X3625220Y-8766826D02*
X3625220Y-8871588D01*
X4015696Y-8662064D02*
X3844268Y-8919207D01*
X4272839Y-8671588D02*
X4291887Y-8671588D01*
X4291887Y-8671588D02*
X4310934Y-8681112D01*
X4310934Y-8681112D02*
X4320458Y-8690636D01*
X4320458Y-8690636D02*
X4329982Y-8709683D01*
X4329982Y-8709683D02*
X4339506Y-8747779D01*
X4339506Y-8747779D02*
X4339506Y-8795398D01*
X4339506Y-8795398D02*
X4329982Y-8833493D01*
X4329982Y-8833493D02*
X4320458Y-8852541D01*
X4320458Y-8852541D02*
X4310934Y-8862064D01*
X4310934Y-8862064D02*
X4291887Y-8871588D01*
X4291887Y-8871588D02*
X4272839Y-8871588D01*
X4272839Y-8871588D02*
X4253791Y-8862064D01*
X4253791Y-8862064D02*
X4244268Y-8852541D01*
X4244268Y-8852541D02*
X4234744Y-8833493D01*
X4234744Y-8833493D02*
X4225220Y-8795398D01*
X4225220Y-8795398D02*
X4225220Y-8747779D01*
X4225220Y-8747779D02*
X4234744Y-8709683D01*
X4234744Y-8709683D02*
X4244268Y-8690636D01*
X4244268Y-8690636D02*
X4253791Y-8681112D01*
X4253791Y-8681112D02*
X4272839Y-8671588D01*
X4425220Y-8852541D02*
X4434744Y-8862064D01*
X4434744Y-8862064D02*
X4425220Y-8871588D01*
X4425220Y-8871588D02*
X4415696Y-8862064D01*
X4415696Y-8862064D02*
X4425220Y-8852541D01*
X4425220Y-8852541D02*
X4425220Y-8871588D01*
X4558553Y-8671588D02*
X4577601Y-8671588D01*
X4577601Y-8671588D02*
X4596649Y-8681112D01*
X4596649Y-8681112D02*
X4606172Y-8690636D01*
X4606172Y-8690636D02*
X4615696Y-8709683D01*
X4615696Y-8709683D02*
X4625220Y-8747779D01*
X4625220Y-8747779D02*
X4625220Y-8795398D01*
X4625220Y-8795398D02*
X4615696Y-8833493D01*
X4615696Y-8833493D02*
X4606172Y-8852541D01*
X4606172Y-8852541D02*
X4596649Y-8862064D01*
X4596649Y-8862064D02*
X4577601Y-8871588D01*
X4577601Y-8871588D02*
X4558553Y-8871588D01*
X4558553Y-8871588D02*
X4539506Y-8862064D01*
X4539506Y-8862064D02*
X4529982Y-8852541D01*
X4529982Y-8852541D02*
X4520458Y-8833493D01*
X4520458Y-8833493D02*
X4510934Y-8795398D01*
X4510934Y-8795398D02*
X4510934Y-8747779D01*
X4510934Y-8747779D02*
X4520458Y-8709683D01*
X4520458Y-8709683D02*
X4529982Y-8690636D01*
X4529982Y-8690636D02*
X4539506Y-8681112D01*
X4539506Y-8681112D02*
X4558553Y-8671588D01*
X4749030Y-8671588D02*
X4768077Y-8671588D01*
X4768077Y-8671588D02*
X4787125Y-8681112D01*
X4787125Y-8681112D02*
X4796649Y-8690636D01*
X4796649Y-8690636D02*
X4806172Y-8709683D01*
X4806172Y-8709683D02*
X4815696Y-8747779D01*
X4815696Y-8747779D02*
X4815696Y-8795398D01*
X4815696Y-8795398D02*
X4806172Y-8833493D01*
X4806172Y-8833493D02*
X4796649Y-8852541D01*
X4796649Y-8852541D02*
X4787125Y-8862064D01*
X4787125Y-8862064D02*
X4768077Y-8871588D01*
X4768077Y-8871588D02*
X4749030Y-8871588D01*
X4749030Y-8871588D02*
X4729982Y-8862064D01*
X4729982Y-8862064D02*
X4720458Y-8852541D01*
X4720458Y-8852541D02*
X4710934Y-8833493D01*
X4710934Y-8833493D02*
X4701411Y-8795398D01*
X4701411Y-8795398D02*
X4701411Y-8747779D01*
X4701411Y-8747779D02*
X4710934Y-8709683D01*
X4710934Y-8709683D02*
X4720458Y-8690636D01*
X4720458Y-8690636D02*
X4729982Y-8681112D01*
X4729982Y-8681112D02*
X4749030Y-8671588D01*
X4882363Y-8671588D02*
X5015696Y-8671588D01*
X5015696Y-8671588D02*
X4929982Y-8871588D01*
X5101411Y-8871588D02*
X5139506Y-8871588D01*
X5139506Y-8871588D02*
X5158553Y-8862064D01*
X5158553Y-8862064D02*
X5168077Y-8852541D01*
X5168077Y-8852541D02*
X5187125Y-8823969D01*
X5187125Y-8823969D02*
X5196649Y-8785874D01*
X5196649Y-8785874D02*
X5196649Y-8709683D01*
X5196649Y-8709683D02*
X5187125Y-8690636D01*
X5187125Y-8690636D02*
X5177601Y-8681112D01*
X5177601Y-8681112D02*
X5158553Y-8671588D01*
X5158553Y-8671588D02*
X5120458Y-8671588D01*
X5120458Y-8671588D02*
X5101411Y-8681112D01*
X5101411Y-8681112D02*
X5091887Y-8690636D01*
X5091887Y-8690636D02*
X5082363Y-8709683D01*
X5082363Y-8709683D02*
X5082363Y-8757302D01*
X5082363Y-8757302D02*
X5091887Y-8776350D01*
X5091887Y-8776350D02*
X5101411Y-8785874D01*
X5101411Y-8785874D02*
X5120458Y-8795398D01*
X5120458Y-8795398D02*
X5158553Y-8795398D01*
X5158553Y-8795398D02*
X5177601Y-8785874D01*
X5177601Y-8785874D02*
X5187125Y-8776350D01*
X5187125Y-8776350D02*
X5196649Y-8757302D01*
X5272839Y-8671588D02*
X5272839Y-8709683D01*
X5349030Y-8671588D02*
X5349030Y-8709683D01*
X5644268Y-8947779D02*
X5634744Y-8938255D01*
X5634744Y-8938255D02*
X5615696Y-8909683D01*
X5615696Y-8909683D02*
X5606172Y-8890636D01*
X5606172Y-8890636D02*
X5596649Y-8862064D01*
X5596649Y-8862064D02*
X5587125Y-8814445D01*
X5587125Y-8814445D02*
X5587125Y-8776350D01*
X5587125Y-8776350D02*
X5596649Y-8728731D01*
X5596649Y-8728731D02*
X5606172Y-8700160D01*
X5606172Y-8700160D02*
X5615696Y-8681112D01*
X5615696Y-8681112D02*
X5634744Y-8652541D01*
X5634744Y-8652541D02*
X5644268Y-8643017D01*
X5825220Y-8871588D02*
X5710934Y-8871588D01*
X5768077Y-8871588D02*
X5768077Y-8671588D01*
X5768077Y-8671588D02*
X5749030Y-8700160D01*
X5749030Y-8700160D02*
X5729982Y-8719207D01*
X5729982Y-8719207D02*
X5710934Y-8728731D01*
X6006172Y-8671588D02*
X5910934Y-8671588D01*
X5910934Y-8671588D02*
X5901411Y-8766826D01*
X5901411Y-8766826D02*
X5910934Y-8757302D01*
X5910934Y-8757302D02*
X5929982Y-8747779D01*
X5929982Y-8747779D02*
X5977601Y-8747779D01*
X5977601Y-8747779D02*
X5996649Y-8757302D01*
X5996649Y-8757302D02*
X6006172Y-8766826D01*
X6006172Y-8766826D02*
X6015696Y-8785874D01*
X6015696Y-8785874D02*
X6015696Y-8833493D01*
X6015696Y-8833493D02*
X6006172Y-8852541D01*
X6006172Y-8852541D02*
X5996649Y-8862064D01*
X5996649Y-8862064D02*
X5977601Y-8871588D01*
X5977601Y-8871588D02*
X5929982Y-8871588D01*
X5929982Y-8871588D02*
X5910934Y-8862064D01*
X5910934Y-8862064D02*
X5901411Y-8852541D01*
X6253792Y-8871588D02*
X6253792Y-8671588D01*
X6339506Y-8871588D02*
X6339506Y-8766826D01*
X6339506Y-8766826D02*
X6329982Y-8747779D01*
X6329982Y-8747779D02*
X6310934Y-8738255D01*
X6310934Y-8738255D02*
X6282363Y-8738255D01*
X6282363Y-8738255D02*
X6263315Y-8747779D01*
X6263315Y-8747779D02*
X6253792Y-8757302D01*
X6463315Y-8871588D02*
X6444268Y-8862064D01*
X6444268Y-8862064D02*
X6434744Y-8852541D01*
X6434744Y-8852541D02*
X6425220Y-8833493D01*
X6425220Y-8833493D02*
X6425220Y-8776350D01*
X6425220Y-8776350D02*
X6434744Y-8757302D01*
X6434744Y-8757302D02*
X6444268Y-8747779D01*
X6444268Y-8747779D02*
X6463315Y-8738255D01*
X6463315Y-8738255D02*
X6491887Y-8738255D01*
X6491887Y-8738255D02*
X6510934Y-8747779D01*
X6510934Y-8747779D02*
X6520458Y-8757302D01*
X6520458Y-8757302D02*
X6529982Y-8776350D01*
X6529982Y-8776350D02*
X6529982Y-8833493D01*
X6529982Y-8833493D02*
X6520458Y-8852541D01*
X6520458Y-8852541D02*
X6510934Y-8862064D01*
X6510934Y-8862064D02*
X6491887Y-8871588D01*
X6491887Y-8871588D02*
X6463315Y-8871588D01*
X6644268Y-8871588D02*
X6625220Y-8862064D01*
X6625220Y-8862064D02*
X6615696Y-8843017D01*
X6615696Y-8843017D02*
X6615696Y-8671588D01*
X6796649Y-8862064D02*
X6777601Y-8871588D01*
X6777601Y-8871588D02*
X6739506Y-8871588D01*
X6739506Y-8871588D02*
X6720458Y-8862064D01*
X6720458Y-8862064D02*
X6710934Y-8843017D01*
X6710934Y-8843017D02*
X6710934Y-8766826D01*
X6710934Y-8766826D02*
X6720458Y-8747779D01*
X6720458Y-8747779D02*
X6739506Y-8738255D01*
X6739506Y-8738255D02*
X6777601Y-8738255D01*
X6777601Y-8738255D02*
X6796649Y-8747779D01*
X6796649Y-8747779D02*
X6806173Y-8766826D01*
X6806173Y-8766826D02*
X6806173Y-8785874D01*
X6806173Y-8785874D02*
X6710934Y-8804922D01*
X6882363Y-8862064D02*
X6901411Y-8871588D01*
X6901411Y-8871588D02*
X6939506Y-8871588D01*
X6939506Y-8871588D02*
X6958554Y-8862064D01*
X6958554Y-8862064D02*
X6968077Y-8843017D01*
X6968077Y-8843017D02*
X6968077Y-8833493D01*
X6968077Y-8833493D02*
X6958554Y-8814445D01*
X6958554Y-8814445D02*
X6939506Y-8804922D01*
X6939506Y-8804922D02*
X6910934Y-8804922D01*
X6910934Y-8804922D02*
X6891887Y-8795398D01*
X6891887Y-8795398D02*
X6882363Y-8776350D01*
X6882363Y-8776350D02*
X6882363Y-8766826D01*
X6882363Y-8766826D02*
X6891887Y-8747779D01*
X6891887Y-8747779D02*
X6910934Y-8738255D01*
X6910934Y-8738255D02*
X6939506Y-8738255D01*
X6939506Y-8738255D02*
X6958554Y-8747779D01*
X7034744Y-8947779D02*
X7044268Y-8938255D01*
X7044268Y-8938255D02*
X7063315Y-8909683D01*
X7063315Y-8909683D02*
X7072839Y-8890636D01*
X7072839Y-8890636D02*
X7082363Y-8862064D01*
X7082363Y-8862064D02*
X7091887Y-8814445D01*
X7091887Y-8814445D02*
X7091887Y-8776350D01*
X7091887Y-8776350D02*
X7082363Y-8728731D01*
X7082363Y-8728731D02*
X7072839Y-8700160D01*
X7072839Y-8700160D02*
X7063315Y-8681112D01*
X7063315Y-8681112D02*
X7044268Y-8652541D01*
X7044268Y-8652541D02*
X7034744Y-8643017D01*
D12*
X2059205Y-9034104D02*
X2059205Y-9054104D01*
X2049205Y-9044104D02*
X2069205Y-9044104D01*
D11*
X2368077Y-8935588D02*
X2387125Y-8935588D01*
X2387125Y-8935588D02*
X2406172Y-8945112D01*
X2406172Y-8945112D02*
X2415696Y-8954636D01*
X2415696Y-8954636D02*
X2425220Y-8973683D01*
X2425220Y-8973683D02*
X2434744Y-9011779D01*
X2434744Y-9011779D02*
X2434744Y-9059398D01*
X2434744Y-9059398D02*
X2425220Y-9097493D01*
X2425220Y-9097493D02*
X2415696Y-9116541D01*
X2415696Y-9116541D02*
X2406172Y-9126064D01*
X2406172Y-9126064D02*
X2387125Y-9135588D01*
X2387125Y-9135588D02*
X2368077Y-9135588D01*
X2368077Y-9135588D02*
X2349029Y-9126064D01*
X2349029Y-9126064D02*
X2339506Y-9116541D01*
X2339506Y-9116541D02*
X2329982Y-9097493D01*
X2329982Y-9097493D02*
X2320458Y-9059398D01*
X2320458Y-9059398D02*
X2320458Y-9011779D01*
X2320458Y-9011779D02*
X2329982Y-8973683D01*
X2329982Y-8973683D02*
X2339506Y-8954636D01*
X2339506Y-8954636D02*
X2349029Y-8945112D01*
X2349029Y-8945112D02*
X2368077Y-8935588D01*
X2520458Y-9116541D02*
X2529982Y-9126064D01*
X2529982Y-9126064D02*
X2520458Y-9135588D01*
X2520458Y-9135588D02*
X2510934Y-9126064D01*
X2510934Y-9126064D02*
X2520458Y-9116541D01*
X2520458Y-9116541D02*
X2520458Y-9135588D01*
X2606172Y-8954636D02*
X2615696Y-8945112D01*
X2615696Y-8945112D02*
X2634744Y-8935588D01*
X2634744Y-8935588D02*
X2682363Y-8935588D01*
X2682363Y-8935588D02*
X2701410Y-8945112D01*
X2701410Y-8945112D02*
X2710934Y-8954636D01*
X2710934Y-8954636D02*
X2720458Y-8973683D01*
X2720458Y-8973683D02*
X2720458Y-8992731D01*
X2720458Y-8992731D02*
X2710934Y-9021302D01*
X2710934Y-9021302D02*
X2596648Y-9135588D01*
X2596648Y-9135588D02*
X2720458Y-9135588D01*
X2844267Y-8935588D02*
X2863315Y-8935588D01*
X2863315Y-8935588D02*
X2882363Y-8945112D01*
X2882363Y-8945112D02*
X2891886Y-8954636D01*
X2891886Y-8954636D02*
X2901410Y-8973683D01*
X2901410Y-8973683D02*
X2910934Y-9011779D01*
X2910934Y-9011779D02*
X2910934Y-9059398D01*
X2910934Y-9059398D02*
X2901410Y-9097493D01*
X2901410Y-9097493D02*
X2891886Y-9116541D01*
X2891886Y-9116541D02*
X2882363Y-9126064D01*
X2882363Y-9126064D02*
X2863315Y-9135588D01*
X2863315Y-9135588D02*
X2844267Y-9135588D01*
X2844267Y-9135588D02*
X2825220Y-9126064D01*
X2825220Y-9126064D02*
X2815696Y-9116541D01*
X2815696Y-9116541D02*
X2806172Y-9097493D01*
X2806172Y-9097493D02*
X2796648Y-9059398D01*
X2796648Y-9059398D02*
X2796648Y-9011779D01*
X2796648Y-9011779D02*
X2806172Y-8973683D01*
X2806172Y-8973683D02*
X2815696Y-8954636D01*
X2815696Y-8954636D02*
X2825220Y-8945112D01*
X2825220Y-8945112D02*
X2844267Y-8935588D01*
X3034744Y-8935588D02*
X3053791Y-8935588D01*
X3053791Y-8935588D02*
X3072839Y-8945112D01*
X3072839Y-8945112D02*
X3082363Y-8954636D01*
X3082363Y-8954636D02*
X3091886Y-8973683D01*
X3091886Y-8973683D02*
X3101410Y-9011779D01*
X3101410Y-9011779D02*
X3101410Y-9059398D01*
X3101410Y-9059398D02*
X3091886Y-9097493D01*
X3091886Y-9097493D02*
X3082363Y-9116541D01*
X3082363Y-9116541D02*
X3072839Y-9126064D01*
X3072839Y-9126064D02*
X3053791Y-9135588D01*
X3053791Y-9135588D02*
X3034744Y-9135588D01*
X3034744Y-9135588D02*
X3015696Y-9126064D01*
X3015696Y-9126064D02*
X3006172Y-9116541D01*
X3006172Y-9116541D02*
X2996648Y-9097493D01*
X2996648Y-9097493D02*
X2987125Y-9059398D01*
X2987125Y-9059398D02*
X2987125Y-9011779D01*
X2987125Y-9011779D02*
X2996648Y-8973683D01*
X2996648Y-8973683D02*
X3006172Y-8954636D01*
X3006172Y-8954636D02*
X3015696Y-8945112D01*
X3015696Y-8945112D02*
X3034744Y-8935588D01*
X3187125Y-9135588D02*
X3187125Y-9002255D01*
X3187125Y-9021302D02*
X3196648Y-9011779D01*
X3196648Y-9011779D02*
X3215696Y-9002255D01*
X3215696Y-9002255D02*
X3244267Y-9002255D01*
X3244267Y-9002255D02*
X3263315Y-9011779D01*
X3263315Y-9011779D02*
X3272839Y-9030826D01*
X3272839Y-9030826D02*
X3272839Y-9135588D01*
X3272839Y-9030826D02*
X3282363Y-9011779D01*
X3282363Y-9011779D02*
X3301410Y-9002255D01*
X3301410Y-9002255D02*
X3329982Y-9002255D01*
X3329982Y-9002255D02*
X3349029Y-9011779D01*
X3349029Y-9011779D02*
X3358553Y-9030826D01*
X3358553Y-9030826D02*
X3358553Y-9135588D01*
X3453791Y-9135588D02*
X3453791Y-9002255D01*
X3453791Y-9021302D02*
X3463315Y-9011779D01*
X3463315Y-9011779D02*
X3482363Y-9002255D01*
X3482363Y-9002255D02*
X3510934Y-9002255D01*
X3510934Y-9002255D02*
X3529982Y-9011779D01*
X3529982Y-9011779D02*
X3539506Y-9030826D01*
X3539506Y-9030826D02*
X3539506Y-9135588D01*
X3539506Y-9030826D02*
X3549029Y-9011779D01*
X3549029Y-9011779D02*
X3568077Y-9002255D01*
X3568077Y-9002255D02*
X3596648Y-9002255D01*
X3596648Y-9002255D02*
X3615696Y-9011779D01*
X3615696Y-9011779D02*
X3625220Y-9030826D01*
X3625220Y-9030826D02*
X3625220Y-9135588D01*
X4015696Y-8926064D02*
X3844268Y-9183207D01*
X4272839Y-8935588D02*
X4291887Y-8935588D01*
X4291887Y-8935588D02*
X4310934Y-8945112D01*
X4310934Y-8945112D02*
X4320458Y-8954636D01*
X4320458Y-8954636D02*
X4329982Y-8973683D01*
X4329982Y-8973683D02*
X4339506Y-9011779D01*
X4339506Y-9011779D02*
X4339506Y-9059398D01*
X4339506Y-9059398D02*
X4329982Y-9097493D01*
X4329982Y-9097493D02*
X4320458Y-9116541D01*
X4320458Y-9116541D02*
X4310934Y-9126064D01*
X4310934Y-9126064D02*
X4291887Y-9135588D01*
X4291887Y-9135588D02*
X4272839Y-9135588D01*
X4272839Y-9135588D02*
X4253791Y-9126064D01*
X4253791Y-9126064D02*
X4244268Y-9116541D01*
X4244268Y-9116541D02*
X4234744Y-9097493D01*
X4234744Y-9097493D02*
X4225220Y-9059398D01*
X4225220Y-9059398D02*
X4225220Y-9011779D01*
X4225220Y-9011779D02*
X4234744Y-8973683D01*
X4234744Y-8973683D02*
X4244268Y-8954636D01*
X4244268Y-8954636D02*
X4253791Y-8945112D01*
X4253791Y-8945112D02*
X4272839Y-8935588D01*
X4425220Y-9116541D02*
X4434744Y-9126064D01*
X4434744Y-9126064D02*
X4425220Y-9135588D01*
X4425220Y-9135588D02*
X4415696Y-9126064D01*
X4415696Y-9126064D02*
X4425220Y-9116541D01*
X4425220Y-9116541D02*
X4425220Y-9135588D01*
X4558553Y-8935588D02*
X4577601Y-8935588D01*
X4577601Y-8935588D02*
X4596649Y-8945112D01*
X4596649Y-8945112D02*
X4606172Y-8954636D01*
X4606172Y-8954636D02*
X4615696Y-8973683D01*
X4615696Y-8973683D02*
X4625220Y-9011779D01*
X4625220Y-9011779D02*
X4625220Y-9059398D01*
X4625220Y-9059398D02*
X4615696Y-9097493D01*
X4615696Y-9097493D02*
X4606172Y-9116541D01*
X4606172Y-9116541D02*
X4596649Y-9126064D01*
X4596649Y-9126064D02*
X4577601Y-9135588D01*
X4577601Y-9135588D02*
X4558553Y-9135588D01*
X4558553Y-9135588D02*
X4539506Y-9126064D01*
X4539506Y-9126064D02*
X4529982Y-9116541D01*
X4529982Y-9116541D02*
X4520458Y-9097493D01*
X4520458Y-9097493D02*
X4510934Y-9059398D01*
X4510934Y-9059398D02*
X4510934Y-9011779D01*
X4510934Y-9011779D02*
X4520458Y-8973683D01*
X4520458Y-8973683D02*
X4529982Y-8954636D01*
X4529982Y-8954636D02*
X4539506Y-8945112D01*
X4539506Y-8945112D02*
X4558553Y-8935588D01*
X4749030Y-8935588D02*
X4768077Y-8935588D01*
X4768077Y-8935588D02*
X4787125Y-8945112D01*
X4787125Y-8945112D02*
X4796649Y-8954636D01*
X4796649Y-8954636D02*
X4806172Y-8973683D01*
X4806172Y-8973683D02*
X4815696Y-9011779D01*
X4815696Y-9011779D02*
X4815696Y-9059398D01*
X4815696Y-9059398D02*
X4806172Y-9097493D01*
X4806172Y-9097493D02*
X4796649Y-9116541D01*
X4796649Y-9116541D02*
X4787125Y-9126064D01*
X4787125Y-9126064D02*
X4768077Y-9135588D01*
X4768077Y-9135588D02*
X4749030Y-9135588D01*
X4749030Y-9135588D02*
X4729982Y-9126064D01*
X4729982Y-9126064D02*
X4720458Y-9116541D01*
X4720458Y-9116541D02*
X4710934Y-9097493D01*
X4710934Y-9097493D02*
X4701411Y-9059398D01*
X4701411Y-9059398D02*
X4701411Y-9011779D01*
X4701411Y-9011779D02*
X4710934Y-8973683D01*
X4710934Y-8973683D02*
X4720458Y-8954636D01*
X4720458Y-8954636D02*
X4729982Y-8945112D01*
X4729982Y-8945112D02*
X4749030Y-8935588D01*
X4882363Y-8935588D02*
X5015696Y-8935588D01*
X5015696Y-8935588D02*
X4929982Y-9135588D01*
X5101411Y-9135588D02*
X5139506Y-9135588D01*
X5139506Y-9135588D02*
X5158553Y-9126064D01*
X5158553Y-9126064D02*
X5168077Y-9116541D01*
X5168077Y-9116541D02*
X5187125Y-9087969D01*
X5187125Y-9087969D02*
X5196649Y-9049874D01*
X5196649Y-9049874D02*
X5196649Y-8973683D01*
X5196649Y-8973683D02*
X5187125Y-8954636D01*
X5187125Y-8954636D02*
X5177601Y-8945112D01*
X5177601Y-8945112D02*
X5158553Y-8935588D01*
X5158553Y-8935588D02*
X5120458Y-8935588D01*
X5120458Y-8935588D02*
X5101411Y-8945112D01*
X5101411Y-8945112D02*
X5091887Y-8954636D01*
X5091887Y-8954636D02*
X5082363Y-8973683D01*
X5082363Y-8973683D02*
X5082363Y-9021302D01*
X5082363Y-9021302D02*
X5091887Y-9040350D01*
X5091887Y-9040350D02*
X5101411Y-9049874D01*
X5101411Y-9049874D02*
X5120458Y-9059398D01*
X5120458Y-9059398D02*
X5158553Y-9059398D01*
X5158553Y-9059398D02*
X5177601Y-9049874D01*
X5177601Y-9049874D02*
X5187125Y-9040350D01*
X5187125Y-9040350D02*
X5196649Y-9021302D01*
X5272839Y-8935588D02*
X5272839Y-8973683D01*
X5349030Y-8935588D02*
X5349030Y-8973683D01*
X5644268Y-9211779D02*
X5634744Y-9202255D01*
X5634744Y-9202255D02*
X5615696Y-9173683D01*
X5615696Y-9173683D02*
X5606172Y-9154636D01*
X5606172Y-9154636D02*
X5596649Y-9126064D01*
X5596649Y-9126064D02*
X5587125Y-9078445D01*
X5587125Y-9078445D02*
X5587125Y-9040350D01*
X5587125Y-9040350D02*
X5596649Y-8992731D01*
X5596649Y-8992731D02*
X5606172Y-8964160D01*
X5606172Y-8964160D02*
X5615696Y-8945112D01*
X5615696Y-8945112D02*
X5634744Y-8916541D01*
X5634744Y-8916541D02*
X5644268Y-8907017D01*
X5806172Y-9002255D02*
X5806172Y-9135588D01*
X5758553Y-8926064D02*
X5710934Y-9068922D01*
X5710934Y-9068922D02*
X5834744Y-9068922D01*
X6063315Y-9135588D02*
X6063315Y-8935588D01*
X6149030Y-9135588D02*
X6149030Y-9030826D01*
X6149030Y-9030826D02*
X6139506Y-9011779D01*
X6139506Y-9011779D02*
X6120458Y-9002255D01*
X6120458Y-9002255D02*
X6091887Y-9002255D01*
X6091887Y-9002255D02*
X6072839Y-9011779D01*
X6072839Y-9011779D02*
X6063315Y-9021302D01*
X6272839Y-9135588D02*
X6253792Y-9126064D01*
X6253792Y-9126064D02*
X6244268Y-9116541D01*
X6244268Y-9116541D02*
X6234744Y-9097493D01*
X6234744Y-9097493D02*
X6234744Y-9040350D01*
X6234744Y-9040350D02*
X6244268Y-9021302D01*
X6244268Y-9021302D02*
X6253792Y-9011779D01*
X6253792Y-9011779D02*
X6272839Y-9002255D01*
X6272839Y-9002255D02*
X6301411Y-9002255D01*
X6301411Y-9002255D02*
X6320458Y-9011779D01*
X6320458Y-9011779D02*
X6329982Y-9021302D01*
X6329982Y-9021302D02*
X6339506Y-9040350D01*
X6339506Y-9040350D02*
X6339506Y-9097493D01*
X6339506Y-9097493D02*
X6329982Y-9116541D01*
X6329982Y-9116541D02*
X6320458Y-9126064D01*
X6320458Y-9126064D02*
X6301411Y-9135588D01*
X6301411Y-9135588D02*
X6272839Y-9135588D01*
X6453792Y-9135588D02*
X6434744Y-9126064D01*
X6434744Y-9126064D02*
X6425220Y-9107017D01*
X6425220Y-9107017D02*
X6425220Y-8935588D01*
X6606173Y-9126064D02*
X6587125Y-9135588D01*
X6587125Y-9135588D02*
X6549030Y-9135588D01*
X6549030Y-9135588D02*
X6529982Y-9126064D01*
X6529982Y-9126064D02*
X6520458Y-9107017D01*
X6520458Y-9107017D02*
X6520458Y-9030826D01*
X6520458Y-9030826D02*
X6529982Y-9011779D01*
X6529982Y-9011779D02*
X6549030Y-9002255D01*
X6549030Y-9002255D02*
X6587125Y-9002255D01*
X6587125Y-9002255D02*
X6606173Y-9011779D01*
X6606173Y-9011779D02*
X6615696Y-9030826D01*
X6615696Y-9030826D02*
X6615696Y-9049874D01*
X6615696Y-9049874D02*
X6520458Y-9068922D01*
X6691887Y-9126064D02*
X6710934Y-9135588D01*
X6710934Y-9135588D02*
X6749030Y-9135588D01*
X6749030Y-9135588D02*
X6768077Y-9126064D01*
X6768077Y-9126064D02*
X6777601Y-9107017D01*
X6777601Y-9107017D02*
X6777601Y-9097493D01*
X6777601Y-9097493D02*
X6768077Y-9078445D01*
X6768077Y-9078445D02*
X6749030Y-9068922D01*
X6749030Y-9068922D02*
X6720458Y-9068922D01*
X6720458Y-9068922D02*
X6701411Y-9059398D01*
X6701411Y-9059398D02*
X6691887Y-9040350D01*
X6691887Y-9040350D02*
X6691887Y-9030826D01*
X6691887Y-9030826D02*
X6701411Y-9011779D01*
X6701411Y-9011779D02*
X6720458Y-9002255D01*
X6720458Y-9002255D02*
X6749030Y-9002255D01*
X6749030Y-9002255D02*
X6768077Y-9011779D01*
X6844268Y-9211779D02*
X6853792Y-9202255D01*
X6853792Y-9202255D02*
X6872839Y-9173683D01*
X6872839Y-9173683D02*
X6882363Y-9154636D01*
X6882363Y-9154636D02*
X6891887Y-9126064D01*
X6891887Y-9126064D02*
X6901411Y-9078445D01*
X6901411Y-9078445D02*
X6901411Y-9040350D01*
X6901411Y-9040350D02*
X6891887Y-8992731D01*
X6891887Y-8992731D02*
X6882363Y-8964160D01*
X6882363Y-8964160D02*
X6872839Y-8945112D01*
X6872839Y-8945112D02*
X6853792Y-8916541D01*
X6853792Y-8916541D02*
X6844268Y-8907017D01*
D12*
X2064812Y-9318711D02*
X2064812Y-9297498D01*
X2043598Y-9297498D01*
X2043598Y-9318711D01*
X2064812Y-9318711D01*
D11*
X2368077Y-9199588D02*
X2387125Y-9199588D01*
X2387125Y-9199588D02*
X2406172Y-9209112D01*
X2406172Y-9209112D02*
X2415696Y-9218636D01*
X2415696Y-9218636D02*
X2425220Y-9237683D01*
X2425220Y-9237683D02*
X2434744Y-9275779D01*
X2434744Y-9275779D02*
X2434744Y-9323398D01*
X2434744Y-9323398D02*
X2425220Y-9361493D01*
X2425220Y-9361493D02*
X2415696Y-9380541D01*
X2415696Y-9380541D02*
X2406172Y-9390064D01*
X2406172Y-9390064D02*
X2387125Y-9399588D01*
X2387125Y-9399588D02*
X2368077Y-9399588D01*
X2368077Y-9399588D02*
X2349029Y-9390064D01*
X2349029Y-9390064D02*
X2339506Y-9380541D01*
X2339506Y-9380541D02*
X2329982Y-9361493D01*
X2329982Y-9361493D02*
X2320458Y-9323398D01*
X2320458Y-9323398D02*
X2320458Y-9275779D01*
X2320458Y-9275779D02*
X2329982Y-9237683D01*
X2329982Y-9237683D02*
X2339506Y-9218636D01*
X2339506Y-9218636D02*
X2349029Y-9209112D01*
X2349029Y-9209112D02*
X2368077Y-9199588D01*
X2520458Y-9380541D02*
X2529982Y-9390064D01*
X2529982Y-9390064D02*
X2520458Y-9399588D01*
X2520458Y-9399588D02*
X2510934Y-9390064D01*
X2510934Y-9390064D02*
X2520458Y-9380541D01*
X2520458Y-9380541D02*
X2520458Y-9399588D01*
X2596648Y-9199588D02*
X2720458Y-9199588D01*
X2720458Y-9199588D02*
X2653791Y-9275779D01*
X2653791Y-9275779D02*
X2682363Y-9275779D01*
X2682363Y-9275779D02*
X2701410Y-9285302D01*
X2701410Y-9285302D02*
X2710934Y-9294826D01*
X2710934Y-9294826D02*
X2720458Y-9313874D01*
X2720458Y-9313874D02*
X2720458Y-9361493D01*
X2720458Y-9361493D02*
X2710934Y-9380541D01*
X2710934Y-9380541D02*
X2701410Y-9390064D01*
X2701410Y-9390064D02*
X2682363Y-9399588D01*
X2682363Y-9399588D02*
X2625220Y-9399588D01*
X2625220Y-9399588D02*
X2606172Y-9390064D01*
X2606172Y-9390064D02*
X2596648Y-9380541D01*
X2844267Y-9199588D02*
X2863315Y-9199588D01*
X2863315Y-9199588D02*
X2882363Y-9209112D01*
X2882363Y-9209112D02*
X2891886Y-9218636D01*
X2891886Y-9218636D02*
X2901410Y-9237683D01*
X2901410Y-9237683D02*
X2910934Y-9275779D01*
X2910934Y-9275779D02*
X2910934Y-9323398D01*
X2910934Y-9323398D02*
X2901410Y-9361493D01*
X2901410Y-9361493D02*
X2891886Y-9380541D01*
X2891886Y-9380541D02*
X2882363Y-9390064D01*
X2882363Y-9390064D02*
X2863315Y-9399588D01*
X2863315Y-9399588D02*
X2844267Y-9399588D01*
X2844267Y-9399588D02*
X2825220Y-9390064D01*
X2825220Y-9390064D02*
X2815696Y-9380541D01*
X2815696Y-9380541D02*
X2806172Y-9361493D01*
X2806172Y-9361493D02*
X2796648Y-9323398D01*
X2796648Y-9323398D02*
X2796648Y-9275779D01*
X2796648Y-9275779D02*
X2806172Y-9237683D01*
X2806172Y-9237683D02*
X2815696Y-9218636D01*
X2815696Y-9218636D02*
X2825220Y-9209112D01*
X2825220Y-9209112D02*
X2844267Y-9199588D01*
X3034744Y-9199588D02*
X3053791Y-9199588D01*
X3053791Y-9199588D02*
X3072839Y-9209112D01*
X3072839Y-9209112D02*
X3082363Y-9218636D01*
X3082363Y-9218636D02*
X3091886Y-9237683D01*
X3091886Y-9237683D02*
X3101410Y-9275779D01*
X3101410Y-9275779D02*
X3101410Y-9323398D01*
X3101410Y-9323398D02*
X3091886Y-9361493D01*
X3091886Y-9361493D02*
X3082363Y-9380541D01*
X3082363Y-9380541D02*
X3072839Y-9390064D01*
X3072839Y-9390064D02*
X3053791Y-9399588D01*
X3053791Y-9399588D02*
X3034744Y-9399588D01*
X3034744Y-9399588D02*
X3015696Y-9390064D01*
X3015696Y-9390064D02*
X3006172Y-9380541D01*
X3006172Y-9380541D02*
X2996648Y-9361493D01*
X2996648Y-9361493D02*
X2987125Y-9323398D01*
X2987125Y-9323398D02*
X2987125Y-9275779D01*
X2987125Y-9275779D02*
X2996648Y-9237683D01*
X2996648Y-9237683D02*
X3006172Y-9218636D01*
X3006172Y-9218636D02*
X3015696Y-9209112D01*
X3015696Y-9209112D02*
X3034744Y-9199588D01*
X3187125Y-9399588D02*
X3187125Y-9266255D01*
X3187125Y-9285302D02*
X3196648Y-9275779D01*
X3196648Y-9275779D02*
X3215696Y-9266255D01*
X3215696Y-9266255D02*
X3244267Y-9266255D01*
X3244267Y-9266255D02*
X3263315Y-9275779D01*
X3263315Y-9275779D02*
X3272839Y-9294826D01*
X3272839Y-9294826D02*
X3272839Y-9399588D01*
X3272839Y-9294826D02*
X3282363Y-9275779D01*
X3282363Y-9275779D02*
X3301410Y-9266255D01*
X3301410Y-9266255D02*
X3329982Y-9266255D01*
X3329982Y-9266255D02*
X3349029Y-9275779D01*
X3349029Y-9275779D02*
X3358553Y-9294826D01*
X3358553Y-9294826D02*
X3358553Y-9399588D01*
X3453791Y-9399588D02*
X3453791Y-9266255D01*
X3453791Y-9285302D02*
X3463315Y-9275779D01*
X3463315Y-9275779D02*
X3482363Y-9266255D01*
X3482363Y-9266255D02*
X3510934Y-9266255D01*
X3510934Y-9266255D02*
X3529982Y-9275779D01*
X3529982Y-9275779D02*
X3539506Y-9294826D01*
X3539506Y-9294826D02*
X3539506Y-9399588D01*
X3539506Y-9294826D02*
X3549029Y-9275779D01*
X3549029Y-9275779D02*
X3568077Y-9266255D01*
X3568077Y-9266255D02*
X3596648Y-9266255D01*
X3596648Y-9266255D02*
X3615696Y-9275779D01*
X3615696Y-9275779D02*
X3625220Y-9294826D01*
X3625220Y-9294826D02*
X3625220Y-9399588D01*
X4015696Y-9190064D02*
X3844268Y-9447207D01*
X4272839Y-9199588D02*
X4291887Y-9199588D01*
X4291887Y-9199588D02*
X4310934Y-9209112D01*
X4310934Y-9209112D02*
X4320458Y-9218636D01*
X4320458Y-9218636D02*
X4329982Y-9237683D01*
X4329982Y-9237683D02*
X4339506Y-9275779D01*
X4339506Y-9275779D02*
X4339506Y-9323398D01*
X4339506Y-9323398D02*
X4329982Y-9361493D01*
X4329982Y-9361493D02*
X4320458Y-9380541D01*
X4320458Y-9380541D02*
X4310934Y-9390064D01*
X4310934Y-9390064D02*
X4291887Y-9399588D01*
X4291887Y-9399588D02*
X4272839Y-9399588D01*
X4272839Y-9399588D02*
X4253791Y-9390064D01*
X4253791Y-9390064D02*
X4244268Y-9380541D01*
X4244268Y-9380541D02*
X4234744Y-9361493D01*
X4234744Y-9361493D02*
X4225220Y-9323398D01*
X4225220Y-9323398D02*
X4225220Y-9275779D01*
X4225220Y-9275779D02*
X4234744Y-9237683D01*
X4234744Y-9237683D02*
X4244268Y-9218636D01*
X4244268Y-9218636D02*
X4253791Y-9209112D01*
X4253791Y-9209112D02*
X4272839Y-9199588D01*
X4425220Y-9380541D02*
X4434744Y-9390064D01*
X4434744Y-9390064D02*
X4425220Y-9399588D01*
X4425220Y-9399588D02*
X4415696Y-9390064D01*
X4415696Y-9390064D02*
X4425220Y-9380541D01*
X4425220Y-9380541D02*
X4425220Y-9399588D01*
X4558553Y-9199588D02*
X4577601Y-9199588D01*
X4577601Y-9199588D02*
X4596649Y-9209112D01*
X4596649Y-9209112D02*
X4606172Y-9218636D01*
X4606172Y-9218636D02*
X4615696Y-9237683D01*
X4615696Y-9237683D02*
X4625220Y-9275779D01*
X4625220Y-9275779D02*
X4625220Y-9323398D01*
X4625220Y-9323398D02*
X4615696Y-9361493D01*
X4615696Y-9361493D02*
X4606172Y-9380541D01*
X4606172Y-9380541D02*
X4596649Y-9390064D01*
X4596649Y-9390064D02*
X4577601Y-9399588D01*
X4577601Y-9399588D02*
X4558553Y-9399588D01*
X4558553Y-9399588D02*
X4539506Y-9390064D01*
X4539506Y-9390064D02*
X4529982Y-9380541D01*
X4529982Y-9380541D02*
X4520458Y-9361493D01*
X4520458Y-9361493D02*
X4510934Y-9323398D01*
X4510934Y-9323398D02*
X4510934Y-9275779D01*
X4510934Y-9275779D02*
X4520458Y-9237683D01*
X4520458Y-9237683D02*
X4529982Y-9218636D01*
X4529982Y-9218636D02*
X4539506Y-9209112D01*
X4539506Y-9209112D02*
X4558553Y-9199588D01*
X4815696Y-9399588D02*
X4701411Y-9399588D01*
X4758553Y-9399588D02*
X4758553Y-9199588D01*
X4758553Y-9199588D02*
X4739506Y-9228160D01*
X4739506Y-9228160D02*
X4720458Y-9247207D01*
X4720458Y-9247207D02*
X4701411Y-9256731D01*
X5006172Y-9399588D02*
X4891887Y-9399588D01*
X4949030Y-9399588D02*
X4949030Y-9199588D01*
X4949030Y-9199588D02*
X4929982Y-9228160D01*
X4929982Y-9228160D02*
X4910934Y-9247207D01*
X4910934Y-9247207D02*
X4891887Y-9256731D01*
X5120458Y-9285302D02*
X5101411Y-9275779D01*
X5101411Y-9275779D02*
X5091887Y-9266255D01*
X5091887Y-9266255D02*
X5082363Y-9247207D01*
X5082363Y-9247207D02*
X5082363Y-9237683D01*
X5082363Y-9237683D02*
X5091887Y-9218636D01*
X5091887Y-9218636D02*
X5101411Y-9209112D01*
X5101411Y-9209112D02*
X5120458Y-9199588D01*
X5120458Y-9199588D02*
X5158553Y-9199588D01*
X5158553Y-9199588D02*
X5177601Y-9209112D01*
X5177601Y-9209112D02*
X5187125Y-9218636D01*
X5187125Y-9218636D02*
X5196649Y-9237683D01*
X5196649Y-9237683D02*
X5196649Y-9247207D01*
X5196649Y-9247207D02*
X5187125Y-9266255D01*
X5187125Y-9266255D02*
X5177601Y-9275779D01*
X5177601Y-9275779D02*
X5158553Y-9285302D01*
X5158553Y-9285302D02*
X5120458Y-9285302D01*
X5120458Y-9285302D02*
X5101411Y-9294826D01*
X5101411Y-9294826D02*
X5091887Y-9304350D01*
X5091887Y-9304350D02*
X5082363Y-9323398D01*
X5082363Y-9323398D02*
X5082363Y-9361493D01*
X5082363Y-9361493D02*
X5091887Y-9380541D01*
X5091887Y-9380541D02*
X5101411Y-9390064D01*
X5101411Y-9390064D02*
X5120458Y-9399588D01*
X5120458Y-9399588D02*
X5158553Y-9399588D01*
X5158553Y-9399588D02*
X5177601Y-9390064D01*
X5177601Y-9390064D02*
X5187125Y-9380541D01*
X5187125Y-9380541D02*
X5196649Y-9361493D01*
X5196649Y-9361493D02*
X5196649Y-9323398D01*
X5196649Y-9323398D02*
X5187125Y-9304350D01*
X5187125Y-9304350D02*
X5177601Y-9294826D01*
X5177601Y-9294826D02*
X5158553Y-9285302D01*
X5272839Y-9199588D02*
X5272839Y-9237683D01*
X5349030Y-9199588D02*
X5349030Y-9237683D01*
X5644268Y-9475779D02*
X5634744Y-9466255D01*
X5634744Y-9466255D02*
X5615696Y-9437683D01*
X5615696Y-9437683D02*
X5606172Y-9418636D01*
X5606172Y-9418636D02*
X5596649Y-9390064D01*
X5596649Y-9390064D02*
X5587125Y-9342445D01*
X5587125Y-9342445D02*
X5587125Y-9304350D01*
X5587125Y-9304350D02*
X5596649Y-9256731D01*
X5596649Y-9256731D02*
X5606172Y-9228160D01*
X5606172Y-9228160D02*
X5615696Y-9209112D01*
X5615696Y-9209112D02*
X5634744Y-9180541D01*
X5634744Y-9180541D02*
X5644268Y-9171017D01*
X5710934Y-9218636D02*
X5720458Y-9209112D01*
X5720458Y-9209112D02*
X5739506Y-9199588D01*
X5739506Y-9199588D02*
X5787125Y-9199588D01*
X5787125Y-9199588D02*
X5806172Y-9209112D01*
X5806172Y-9209112D02*
X5815696Y-9218636D01*
X5815696Y-9218636D02*
X5825220Y-9237683D01*
X5825220Y-9237683D02*
X5825220Y-9256731D01*
X5825220Y-9256731D02*
X5815696Y-9285302D01*
X5815696Y-9285302D02*
X5701411Y-9399588D01*
X5701411Y-9399588D02*
X5825220Y-9399588D01*
X5901411Y-9218636D02*
X5910934Y-9209112D01*
X5910934Y-9209112D02*
X5929982Y-9199588D01*
X5929982Y-9199588D02*
X5977601Y-9199588D01*
X5977601Y-9199588D02*
X5996649Y-9209112D01*
X5996649Y-9209112D02*
X6006172Y-9218636D01*
X6006172Y-9218636D02*
X6015696Y-9237683D01*
X6015696Y-9237683D02*
X6015696Y-9256731D01*
X6015696Y-9256731D02*
X6006172Y-9285302D01*
X6006172Y-9285302D02*
X5891887Y-9399588D01*
X5891887Y-9399588D02*
X6015696Y-9399588D01*
X6187125Y-9266255D02*
X6187125Y-9399588D01*
X6139506Y-9190064D02*
X6091887Y-9332922D01*
X6091887Y-9332922D02*
X6215696Y-9332922D01*
X6444268Y-9399588D02*
X6444268Y-9199588D01*
X6529982Y-9399588D02*
X6529982Y-9294826D01*
X6529982Y-9294826D02*
X6520458Y-9275779D01*
X6520458Y-9275779D02*
X6501411Y-9266255D01*
X6501411Y-9266255D02*
X6472839Y-9266255D01*
X6472839Y-9266255D02*
X6453792Y-9275779D01*
X6453792Y-9275779D02*
X6444268Y-9285302D01*
X6653792Y-9399588D02*
X6634744Y-9390064D01*
X6634744Y-9390064D02*
X6625220Y-9380541D01*
X6625220Y-9380541D02*
X6615696Y-9361493D01*
X6615696Y-9361493D02*
X6615696Y-9304350D01*
X6615696Y-9304350D02*
X6625220Y-9285302D01*
X6625220Y-9285302D02*
X6634744Y-9275779D01*
X6634744Y-9275779D02*
X6653792Y-9266255D01*
X6653792Y-9266255D02*
X6682363Y-9266255D01*
X6682363Y-9266255D02*
X6701411Y-9275779D01*
X6701411Y-9275779D02*
X6710934Y-9285302D01*
X6710934Y-9285302D02*
X6720458Y-9304350D01*
X6720458Y-9304350D02*
X6720458Y-9361493D01*
X6720458Y-9361493D02*
X6710934Y-9380541D01*
X6710934Y-9380541D02*
X6701411Y-9390064D01*
X6701411Y-9390064D02*
X6682363Y-9399588D01*
X6682363Y-9399588D02*
X6653792Y-9399588D01*
X6834744Y-9399588D02*
X6815696Y-9390064D01*
X6815696Y-9390064D02*
X6806173Y-9371017D01*
X6806173Y-9371017D02*
X6806173Y-9199588D01*
X6987125Y-9390064D02*
X6968077Y-9399588D01*
X6968077Y-9399588D02*
X6929982Y-9399588D01*
X6929982Y-9399588D02*
X6910934Y-9390064D01*
X6910934Y-9390064D02*
X6901411Y-9371017D01*
X6901411Y-9371017D02*
X6901411Y-9294826D01*
X6901411Y-9294826D02*
X6910934Y-9275779D01*
X6910934Y-9275779D02*
X6929982Y-9266255D01*
X6929982Y-9266255D02*
X6968077Y-9266255D01*
X6968077Y-9266255D02*
X6987125Y-9275779D01*
X6987125Y-9275779D02*
X6996649Y-9294826D01*
X6996649Y-9294826D02*
X6996649Y-9313874D01*
X6996649Y-9313874D02*
X6901411Y-9332922D01*
X7072839Y-9390064D02*
X7091887Y-9399588D01*
X7091887Y-9399588D02*
X7129982Y-9399588D01*
X7129982Y-9399588D02*
X7149030Y-9390064D01*
X7149030Y-9390064D02*
X7158554Y-9371017D01*
X7158554Y-9371017D02*
X7158554Y-9361493D01*
X7158554Y-9361493D02*
X7149030Y-9342445D01*
X7149030Y-9342445D02*
X7129982Y-9332922D01*
X7129982Y-9332922D02*
X7101411Y-9332922D01*
X7101411Y-9332922D02*
X7082363Y-9323398D01*
X7082363Y-9323398D02*
X7072839Y-9304350D01*
X7072839Y-9304350D02*
X7072839Y-9294826D01*
X7072839Y-9294826D02*
X7082363Y-9275779D01*
X7082363Y-9275779D02*
X7101411Y-9266255D01*
X7101411Y-9266255D02*
X7129982Y-9266255D01*
X7129982Y-9266255D02*
X7149030Y-9275779D01*
X7225220Y-9475779D02*
X7234744Y-9466255D01*
X7234744Y-9466255D02*
X7253792Y-9437683D01*
X7253792Y-9437683D02*
X7263315Y-9418636D01*
X7263315Y-9418636D02*
X7272839Y-9390064D01*
X7272839Y-9390064D02*
X7282363Y-9342445D01*
X7282363Y-9342445D02*
X7282363Y-9304350D01*
X7282363Y-9304350D02*
X7272839Y-9256731D01*
X7272839Y-9256731D02*
X7263315Y-9228160D01*
X7263315Y-9228160D02*
X7253792Y-9209112D01*
X7253792Y-9209112D02*
X7234744Y-9180541D01*
X7234744Y-9180541D02*
X7225220Y-9171017D01*
D12*
X2049205Y-9592104D02*
X2069205Y-9572104D01*
X2049205Y-9552104D01*
X2029205Y-9572104D01*
X2049205Y-9592104D01*
D11*
X2368077Y-9463588D02*
X2387125Y-9463588D01*
X2387125Y-9463588D02*
X2406172Y-9473112D01*
X2406172Y-9473112D02*
X2415696Y-9482636D01*
X2415696Y-9482636D02*
X2425220Y-9501683D01*
X2425220Y-9501683D02*
X2434744Y-9539779D01*
X2434744Y-9539779D02*
X2434744Y-9587398D01*
X2434744Y-9587398D02*
X2425220Y-9625493D01*
X2425220Y-9625493D02*
X2415696Y-9644541D01*
X2415696Y-9644541D02*
X2406172Y-9654064D01*
X2406172Y-9654064D02*
X2387125Y-9663588D01*
X2387125Y-9663588D02*
X2368077Y-9663588D01*
X2368077Y-9663588D02*
X2349029Y-9654064D01*
X2349029Y-9654064D02*
X2339506Y-9644541D01*
X2339506Y-9644541D02*
X2329982Y-9625493D01*
X2329982Y-9625493D02*
X2320458Y-9587398D01*
X2320458Y-9587398D02*
X2320458Y-9539779D01*
X2320458Y-9539779D02*
X2329982Y-9501683D01*
X2329982Y-9501683D02*
X2339506Y-9482636D01*
X2339506Y-9482636D02*
X2349029Y-9473112D01*
X2349029Y-9473112D02*
X2368077Y-9463588D01*
X2520458Y-9644541D02*
X2529982Y-9654064D01*
X2529982Y-9654064D02*
X2520458Y-9663588D01*
X2520458Y-9663588D02*
X2510934Y-9654064D01*
X2510934Y-9654064D02*
X2520458Y-9644541D01*
X2520458Y-9644541D02*
X2520458Y-9663588D01*
X2701410Y-9530255D02*
X2701410Y-9663588D01*
X2653791Y-9454064D02*
X2606172Y-9596922D01*
X2606172Y-9596922D02*
X2729982Y-9596922D01*
X2844267Y-9463588D02*
X2863315Y-9463588D01*
X2863315Y-9463588D02*
X2882363Y-9473112D01*
X2882363Y-9473112D02*
X2891886Y-9482636D01*
X2891886Y-9482636D02*
X2901410Y-9501683D01*
X2901410Y-9501683D02*
X2910934Y-9539779D01*
X2910934Y-9539779D02*
X2910934Y-9587398D01*
X2910934Y-9587398D02*
X2901410Y-9625493D01*
X2901410Y-9625493D02*
X2891886Y-9644541D01*
X2891886Y-9644541D02*
X2882363Y-9654064D01*
X2882363Y-9654064D02*
X2863315Y-9663588D01*
X2863315Y-9663588D02*
X2844267Y-9663588D01*
X2844267Y-9663588D02*
X2825220Y-9654064D01*
X2825220Y-9654064D02*
X2815696Y-9644541D01*
X2815696Y-9644541D02*
X2806172Y-9625493D01*
X2806172Y-9625493D02*
X2796648Y-9587398D01*
X2796648Y-9587398D02*
X2796648Y-9539779D01*
X2796648Y-9539779D02*
X2806172Y-9501683D01*
X2806172Y-9501683D02*
X2815696Y-9482636D01*
X2815696Y-9482636D02*
X2825220Y-9473112D01*
X2825220Y-9473112D02*
X2844267Y-9463588D01*
X3034744Y-9463588D02*
X3053791Y-9463588D01*
X3053791Y-9463588D02*
X3072839Y-9473112D01*
X3072839Y-9473112D02*
X3082363Y-9482636D01*
X3082363Y-9482636D02*
X3091886Y-9501683D01*
X3091886Y-9501683D02*
X3101410Y-9539779D01*
X3101410Y-9539779D02*
X3101410Y-9587398D01*
X3101410Y-9587398D02*
X3091886Y-9625493D01*
X3091886Y-9625493D02*
X3082363Y-9644541D01*
X3082363Y-9644541D02*
X3072839Y-9654064D01*
X3072839Y-9654064D02*
X3053791Y-9663588D01*
X3053791Y-9663588D02*
X3034744Y-9663588D01*
X3034744Y-9663588D02*
X3015696Y-9654064D01*
X3015696Y-9654064D02*
X3006172Y-9644541D01*
X3006172Y-9644541D02*
X2996648Y-9625493D01*
X2996648Y-9625493D02*
X2987125Y-9587398D01*
X2987125Y-9587398D02*
X2987125Y-9539779D01*
X2987125Y-9539779D02*
X2996648Y-9501683D01*
X2996648Y-9501683D02*
X3006172Y-9482636D01*
X3006172Y-9482636D02*
X3015696Y-9473112D01*
X3015696Y-9473112D02*
X3034744Y-9463588D01*
X3187125Y-9663588D02*
X3187125Y-9530255D01*
X3187125Y-9549302D02*
X3196648Y-9539779D01*
X3196648Y-9539779D02*
X3215696Y-9530255D01*
X3215696Y-9530255D02*
X3244267Y-9530255D01*
X3244267Y-9530255D02*
X3263315Y-9539779D01*
X3263315Y-9539779D02*
X3272839Y-9558826D01*
X3272839Y-9558826D02*
X3272839Y-9663588D01*
X3272839Y-9558826D02*
X3282363Y-9539779D01*
X3282363Y-9539779D02*
X3301410Y-9530255D01*
X3301410Y-9530255D02*
X3329982Y-9530255D01*
X3329982Y-9530255D02*
X3349029Y-9539779D01*
X3349029Y-9539779D02*
X3358553Y-9558826D01*
X3358553Y-9558826D02*
X3358553Y-9663588D01*
X3453791Y-9663588D02*
X3453791Y-9530255D01*
X3453791Y-9549302D02*
X3463315Y-9539779D01*
X3463315Y-9539779D02*
X3482363Y-9530255D01*
X3482363Y-9530255D02*
X3510934Y-9530255D01*
X3510934Y-9530255D02*
X3529982Y-9539779D01*
X3529982Y-9539779D02*
X3539506Y-9558826D01*
X3539506Y-9558826D02*
X3539506Y-9663588D01*
X3539506Y-9558826D02*
X3549029Y-9539779D01*
X3549029Y-9539779D02*
X3568077Y-9530255D01*
X3568077Y-9530255D02*
X3596648Y-9530255D01*
X3596648Y-9530255D02*
X3615696Y-9539779D01*
X3615696Y-9539779D02*
X3625220Y-9558826D01*
X3625220Y-9558826D02*
X3625220Y-9663588D01*
X4015696Y-9454064D02*
X3844268Y-9711207D01*
X4272839Y-9463588D02*
X4291887Y-9463588D01*
X4291887Y-9463588D02*
X4310934Y-9473112D01*
X4310934Y-9473112D02*
X4320458Y-9482636D01*
X4320458Y-9482636D02*
X4329982Y-9501683D01*
X4329982Y-9501683D02*
X4339506Y-9539779D01*
X4339506Y-9539779D02*
X4339506Y-9587398D01*
X4339506Y-9587398D02*
X4329982Y-9625493D01*
X4329982Y-9625493D02*
X4320458Y-9644541D01*
X4320458Y-9644541D02*
X4310934Y-9654064D01*
X4310934Y-9654064D02*
X4291887Y-9663588D01*
X4291887Y-9663588D02*
X4272839Y-9663588D01*
X4272839Y-9663588D02*
X4253791Y-9654064D01*
X4253791Y-9654064D02*
X4244268Y-9644541D01*
X4244268Y-9644541D02*
X4234744Y-9625493D01*
X4234744Y-9625493D02*
X4225220Y-9587398D01*
X4225220Y-9587398D02*
X4225220Y-9539779D01*
X4225220Y-9539779D02*
X4234744Y-9501683D01*
X4234744Y-9501683D02*
X4244268Y-9482636D01*
X4244268Y-9482636D02*
X4253791Y-9473112D01*
X4253791Y-9473112D02*
X4272839Y-9463588D01*
X4425220Y-9644541D02*
X4434744Y-9654064D01*
X4434744Y-9654064D02*
X4425220Y-9663588D01*
X4425220Y-9663588D02*
X4415696Y-9654064D01*
X4415696Y-9654064D02*
X4425220Y-9644541D01*
X4425220Y-9644541D02*
X4425220Y-9663588D01*
X4558553Y-9463588D02*
X4577601Y-9463588D01*
X4577601Y-9463588D02*
X4596649Y-9473112D01*
X4596649Y-9473112D02*
X4606172Y-9482636D01*
X4606172Y-9482636D02*
X4615696Y-9501683D01*
X4615696Y-9501683D02*
X4625220Y-9539779D01*
X4625220Y-9539779D02*
X4625220Y-9587398D01*
X4625220Y-9587398D02*
X4615696Y-9625493D01*
X4615696Y-9625493D02*
X4606172Y-9644541D01*
X4606172Y-9644541D02*
X4596649Y-9654064D01*
X4596649Y-9654064D02*
X4577601Y-9663588D01*
X4577601Y-9663588D02*
X4558553Y-9663588D01*
X4558553Y-9663588D02*
X4539506Y-9654064D01*
X4539506Y-9654064D02*
X4529982Y-9644541D01*
X4529982Y-9644541D02*
X4520458Y-9625493D01*
X4520458Y-9625493D02*
X4510934Y-9587398D01*
X4510934Y-9587398D02*
X4510934Y-9539779D01*
X4510934Y-9539779D02*
X4520458Y-9501683D01*
X4520458Y-9501683D02*
X4529982Y-9482636D01*
X4529982Y-9482636D02*
X4539506Y-9473112D01*
X4539506Y-9473112D02*
X4558553Y-9463588D01*
X4815696Y-9663588D02*
X4701411Y-9663588D01*
X4758553Y-9663588D02*
X4758553Y-9463588D01*
X4758553Y-9463588D02*
X4739506Y-9492160D01*
X4739506Y-9492160D02*
X4720458Y-9511207D01*
X4720458Y-9511207D02*
X4701411Y-9520731D01*
X4996649Y-9463588D02*
X4901411Y-9463588D01*
X4901411Y-9463588D02*
X4891887Y-9558826D01*
X4891887Y-9558826D02*
X4901411Y-9549302D01*
X4901411Y-9549302D02*
X4920458Y-9539779D01*
X4920458Y-9539779D02*
X4968077Y-9539779D01*
X4968077Y-9539779D02*
X4987125Y-9549302D01*
X4987125Y-9549302D02*
X4996649Y-9558826D01*
X4996649Y-9558826D02*
X5006172Y-9577874D01*
X5006172Y-9577874D02*
X5006172Y-9625493D01*
X5006172Y-9625493D02*
X4996649Y-9644541D01*
X4996649Y-9644541D02*
X4987125Y-9654064D01*
X4987125Y-9654064D02*
X4968077Y-9663588D01*
X4968077Y-9663588D02*
X4920458Y-9663588D01*
X4920458Y-9663588D02*
X4901411Y-9654064D01*
X4901411Y-9654064D02*
X4891887Y-9644541D01*
X5072839Y-9463588D02*
X5206172Y-9463588D01*
X5206172Y-9463588D02*
X5120458Y-9663588D01*
X5272839Y-9463588D02*
X5272839Y-9501683D01*
X5349030Y-9463588D02*
X5349030Y-9501683D01*
X5644268Y-9739779D02*
X5634744Y-9730255D01*
X5634744Y-9730255D02*
X5615696Y-9701683D01*
X5615696Y-9701683D02*
X5606172Y-9682636D01*
X5606172Y-9682636D02*
X5596649Y-9654064D01*
X5596649Y-9654064D02*
X5587125Y-9606445D01*
X5587125Y-9606445D02*
X5587125Y-9568350D01*
X5587125Y-9568350D02*
X5596649Y-9520731D01*
X5596649Y-9520731D02*
X5606172Y-9492160D01*
X5606172Y-9492160D02*
X5615696Y-9473112D01*
X5615696Y-9473112D02*
X5634744Y-9444541D01*
X5634744Y-9444541D02*
X5644268Y-9435017D01*
X5825220Y-9663588D02*
X5710934Y-9663588D01*
X5768077Y-9663588D02*
X5768077Y-9463588D01*
X5768077Y-9463588D02*
X5749030Y-9492160D01*
X5749030Y-9492160D02*
X5729982Y-9511207D01*
X5729982Y-9511207D02*
X5710934Y-9520731D01*
X5996649Y-9463588D02*
X5958553Y-9463588D01*
X5958553Y-9463588D02*
X5939506Y-9473112D01*
X5939506Y-9473112D02*
X5929982Y-9482636D01*
X5929982Y-9482636D02*
X5910934Y-9511207D01*
X5910934Y-9511207D02*
X5901411Y-9549302D01*
X5901411Y-9549302D02*
X5901411Y-9625493D01*
X5901411Y-9625493D02*
X5910934Y-9644541D01*
X5910934Y-9644541D02*
X5920458Y-9654064D01*
X5920458Y-9654064D02*
X5939506Y-9663588D01*
X5939506Y-9663588D02*
X5977601Y-9663588D01*
X5977601Y-9663588D02*
X5996649Y-9654064D01*
X5996649Y-9654064D02*
X6006172Y-9644541D01*
X6006172Y-9644541D02*
X6015696Y-9625493D01*
X6015696Y-9625493D02*
X6015696Y-9577874D01*
X6015696Y-9577874D02*
X6006172Y-9558826D01*
X6006172Y-9558826D02*
X5996649Y-9549302D01*
X5996649Y-9549302D02*
X5977601Y-9539779D01*
X5977601Y-9539779D02*
X5939506Y-9539779D01*
X5939506Y-9539779D02*
X5920458Y-9549302D01*
X5920458Y-9549302D02*
X5910934Y-9558826D01*
X5910934Y-9558826D02*
X5901411Y-9577874D01*
X6253792Y-9663588D02*
X6253792Y-9463588D01*
X6339506Y-9663588D02*
X6339506Y-9558826D01*
X6339506Y-9558826D02*
X6329982Y-9539779D01*
X6329982Y-9539779D02*
X6310934Y-9530255D01*
X6310934Y-9530255D02*
X6282363Y-9530255D01*
X6282363Y-9530255D02*
X6263315Y-9539779D01*
X6263315Y-9539779D02*
X6253792Y-9549302D01*
X6463315Y-9663588D02*
X6444268Y-9654064D01*
X6444268Y-9654064D02*
X6434744Y-9644541D01*
X6434744Y-9644541D02*
X6425220Y-9625493D01*
X6425220Y-9625493D02*
X6425220Y-9568350D01*
X6425220Y-9568350D02*
X6434744Y-9549302D01*
X6434744Y-9549302D02*
X6444268Y-9539779D01*
X6444268Y-9539779D02*
X6463315Y-9530255D01*
X6463315Y-9530255D02*
X6491887Y-9530255D01*
X6491887Y-9530255D02*
X6510934Y-9539779D01*
X6510934Y-9539779D02*
X6520458Y-9549302D01*
X6520458Y-9549302D02*
X6529982Y-9568350D01*
X6529982Y-9568350D02*
X6529982Y-9625493D01*
X6529982Y-9625493D02*
X6520458Y-9644541D01*
X6520458Y-9644541D02*
X6510934Y-9654064D01*
X6510934Y-9654064D02*
X6491887Y-9663588D01*
X6491887Y-9663588D02*
X6463315Y-9663588D01*
X6644268Y-9663588D02*
X6625220Y-9654064D01*
X6625220Y-9654064D02*
X6615696Y-9635017D01*
X6615696Y-9635017D02*
X6615696Y-9463588D01*
X6796649Y-9654064D02*
X6777601Y-9663588D01*
X6777601Y-9663588D02*
X6739506Y-9663588D01*
X6739506Y-9663588D02*
X6720458Y-9654064D01*
X6720458Y-9654064D02*
X6710934Y-9635017D01*
X6710934Y-9635017D02*
X6710934Y-9558826D01*
X6710934Y-9558826D02*
X6720458Y-9539779D01*
X6720458Y-9539779D02*
X6739506Y-9530255D01*
X6739506Y-9530255D02*
X6777601Y-9530255D01*
X6777601Y-9530255D02*
X6796649Y-9539779D01*
X6796649Y-9539779D02*
X6806173Y-9558826D01*
X6806173Y-9558826D02*
X6806173Y-9577874D01*
X6806173Y-9577874D02*
X6710934Y-9596922D01*
X6882363Y-9654064D02*
X6901411Y-9663588D01*
X6901411Y-9663588D02*
X6939506Y-9663588D01*
X6939506Y-9663588D02*
X6958554Y-9654064D01*
X6958554Y-9654064D02*
X6968077Y-9635017D01*
X6968077Y-9635017D02*
X6968077Y-9625493D01*
X6968077Y-9625493D02*
X6958554Y-9606445D01*
X6958554Y-9606445D02*
X6939506Y-9596922D01*
X6939506Y-9596922D02*
X6910934Y-9596922D01*
X6910934Y-9596922D02*
X6891887Y-9587398D01*
X6891887Y-9587398D02*
X6882363Y-9568350D01*
X6882363Y-9568350D02*
X6882363Y-9558826D01*
X6882363Y-9558826D02*
X6891887Y-9539779D01*
X6891887Y-9539779D02*
X6910934Y-9530255D01*
X6910934Y-9530255D02*
X6939506Y-9530255D01*
X6939506Y-9530255D02*
X6958554Y-9539779D01*
X7034744Y-9739779D02*
X7044268Y-9730255D01*
X7044268Y-9730255D02*
X7063315Y-9701683D01*
X7063315Y-9701683D02*
X7072839Y-9682636D01*
X7072839Y-9682636D02*
X7082363Y-9654064D01*
X7082363Y-9654064D02*
X7091887Y-9606445D01*
X7091887Y-9606445D02*
X7091887Y-9568350D01*
X7091887Y-9568350D02*
X7082363Y-9520731D01*
X7082363Y-9520731D02*
X7072839Y-9492160D01*
X7072839Y-9492160D02*
X7063315Y-9473112D01*
X7063315Y-9473112D02*
X7044268Y-9444541D01*
X7044268Y-9444541D02*
X7034744Y-9435017D01*
D12*
X2009205Y-9806104D02*
X2069205Y-9866104D01*
X2069205Y-9806104D02*
X2009205Y-9866104D01*
X2069205Y-9836104D02*
G75*
G02*
X2009205Y-9836104I-30000J0D01*
G01*
X2009205Y-9836104D02*
G75*
G02*
X2069205Y-9836104I30000J0D01*
G01*
D11*
X2368077Y-9727588D02*
X2387125Y-9727588D01*
X2387125Y-9727588D02*
X2406172Y-9737112D01*
X2406172Y-9737112D02*
X2415696Y-9746636D01*
X2415696Y-9746636D02*
X2425220Y-9765683D01*
X2425220Y-9765683D02*
X2434744Y-9803779D01*
X2434744Y-9803779D02*
X2434744Y-9851398D01*
X2434744Y-9851398D02*
X2425220Y-9889493D01*
X2425220Y-9889493D02*
X2415696Y-9908541D01*
X2415696Y-9908541D02*
X2406172Y-9918064D01*
X2406172Y-9918064D02*
X2387125Y-9927588D01*
X2387125Y-9927588D02*
X2368077Y-9927588D01*
X2368077Y-9927588D02*
X2349029Y-9918064D01*
X2349029Y-9918064D02*
X2339506Y-9908541D01*
X2339506Y-9908541D02*
X2329982Y-9889493D01*
X2329982Y-9889493D02*
X2320458Y-9851398D01*
X2320458Y-9851398D02*
X2320458Y-9803779D01*
X2320458Y-9803779D02*
X2329982Y-9765683D01*
X2329982Y-9765683D02*
X2339506Y-9746636D01*
X2339506Y-9746636D02*
X2349029Y-9737112D01*
X2349029Y-9737112D02*
X2368077Y-9727588D01*
X2520458Y-9908541D02*
X2529982Y-9918064D01*
X2529982Y-9918064D02*
X2520458Y-9927588D01*
X2520458Y-9927588D02*
X2510934Y-9918064D01*
X2510934Y-9918064D02*
X2520458Y-9908541D01*
X2520458Y-9908541D02*
X2520458Y-9927588D01*
X2701410Y-9727588D02*
X2663315Y-9727588D01*
X2663315Y-9727588D02*
X2644267Y-9737112D01*
X2644267Y-9737112D02*
X2634744Y-9746636D01*
X2634744Y-9746636D02*
X2615696Y-9775207D01*
X2615696Y-9775207D02*
X2606172Y-9813302D01*
X2606172Y-9813302D02*
X2606172Y-9889493D01*
X2606172Y-9889493D02*
X2615696Y-9908541D01*
X2615696Y-9908541D02*
X2625220Y-9918064D01*
X2625220Y-9918064D02*
X2644267Y-9927588D01*
X2644267Y-9927588D02*
X2682363Y-9927588D01*
X2682363Y-9927588D02*
X2701410Y-9918064D01*
X2701410Y-9918064D02*
X2710934Y-9908541D01*
X2710934Y-9908541D02*
X2720458Y-9889493D01*
X2720458Y-9889493D02*
X2720458Y-9841874D01*
X2720458Y-9841874D02*
X2710934Y-9822826D01*
X2710934Y-9822826D02*
X2701410Y-9813302D01*
X2701410Y-9813302D02*
X2682363Y-9803779D01*
X2682363Y-9803779D02*
X2644267Y-9803779D01*
X2644267Y-9803779D02*
X2625220Y-9813302D01*
X2625220Y-9813302D02*
X2615696Y-9822826D01*
X2615696Y-9822826D02*
X2606172Y-9841874D01*
X2844267Y-9727588D02*
X2863315Y-9727588D01*
X2863315Y-9727588D02*
X2882363Y-9737112D01*
X2882363Y-9737112D02*
X2891886Y-9746636D01*
X2891886Y-9746636D02*
X2901410Y-9765683D01*
X2901410Y-9765683D02*
X2910934Y-9803779D01*
X2910934Y-9803779D02*
X2910934Y-9851398D01*
X2910934Y-9851398D02*
X2901410Y-9889493D01*
X2901410Y-9889493D02*
X2891886Y-9908541D01*
X2891886Y-9908541D02*
X2882363Y-9918064D01*
X2882363Y-9918064D02*
X2863315Y-9927588D01*
X2863315Y-9927588D02*
X2844267Y-9927588D01*
X2844267Y-9927588D02*
X2825220Y-9918064D01*
X2825220Y-9918064D02*
X2815696Y-9908541D01*
X2815696Y-9908541D02*
X2806172Y-9889493D01*
X2806172Y-9889493D02*
X2796648Y-9851398D01*
X2796648Y-9851398D02*
X2796648Y-9803779D01*
X2796648Y-9803779D02*
X2806172Y-9765683D01*
X2806172Y-9765683D02*
X2815696Y-9746636D01*
X2815696Y-9746636D02*
X2825220Y-9737112D01*
X2825220Y-9737112D02*
X2844267Y-9727588D01*
X3034744Y-9727588D02*
X3053791Y-9727588D01*
X3053791Y-9727588D02*
X3072839Y-9737112D01*
X3072839Y-9737112D02*
X3082363Y-9746636D01*
X3082363Y-9746636D02*
X3091886Y-9765683D01*
X3091886Y-9765683D02*
X3101410Y-9803779D01*
X3101410Y-9803779D02*
X3101410Y-9851398D01*
X3101410Y-9851398D02*
X3091886Y-9889493D01*
X3091886Y-9889493D02*
X3082363Y-9908541D01*
X3082363Y-9908541D02*
X3072839Y-9918064D01*
X3072839Y-9918064D02*
X3053791Y-9927588D01*
X3053791Y-9927588D02*
X3034744Y-9927588D01*
X3034744Y-9927588D02*
X3015696Y-9918064D01*
X3015696Y-9918064D02*
X3006172Y-9908541D01*
X3006172Y-9908541D02*
X2996648Y-9889493D01*
X2996648Y-9889493D02*
X2987125Y-9851398D01*
X2987125Y-9851398D02*
X2987125Y-9803779D01*
X2987125Y-9803779D02*
X2996648Y-9765683D01*
X2996648Y-9765683D02*
X3006172Y-9746636D01*
X3006172Y-9746636D02*
X3015696Y-9737112D01*
X3015696Y-9737112D02*
X3034744Y-9727588D01*
X3187125Y-9927588D02*
X3187125Y-9794255D01*
X3187125Y-9813302D02*
X3196648Y-9803779D01*
X3196648Y-9803779D02*
X3215696Y-9794255D01*
X3215696Y-9794255D02*
X3244267Y-9794255D01*
X3244267Y-9794255D02*
X3263315Y-9803779D01*
X3263315Y-9803779D02*
X3272839Y-9822826D01*
X3272839Y-9822826D02*
X3272839Y-9927588D01*
X3272839Y-9822826D02*
X3282363Y-9803779D01*
X3282363Y-9803779D02*
X3301410Y-9794255D01*
X3301410Y-9794255D02*
X3329982Y-9794255D01*
X3329982Y-9794255D02*
X3349029Y-9803779D01*
X3349029Y-9803779D02*
X3358553Y-9822826D01*
X3358553Y-9822826D02*
X3358553Y-9927588D01*
X3453791Y-9927588D02*
X3453791Y-9794255D01*
X3453791Y-9813302D02*
X3463315Y-9803779D01*
X3463315Y-9803779D02*
X3482363Y-9794255D01*
X3482363Y-9794255D02*
X3510934Y-9794255D01*
X3510934Y-9794255D02*
X3529982Y-9803779D01*
X3529982Y-9803779D02*
X3539506Y-9822826D01*
X3539506Y-9822826D02*
X3539506Y-9927588D01*
X3539506Y-9822826D02*
X3549029Y-9803779D01*
X3549029Y-9803779D02*
X3568077Y-9794255D01*
X3568077Y-9794255D02*
X3596648Y-9794255D01*
X3596648Y-9794255D02*
X3615696Y-9803779D01*
X3615696Y-9803779D02*
X3625220Y-9822826D01*
X3625220Y-9822826D02*
X3625220Y-9927588D01*
X4015696Y-9718064D02*
X3844268Y-9975207D01*
X4272839Y-9727588D02*
X4291887Y-9727588D01*
X4291887Y-9727588D02*
X4310934Y-9737112D01*
X4310934Y-9737112D02*
X4320458Y-9746636D01*
X4320458Y-9746636D02*
X4329982Y-9765683D01*
X4329982Y-9765683D02*
X4339506Y-9803779D01*
X4339506Y-9803779D02*
X4339506Y-9851398D01*
X4339506Y-9851398D02*
X4329982Y-9889493D01*
X4329982Y-9889493D02*
X4320458Y-9908541D01*
X4320458Y-9908541D02*
X4310934Y-9918064D01*
X4310934Y-9918064D02*
X4291887Y-9927588D01*
X4291887Y-9927588D02*
X4272839Y-9927588D01*
X4272839Y-9927588D02*
X4253791Y-9918064D01*
X4253791Y-9918064D02*
X4244268Y-9908541D01*
X4244268Y-9908541D02*
X4234744Y-9889493D01*
X4234744Y-9889493D02*
X4225220Y-9851398D01*
X4225220Y-9851398D02*
X4225220Y-9803779D01*
X4225220Y-9803779D02*
X4234744Y-9765683D01*
X4234744Y-9765683D02*
X4244268Y-9746636D01*
X4244268Y-9746636D02*
X4253791Y-9737112D01*
X4253791Y-9737112D02*
X4272839Y-9727588D01*
X4425220Y-9908541D02*
X4434744Y-9918064D01*
X4434744Y-9918064D02*
X4425220Y-9927588D01*
X4425220Y-9927588D02*
X4415696Y-9918064D01*
X4415696Y-9918064D02*
X4425220Y-9908541D01*
X4425220Y-9908541D02*
X4425220Y-9927588D01*
X4558553Y-9727588D02*
X4577601Y-9727588D01*
X4577601Y-9727588D02*
X4596649Y-9737112D01*
X4596649Y-9737112D02*
X4606172Y-9746636D01*
X4606172Y-9746636D02*
X4615696Y-9765683D01*
X4615696Y-9765683D02*
X4625220Y-9803779D01*
X4625220Y-9803779D02*
X4625220Y-9851398D01*
X4625220Y-9851398D02*
X4615696Y-9889493D01*
X4615696Y-9889493D02*
X4606172Y-9908541D01*
X4606172Y-9908541D02*
X4596649Y-9918064D01*
X4596649Y-9918064D02*
X4577601Y-9927588D01*
X4577601Y-9927588D02*
X4558553Y-9927588D01*
X4558553Y-9927588D02*
X4539506Y-9918064D01*
X4539506Y-9918064D02*
X4529982Y-9908541D01*
X4529982Y-9908541D02*
X4520458Y-9889493D01*
X4520458Y-9889493D02*
X4510934Y-9851398D01*
X4510934Y-9851398D02*
X4510934Y-9803779D01*
X4510934Y-9803779D02*
X4520458Y-9765683D01*
X4520458Y-9765683D02*
X4529982Y-9746636D01*
X4529982Y-9746636D02*
X4539506Y-9737112D01*
X4539506Y-9737112D02*
X4558553Y-9727588D01*
X4701411Y-9746636D02*
X4710934Y-9737112D01*
X4710934Y-9737112D02*
X4729982Y-9727588D01*
X4729982Y-9727588D02*
X4777601Y-9727588D01*
X4777601Y-9727588D02*
X4796649Y-9737112D01*
X4796649Y-9737112D02*
X4806172Y-9746636D01*
X4806172Y-9746636D02*
X4815696Y-9765683D01*
X4815696Y-9765683D02*
X4815696Y-9784731D01*
X4815696Y-9784731D02*
X4806172Y-9813302D01*
X4806172Y-9813302D02*
X4691887Y-9927588D01*
X4691887Y-9927588D02*
X4815696Y-9927588D01*
X4882363Y-9727588D02*
X5006172Y-9727588D01*
X5006172Y-9727588D02*
X4939506Y-9803779D01*
X4939506Y-9803779D02*
X4968077Y-9803779D01*
X4968077Y-9803779D02*
X4987125Y-9813302D01*
X4987125Y-9813302D02*
X4996649Y-9822826D01*
X4996649Y-9822826D02*
X5006172Y-9841874D01*
X5006172Y-9841874D02*
X5006172Y-9889493D01*
X5006172Y-9889493D02*
X4996649Y-9908541D01*
X4996649Y-9908541D02*
X4987125Y-9918064D01*
X4987125Y-9918064D02*
X4968077Y-9927588D01*
X4968077Y-9927588D02*
X4910934Y-9927588D01*
X4910934Y-9927588D02*
X4891887Y-9918064D01*
X4891887Y-9918064D02*
X4882363Y-9908541D01*
X5177601Y-9727588D02*
X5139506Y-9727588D01*
X5139506Y-9727588D02*
X5120458Y-9737112D01*
X5120458Y-9737112D02*
X5110934Y-9746636D01*
X5110934Y-9746636D02*
X5091887Y-9775207D01*
X5091887Y-9775207D02*
X5082363Y-9813302D01*
X5082363Y-9813302D02*
X5082363Y-9889493D01*
X5082363Y-9889493D02*
X5091887Y-9908541D01*
X5091887Y-9908541D02*
X5101411Y-9918064D01*
X5101411Y-9918064D02*
X5120458Y-9927588D01*
X5120458Y-9927588D02*
X5158553Y-9927588D01*
X5158553Y-9927588D02*
X5177601Y-9918064D01*
X5177601Y-9918064D02*
X5187125Y-9908541D01*
X5187125Y-9908541D02*
X5196649Y-9889493D01*
X5196649Y-9889493D02*
X5196649Y-9841874D01*
X5196649Y-9841874D02*
X5187125Y-9822826D01*
X5187125Y-9822826D02*
X5177601Y-9813302D01*
X5177601Y-9813302D02*
X5158553Y-9803779D01*
X5158553Y-9803779D02*
X5120458Y-9803779D01*
X5120458Y-9803779D02*
X5101411Y-9813302D01*
X5101411Y-9813302D02*
X5091887Y-9822826D01*
X5091887Y-9822826D02*
X5082363Y-9841874D01*
X5272839Y-9727588D02*
X5272839Y-9765683D01*
X5349030Y-9727588D02*
X5349030Y-9765683D01*
X5644268Y-10003779D02*
X5634744Y-9994255D01*
X5634744Y-9994255D02*
X5615696Y-9965683D01*
X5615696Y-9965683D02*
X5606172Y-9946636D01*
X5606172Y-9946636D02*
X5596649Y-9918064D01*
X5596649Y-9918064D02*
X5587125Y-9870445D01*
X5587125Y-9870445D02*
X5587125Y-9832350D01*
X5587125Y-9832350D02*
X5596649Y-9784731D01*
X5596649Y-9784731D02*
X5606172Y-9756160D01*
X5606172Y-9756160D02*
X5615696Y-9737112D01*
X5615696Y-9737112D02*
X5634744Y-9708541D01*
X5634744Y-9708541D02*
X5644268Y-9699017D01*
X5758553Y-9727588D02*
X5777601Y-9727588D01*
X5777601Y-9727588D02*
X5796649Y-9737112D01*
X5796649Y-9737112D02*
X5806172Y-9746636D01*
X5806172Y-9746636D02*
X5815696Y-9765683D01*
X5815696Y-9765683D02*
X5825220Y-9803779D01*
X5825220Y-9803779D02*
X5825220Y-9851398D01*
X5825220Y-9851398D02*
X5815696Y-9889493D01*
X5815696Y-9889493D02*
X5806172Y-9908541D01*
X5806172Y-9908541D02*
X5796649Y-9918064D01*
X5796649Y-9918064D02*
X5777601Y-9927588D01*
X5777601Y-9927588D02*
X5758553Y-9927588D01*
X5758553Y-9927588D02*
X5739506Y-9918064D01*
X5739506Y-9918064D02*
X5729982Y-9908541D01*
X5729982Y-9908541D02*
X5720458Y-9889493D01*
X5720458Y-9889493D02*
X5710934Y-9851398D01*
X5710934Y-9851398D02*
X5710934Y-9803779D01*
X5710934Y-9803779D02*
X5720458Y-9765683D01*
X5720458Y-9765683D02*
X5729982Y-9746636D01*
X5729982Y-9746636D02*
X5739506Y-9737112D01*
X5739506Y-9737112D02*
X5758553Y-9727588D01*
X6063315Y-9927588D02*
X6063315Y-9727588D01*
X6149030Y-9927588D02*
X6149030Y-9822826D01*
X6149030Y-9822826D02*
X6139506Y-9803779D01*
X6139506Y-9803779D02*
X6120458Y-9794255D01*
X6120458Y-9794255D02*
X6091887Y-9794255D01*
X6091887Y-9794255D02*
X6072839Y-9803779D01*
X6072839Y-9803779D02*
X6063315Y-9813302D01*
X6272839Y-9927588D02*
X6253792Y-9918064D01*
X6253792Y-9918064D02*
X6244268Y-9908541D01*
X6244268Y-9908541D02*
X6234744Y-9889493D01*
X6234744Y-9889493D02*
X6234744Y-9832350D01*
X6234744Y-9832350D02*
X6244268Y-9813302D01*
X6244268Y-9813302D02*
X6253792Y-9803779D01*
X6253792Y-9803779D02*
X6272839Y-9794255D01*
X6272839Y-9794255D02*
X6301411Y-9794255D01*
X6301411Y-9794255D02*
X6320458Y-9803779D01*
X6320458Y-9803779D02*
X6329982Y-9813302D01*
X6329982Y-9813302D02*
X6339506Y-9832350D01*
X6339506Y-9832350D02*
X6339506Y-9889493D01*
X6339506Y-9889493D02*
X6329982Y-9908541D01*
X6329982Y-9908541D02*
X6320458Y-9918064D01*
X6320458Y-9918064D02*
X6301411Y-9927588D01*
X6301411Y-9927588D02*
X6272839Y-9927588D01*
X6453792Y-9927588D02*
X6434744Y-9918064D01*
X6434744Y-9918064D02*
X6425220Y-9899017D01*
X6425220Y-9899017D02*
X6425220Y-9727588D01*
X6606173Y-9918064D02*
X6587125Y-9927588D01*
X6587125Y-9927588D02*
X6549030Y-9927588D01*
X6549030Y-9927588D02*
X6529982Y-9918064D01*
X6529982Y-9918064D02*
X6520458Y-9899017D01*
X6520458Y-9899017D02*
X6520458Y-9822826D01*
X6520458Y-9822826D02*
X6529982Y-9803779D01*
X6529982Y-9803779D02*
X6549030Y-9794255D01*
X6549030Y-9794255D02*
X6587125Y-9794255D01*
X6587125Y-9794255D02*
X6606173Y-9803779D01*
X6606173Y-9803779D02*
X6615696Y-9822826D01*
X6615696Y-9822826D02*
X6615696Y-9841874D01*
X6615696Y-9841874D02*
X6520458Y-9860922D01*
X6691887Y-9918064D02*
X6710934Y-9927588D01*
X6710934Y-9927588D02*
X6749030Y-9927588D01*
X6749030Y-9927588D02*
X6768077Y-9918064D01*
X6768077Y-9918064D02*
X6777601Y-9899017D01*
X6777601Y-9899017D02*
X6777601Y-9889493D01*
X6777601Y-9889493D02*
X6768077Y-9870445D01*
X6768077Y-9870445D02*
X6749030Y-9860922D01*
X6749030Y-9860922D02*
X6720458Y-9860922D01*
X6720458Y-9860922D02*
X6701411Y-9851398D01*
X6701411Y-9851398D02*
X6691887Y-9832350D01*
X6691887Y-9832350D02*
X6691887Y-9822826D01*
X6691887Y-9822826D02*
X6701411Y-9803779D01*
X6701411Y-9803779D02*
X6720458Y-9794255D01*
X6720458Y-9794255D02*
X6749030Y-9794255D01*
X6749030Y-9794255D02*
X6768077Y-9803779D01*
X7015696Y-9851398D02*
X7168077Y-9851398D01*
X7091887Y-9927588D02*
X7091887Y-9775207D01*
X7501411Y-9794255D02*
X7501411Y-9927588D01*
X7453792Y-9718064D02*
X7406173Y-9860922D01*
X7406173Y-9860922D02*
X7529982Y-9860922D01*
X7749030Y-9918064D02*
X7768077Y-9927588D01*
X7768077Y-9927588D02*
X7806173Y-9927588D01*
X7806173Y-9927588D02*
X7825220Y-9918064D01*
X7825220Y-9918064D02*
X7834744Y-9899017D01*
X7834744Y-9899017D02*
X7834744Y-9889493D01*
X7834744Y-9889493D02*
X7825220Y-9870445D01*
X7825220Y-9870445D02*
X7806173Y-9860922D01*
X7806173Y-9860922D02*
X7777601Y-9860922D01*
X7777601Y-9860922D02*
X7758554Y-9851398D01*
X7758554Y-9851398D02*
X7749030Y-9832350D01*
X7749030Y-9832350D02*
X7749030Y-9822826D01*
X7749030Y-9822826D02*
X7758554Y-9803779D01*
X7758554Y-9803779D02*
X7777601Y-9794255D01*
X7777601Y-9794255D02*
X7806173Y-9794255D01*
X7806173Y-9794255D02*
X7825220Y-9803779D01*
X7949030Y-9927588D02*
X7929982Y-9918064D01*
X7929982Y-9918064D02*
X7920458Y-9899017D01*
X7920458Y-9899017D02*
X7920458Y-9727588D01*
X8053792Y-9927588D02*
X8034744Y-9918064D01*
X8034744Y-9918064D02*
X8025220Y-9908541D01*
X8025220Y-9908541D02*
X8015697Y-9889493D01*
X8015697Y-9889493D02*
X8015697Y-9832350D01*
X8015697Y-9832350D02*
X8025220Y-9813302D01*
X8025220Y-9813302D02*
X8034744Y-9803779D01*
X8034744Y-9803779D02*
X8053792Y-9794255D01*
X8053792Y-9794255D02*
X8082363Y-9794255D01*
X8082363Y-9794255D02*
X8101411Y-9803779D01*
X8101411Y-9803779D02*
X8110935Y-9813302D01*
X8110935Y-9813302D02*
X8120458Y-9832350D01*
X8120458Y-9832350D02*
X8120458Y-9889493D01*
X8120458Y-9889493D02*
X8110935Y-9908541D01*
X8110935Y-9908541D02*
X8101411Y-9918064D01*
X8101411Y-9918064D02*
X8082363Y-9927588D01*
X8082363Y-9927588D02*
X8053792Y-9927588D01*
X8177601Y-9794255D02*
X8253792Y-9794255D01*
X8206173Y-9727588D02*
X8206173Y-9899017D01*
X8206173Y-9899017D02*
X8215697Y-9918064D01*
X8215697Y-9918064D02*
X8234744Y-9927588D01*
X8234744Y-9927588D02*
X8253792Y-9927588D01*
X8310935Y-9918064D02*
X8329982Y-9927588D01*
X8329982Y-9927588D02*
X8368077Y-9927588D01*
X8368077Y-9927588D02*
X8387125Y-9918064D01*
X8387125Y-9918064D02*
X8396649Y-9899017D01*
X8396649Y-9899017D02*
X8396649Y-9889493D01*
X8396649Y-9889493D02*
X8387125Y-9870445D01*
X8387125Y-9870445D02*
X8368077Y-9860922D01*
X8368077Y-9860922D02*
X8339506Y-9860922D01*
X8339506Y-9860922D02*
X8320458Y-9851398D01*
X8320458Y-9851398D02*
X8310935Y-9832350D01*
X8310935Y-9832350D02*
X8310935Y-9822826D01*
X8310935Y-9822826D02*
X8320458Y-9803779D01*
X8320458Y-9803779D02*
X8339506Y-9794255D01*
X8339506Y-9794255D02*
X8368077Y-9794255D01*
X8368077Y-9794255D02*
X8387125Y-9803779D01*
X8463316Y-10003779D02*
X8472840Y-9994255D01*
X8472840Y-9994255D02*
X8491887Y-9965683D01*
X8491887Y-9965683D02*
X8501411Y-9946636D01*
X8501411Y-9946636D02*
X8510935Y-9918064D01*
X8510935Y-9918064D02*
X8520459Y-9870445D01*
X8520459Y-9870445D02*
X8520459Y-9832350D01*
X8520459Y-9832350D02*
X8510935Y-9784731D01*
X8510935Y-9784731D02*
X8501411Y-9756160D01*
X8501411Y-9756160D02*
X8491887Y-9737112D01*
X8491887Y-9737112D02*
X8472840Y-9708541D01*
X8472840Y-9708541D02*
X8463316Y-9699017D01*
M02*
