M48
; DRILL file {KiCad 9.0.7} date 2026-01-28T11:34:08-0500
; FORMAT={-:-/ absolute / metric / decimal}
; #@! TF.CreationDate,2026-01-28T11:34:08-05:00
; #@! TF.GenerationSoftware,Kicad,Pcbnew,9.0.7
; #@! TF.FileFunction,Plated,1,6,PTH
FMAT,2
METRIC
; #@! TA.AperFunction,Plated,PTH,ComponentDrill
T1C0.150
; #@! TA.AperFunction,Plated,PTH,ViaDrill
T2C0.200
; #@! TA.AperFunction,Plated,PTH,ComponentDrill
T3C0.200
; #@! TA.AperFunction,Plated,PTH,ViaDrill
T4C0.300
; #@! TA.AperFunction,Plated,PTH,ComponentDrill
T5C0.400
; #@! TA.AperFunction,Plated,PTH,ComponentDrill
T6C0.600
%
G90
G05
T1
X24.049Y-58.525
X24.049Y-60.522
X24.418Y-60.525
X24.519Y-58.514
X24.54Y-60.842
X24.543Y-57.923
X26.241Y-61.094
X26.242Y-58.142
X26.242Y-60.759
X26.305Y-58.53
X26.48Y-60.523
X43.25Y-48.55
X43.95Y-48.9
X43.95Y-49.25
X44.65Y-48.9
X44.65Y-49.25
T2
X21.067Y-65.0
X21.067Y-65.9
X22.587Y-63.587
X37.9Y-70.0
X40.206Y-48.194
X41.7Y-64.6
X42.3Y-58.6
X42.377Y-48.7
X42.5Y-60.9
X42.619Y-66.813
X42.808Y-67.764
X42.9Y-61.4
X42.945Y-58.582
X44.5Y-66.5
X45.0Y-48.6
T3
X42.9Y-48.9
X43.6Y-49.95
X44.3Y-48.55
X44.3Y-49.95
T4
X21.147Y-48.401
X21.248Y-54.531
X21.5Y-57.1
X21.5Y-58.0
X21.525Y-60.4
X21.554Y-58.745
X22.4Y-47.2
X22.4Y-49.4
X22.587Y-51.587
X22.587Y-53.087
X23.0Y-49.3
X23.4Y-72.8
X23.5Y-73.4
X23.602Y-61.311
X23.626Y-54.722
X23.63Y-56.002
X23.77Y-65.03
X23.798Y-62.65
X23.852Y-51.648
X23.87Y-65.67
X23.88Y-57.535
X23.91Y-56.507
X23.983Y-47.922
X24.3Y-72.1
X24.5Y-50.8
X24.5Y-56.1
X24.94Y-58.71
X25.213Y-55.848
X25.226Y-59.989
X25.252Y-52.823
X25.396Y-59.175
X25.5Y-42.2
X25.519Y-75.548
X25.8Y-57.2
X25.805Y-60.888
X25.83Y-67.5
X25.9Y-65.6
X25.94Y-54.52
X26.0Y-68.7
X26.2Y-43.4
X26.3Y-40.7
X26.3Y-41.6
X26.5Y-54.105
X26.516Y-75.514
X26.646Y-57.4
X26.9Y-58.925
X26.93Y-65.116
X27.0Y-39.4
X27.0Y-62.167
X27.253Y-58.444
X27.29Y-55.405
X27.347Y-57.875
X27.396Y-60.087
X27.4Y-45.3
X27.426Y-75.552
X27.483Y-59.564
X27.53Y-54.42
X27.531Y-68.306
X27.766Y-76.559
X27.789Y-47.65
X27.9Y-52.7
X27.975Y-56.382
X28.0Y-52.0
X28.0Y-53.85
X28.077Y-57.322
X28.1Y-47.1
X28.107Y-62.597
X28.3Y-55.5
X28.5Y-60.8
X28.5Y-75.1
X28.85Y-42.2
X28.9Y-54.9
X29.113Y-59.993
X29.498Y-71.063
X29.5Y-39.7
X29.516Y-59.525
X29.6Y-45.7
X29.7Y-74.1
X29.734Y-72.02
X29.892Y-61.397
X29.911Y-58.32
X30.0Y-42.5
X30.1Y-50.9
X30.1Y-69.1
X30.4Y-56.8
X30.6Y-73.1
X30.628Y-75.254
X30.7Y-47.2
X30.792Y-76.752
X30.9Y-44.2
X31.27Y-74.98
X31.321Y-67.179
X31.4Y-55.4
X31.49Y-76.3
X31.586Y-64.144
X31.6Y-68.9
X31.653Y-57.247
X31.81Y-69.72
X31.942Y-75.26
X31.991Y-64.549
X32.1Y-48.5
X32.1Y-62.2
X32.147Y-56.753
X32.439Y-69.91
X32.5Y-58.8
X32.89Y-75.05
X32.925Y-69.2
X33.408Y-75.45
X33.625Y-69.2
X33.894Y-75.972
X33.952Y-65.308
X33.952Y-67.535
X33.952Y-68.155
X34.5Y-71.0
X34.689Y-57.317
X34.8Y-42.3
X34.8Y-48.2
X34.898Y-71.881
X34.92Y-74.998
X35.0Y-47.2
X35.0Y-50.7
X35.5Y-56.5
X35.7Y-45.0
X36.0Y-44.0
X36.0Y-64.4
X36.083Y-69.222
X36.6Y-76.8
X36.7Y-64.7
X36.7Y-73.2
X36.718Y-72.016
X36.8Y-74.8
X36.87Y-74.04
X37.0Y-62.8
X37.1Y-62.1
X37.289Y-72.097
X37.405Y-68.2
X37.5Y-69.1
X37.5Y-71.0
X37.7Y-61.5
X37.7Y-62.5
X38.035Y-70.5
X38.151Y-72.035
X38.254Y-74.613
X38.5Y-71.0
X38.854Y-76.33
X39.002Y-49.58
X39.035Y-71.748
X39.045Y-75.786
X39.3Y-52.7
X39.42Y-41.0
X39.535Y-50.0
X39.603Y-65.337
X39.7Y-62.8
X39.92Y-75.78
X39.936Y-47.575
X39.955Y-44.807
X40.025Y-71.609
X40.2Y-58.2
X40.3Y-52.7
X40.49Y-75.78
X40.605Y-60.7
X40.62Y-44.8
X40.652Y-57.1
X40.652Y-57.653
X40.7Y-43.9
X40.7Y-63.5
X40.7Y-65.5
X40.796Y-47.988
X41.0Y-62.6
X41.2Y-48.4
X41.217Y-50.847
X41.238Y-52.266
X41.32Y-40.3
X41.367Y-51.704
X41.4Y-58.1
X41.455Y-71.028
X41.705Y-53.2
X41.771Y-72.014
X41.8Y-52.5
X41.958Y-72.558
X41.981Y-63.808
X42.002Y-71.176
X42.243Y-65.724
X42.3Y-46.261
X42.3Y-64.8
X42.37Y-74.07
X42.455Y-70.9
X42.5Y-57.256
X42.519Y-60.426
X42.538Y-68.187
X42.85Y-67.264
X42.869Y-54.927
X42.869Y-63.927
X42.958Y-72.832
X43.473Y-44.894
X43.482Y-45.459
X43.584Y-51.044
X43.585Y-69.901
X43.7Y-47.663
X43.8Y-63.122
X43.913Y-59.587
X43.913Y-66.087
X43.946Y-44.574
X43.949Y-52.624
X44.0Y-44.0
X44.04Y-67.553
X44.057Y-45.505
X44.076Y-46.52
X44.1Y-63.622
X44.263Y-47.54
X44.4Y-53.085
X44.562Y-52.042
X44.593Y-52.572
X44.65Y-69.86
X44.93Y-63.334
X44.953Y-55.206
X44.963Y-56.208
X44.966Y-65.788
X44.967Y-64.84
X45.0Y-57.1
X45.0Y-57.7
X45.075Y-58.409
X45.258Y-53.196
X45.258Y-62.6
T5
X30.3Y-72.475
X30.3Y-73.825
X31.15Y-72.475
X31.15Y-73.825
X32.0Y-72.475
X32.0Y-73.825
X32.85Y-72.475
X32.85Y-73.825
X33.7Y-72.475
X33.7Y-73.825
X34.55Y-72.475
X34.55Y-73.825
X35.4Y-72.475
X35.4Y-73.825
X36.25Y-72.475
X36.25Y-73.825
T6
X28.95Y-72.705G85X28.95Y-74.205
G05
X28.95Y-76.435G85X28.95Y-77.235
G05
X37.6Y-72.705G85X37.6Y-74.205
G05
X37.6Y-76.435G85X37.6Y-77.235
G05
M30
