M48
; DRILL file {KiCad 9.0.7} date 2026-01-22T14:15:14-0500
; FORMAT={-:-/ absolute / metric / decimal}
; #@! TF.CreationDate,2026-01-22T14:15:14-05:00
; #@! TF.GenerationSoftware,Kicad,Pcbnew,9.0.7
; #@! TF.FileFunction,Plated,1,6,PTH
FMAT,2
METRIC
; #@! TA.AperFunction,Plated,PTH,ComponentDrill
T1C0.150
; #@! TA.AperFunction,Plated,PTH,ViaDrill
T2C0.200
; #@! TA.AperFunction,Plated,PTH,ComponentDrill
T3C0.200
; #@! TA.AperFunction,Plated,PTH,ViaDrill
T4C0.300
; #@! TA.AperFunction,Plated,PTH,ComponentDrill
T5C0.400
; #@! TA.AperFunction,Plated,PTH,ComponentDrill
T6C0.600
; #@! TA.AperFunction,Plated,PTH,ComponentDrill
T7C0.800
%
G90
G05
T1
X43.25Y-48.55
X43.95Y-48.9
X43.95Y-49.25
X44.65Y-48.9
X44.65Y-49.25
T2
X21.067Y-65.0
X21.067Y-65.9
X22.1Y-47.2
X22.587Y-63.587
X32.5Y-77.0
X34.5Y-77.0
X37.9Y-70.0
X40.206Y-48.194
X41.7Y-64.6
X42.3Y-48.7
X42.3Y-58.6
X42.5Y-60.9
X42.619Y-66.813
X42.808Y-67.764
X42.9Y-61.4
X42.945Y-58.582
X44.5Y-66.5
X45.0Y-48.6
T3
X42.9Y-48.9
X43.6Y-49.95
X44.3Y-48.55
X44.3Y-49.95
T4
X21.3Y-63.655
X21.4Y-54.6
X21.5Y-58.0
X21.525Y-60.4
X21.554Y-58.745
X21.8Y-48.3
X22.2Y-52.1
X22.3Y-48.5
X22.415Y-49.147
X22.587Y-62.587
X22.67Y-64.633
X22.8Y-44.1
X23.09Y-50.996
X23.4Y-49.3
X23.4Y-72.8
X23.5Y-73.4
X23.689Y-50.9
X23.7Y-65.1
X24.285Y-48.658
X24.3Y-51.8
X24.3Y-57.8
X24.3Y-72.1
X24.499Y-49.839
X24.5Y-56.7
X24.5Y-59.0
X24.5Y-61.025
X24.5Y-65.3
X24.8Y-51.0
X24.8Y-55.992
X25.2Y-41.6
X25.3Y-68.2
X25.5Y-66.182
X25.703Y-75.697
X25.9Y-65.6
X26.0Y-41.0
X26.0Y-43.6
X26.0Y-68.7
X26.2Y-46.8
X26.326Y-67.9
X26.4Y-51.5
X26.569Y-54.569
X26.6Y-39.7
X26.6Y-62.4
X26.6Y-75.5
X26.8Y-44.5
X26.8Y-55.992
X27.0Y-59.8
X27.022Y-65.105
X27.3Y-75.5
X27.4Y-41.1
X27.5Y-51.0
X27.7Y-76.3
X27.789Y-47.65
X28.0Y-46.9
X28.0Y-68.5
X28.313Y-53.083
X28.5Y-75.1
X28.8Y-54.5
X28.85Y-42.2
X28.9Y-68.0
X29.1Y-53.6
X29.3Y-54.2
X29.498Y-71.063
X29.5Y-39.7
X29.6Y-45.7
X29.677Y-55.096
X29.7Y-59.4
X29.7Y-74.1
X29.734Y-72.02
X29.795Y-54.5
X30.0Y-42.5
X30.0Y-58.6
X30.0Y-76.8
X30.1Y-50.9
X30.181Y-61.946
X30.2Y-55.182
X30.5Y-57.3
X30.6Y-64.6
X30.6Y-69.3
X30.645Y-75.6
X30.7Y-47.2
X30.9Y-44.2
X30.929Y-69.947
X31.183Y-60.8
X31.5Y-67.0
X31.5Y-69.3
X31.727Y-62.346
X32.0Y-56.8
X32.1Y-48.5
X32.823Y-68.642
X33.2Y-69.4
X33.295Y-66.1
X33.295Y-68.4
X34.1Y-58.6
X34.281Y-56.175
X34.5Y-71.0
X34.6Y-58.9
X34.7Y-67.1
X34.8Y-42.3
X34.8Y-48.2
X34.898Y-71.881
X35.0Y-47.2
X35.0Y-50.7
X35.0Y-56.0
X35.5Y-56.5
X35.6Y-69.1
X35.7Y-45.0
X36.0Y-44.0
X36.0Y-64.4
X36.339Y-47.661
X36.406Y-48.633
X36.6Y-76.8
X36.7Y-60.1
X36.7Y-64.7
X36.7Y-73.2
X36.8Y-74.8
X36.897Y-72.042
X37.0Y-62.8
X37.1Y-62.1
X37.405Y-68.2
X37.5Y-69.1
X37.5Y-71.0
X37.7Y-61.5
X37.7Y-62.5
X38.035Y-70.5
X38.1Y-75.1
X38.151Y-72.035
X38.38Y-76.096
X38.5Y-71.0
X38.9Y-76.2
X39.002Y-49.58
X39.035Y-71.748
X39.3Y-52.7
X39.535Y-50.0
X39.6Y-41.6
X39.603Y-65.337
X39.7Y-56.6
X39.7Y-62.8
X39.8Y-76.2
X39.936Y-47.575
X40.025Y-71.609
X40.135Y-45.407
X40.2Y-58.2
X40.3Y-52.7
X40.3Y-75.7
X40.652Y-57.1
X40.652Y-57.653
X40.7Y-43.9
X40.7Y-63.5
X40.7Y-65.5
X40.8Y-45.4
X41.0Y-48.0
X41.0Y-62.6
X41.3Y-51.1
X41.3Y-51.9
X41.4Y-58.1
X41.455Y-71.028
X41.5Y-40.9
X41.705Y-53.2
X41.771Y-72.014
X41.8Y-52.5
X41.958Y-72.558
X41.981Y-63.808
X42.0Y-71.0
X42.1Y-73.8
X42.243Y-65.724
X42.3Y-46.261
X42.3Y-64.8
X42.455Y-71.358
X42.5Y-57.256
X42.538Y-68.187
X42.85Y-67.264
X42.869Y-54.927
X42.869Y-63.927
X43.3Y-72.6
X43.473Y-44.894
X43.482Y-45.459
X43.482Y-47.602
X43.584Y-51.044
X43.585Y-69.901
X43.8Y-63.122
X43.913Y-59.587
X43.913Y-66.087
X43.946Y-44.574
X43.949Y-52.624
X44.0Y-44.0
X44.04Y-67.553
X44.052Y-47.514
X44.057Y-45.505
X44.076Y-46.52
X44.1Y-63.622
X44.4Y-53.085
X44.562Y-52.042
X44.593Y-52.572
X44.826Y-69.452
X44.93Y-63.334
X44.953Y-55.206
X44.963Y-56.208
X44.966Y-65.788
X44.967Y-64.84
X45.0Y-57.1
X45.0Y-57.7
X45.075Y-58.409
X45.258Y-53.196
T5
X30.3Y-72.475
X30.3Y-73.825
X31.15Y-72.475
X31.15Y-73.825
X32.0Y-72.475
X32.0Y-73.825
X32.85Y-72.475
X32.85Y-73.825
X33.7Y-72.475
X33.7Y-73.825
X34.55Y-72.475
X34.55Y-73.825
X35.4Y-72.475
X35.4Y-73.825
X36.25Y-72.475
X36.25Y-73.825
T7
X23.3Y-47.1
X25.3Y-47.1
T6
G00X28.95Y-72.705
M15
G01X28.95Y-74.205
M16
G05
G00X28.95Y-76.435
M15
G01X28.95Y-77.235
M16
G05
G00X37.6Y-72.705
M15
G01X37.6Y-74.205
M16
G05
G00X37.6Y-76.435
M15
G01X37.6Y-77.235
M16
G05
M30
