%TF.GenerationSoftware,KiCad,Pcbnew,9.0.7*%
%TF.CreationDate,2026-01-28T11:34:08-05:00*%
%TF.ProjectId,Serene Mini,53657265-6e65-4204-9d69-6e692e6b6963,rev?*%
%TF.SameCoordinates,Original*%
%TF.FileFunction,Drillmap*%
%TF.FilePolarity,Positive*%
%FSLAX45Y45*%
G04 Gerber Fmt 4.5, Leading zero omitted, Abs format (unit mm)*
G04 Created by KiCad (PCBNEW 9.0.7) date 2026-01-28 11:34:08*
%MOMM*%
%LPD*%
G01*
G04 APERTURE LIST*
%ADD10C,0.050000*%
%ADD11C,0.200000*%
%ADD12C,0.100000*%
%ADD13C,0.170000*%
G04 APERTURE END LIST*
D10*
X2071705Y-4875309D02*
X2071705Y-6625309D01*
X4568295Y-6625000D02*
G75*
G02*
X2071705Y-6625309I-1248295J-309D01*
G01*
X2071705Y-4875309D02*
G75*
G02*
X4568295Y-4875309I1248295J0D01*
G01*
X4568295Y-4875309D02*
X4568295Y-6625000D01*
D11*
D12*
X2422000Y-4305000D02*
X2502000Y-4385000D01*
X2502000Y-4305000D02*
X2422000Y-4385000D01*
X4140000Y-4300000D02*
X4220000Y-4380000D01*
X4220000Y-4300000D02*
X4140000Y-4380000D01*
D13*
X3405000Y-4080000D02*
G75*
G02*
X3235000Y-4080000I-85000J0D01*
G01*
X3235000Y-4080000D02*
G75*
G02*
X3405000Y-4080000I85000J0D01*
G01*
X3405000Y-4780000D02*
G75*
G02*
X3235000Y-4780000I-85000J0D01*
G01*
X3235000Y-4780000D02*
G75*
G02*
X3405000Y-4780000I85000J0D01*
G01*
D11*
X2329982Y-8187588D02*
X2329982Y-7987588D01*
X2329982Y-7987588D02*
X2377601Y-7987588D01*
X2377601Y-7987588D02*
X2406172Y-7997112D01*
X2406172Y-7997112D02*
X2425220Y-8016160D01*
X2425220Y-8016160D02*
X2434744Y-8035207D01*
X2434744Y-8035207D02*
X2444267Y-8073302D01*
X2444267Y-8073302D02*
X2444267Y-8101874D01*
X2444267Y-8101874D02*
X2434744Y-8139969D01*
X2434744Y-8139969D02*
X2425220Y-8159017D01*
X2425220Y-8159017D02*
X2406172Y-8178064D01*
X2406172Y-8178064D02*
X2377601Y-8187588D01*
X2377601Y-8187588D02*
X2329982Y-8187588D01*
X2529982Y-8187588D02*
X2529982Y-8054255D01*
X2529982Y-8092350D02*
X2539506Y-8073302D01*
X2539506Y-8073302D02*
X2549029Y-8063779D01*
X2549029Y-8063779D02*
X2568077Y-8054255D01*
X2568077Y-8054255D02*
X2587125Y-8054255D01*
X2653791Y-8187588D02*
X2653791Y-8054255D01*
X2653791Y-7987588D02*
X2644267Y-7997112D01*
X2644267Y-7997112D02*
X2653791Y-8006636D01*
X2653791Y-8006636D02*
X2663315Y-7997112D01*
X2663315Y-7997112D02*
X2653791Y-7987588D01*
X2653791Y-7987588D02*
X2653791Y-8006636D01*
X2777601Y-8187588D02*
X2758553Y-8178064D01*
X2758553Y-8178064D02*
X2749029Y-8159017D01*
X2749029Y-8159017D02*
X2749029Y-7987588D01*
X2882363Y-8187588D02*
X2863315Y-8178064D01*
X2863315Y-8178064D02*
X2853791Y-8159017D01*
X2853791Y-8159017D02*
X2853791Y-7987588D01*
X3110934Y-8187588D02*
X3110934Y-7987588D01*
X3110934Y-7987588D02*
X3177601Y-8130445D01*
X3177601Y-8130445D02*
X3244267Y-7987588D01*
X3244267Y-7987588D02*
X3244267Y-8187588D01*
X3425220Y-8187588D02*
X3425220Y-8082826D01*
X3425220Y-8082826D02*
X3415696Y-8063779D01*
X3415696Y-8063779D02*
X3396648Y-8054255D01*
X3396648Y-8054255D02*
X3358553Y-8054255D01*
X3358553Y-8054255D02*
X3339505Y-8063779D01*
X3425220Y-8178064D02*
X3406172Y-8187588D01*
X3406172Y-8187588D02*
X3358553Y-8187588D01*
X3358553Y-8187588D02*
X3339505Y-8178064D01*
X3339505Y-8178064D02*
X3329982Y-8159017D01*
X3329982Y-8159017D02*
X3329982Y-8139969D01*
X3329982Y-8139969D02*
X3339505Y-8120921D01*
X3339505Y-8120921D02*
X3358553Y-8111398D01*
X3358553Y-8111398D02*
X3406172Y-8111398D01*
X3406172Y-8111398D02*
X3425220Y-8101874D01*
X3520458Y-8054255D02*
X3520458Y-8254255D01*
X3520458Y-8063779D02*
X3539505Y-8054255D01*
X3539505Y-8054255D02*
X3577601Y-8054255D01*
X3577601Y-8054255D02*
X3596648Y-8063779D01*
X3596648Y-8063779D02*
X3606172Y-8073302D01*
X3606172Y-8073302D02*
X3615696Y-8092350D01*
X3615696Y-8092350D02*
X3615696Y-8149493D01*
X3615696Y-8149493D02*
X3606172Y-8168540D01*
X3606172Y-8168540D02*
X3596648Y-8178064D01*
X3596648Y-8178064D02*
X3577601Y-8187588D01*
X3577601Y-8187588D02*
X3539505Y-8187588D01*
X3539505Y-8187588D02*
X3520458Y-8178064D01*
X3701410Y-8168540D02*
X3710934Y-8178064D01*
X3710934Y-8178064D02*
X3701410Y-8187588D01*
X3701410Y-8187588D02*
X3691886Y-8178064D01*
X3691886Y-8178064D02*
X3701410Y-8168540D01*
X3701410Y-8168540D02*
X3701410Y-8187588D01*
X3701410Y-8063779D02*
X3710934Y-8073302D01*
X3710934Y-8073302D02*
X3701410Y-8082826D01*
X3701410Y-8082826D02*
X3691886Y-8073302D01*
X3691886Y-8073302D02*
X3701410Y-8063779D01*
X3701410Y-8063779D02*
X3701410Y-8082826D01*
D12*
X1989205Y-8476104D02*
X2069205Y-8556104D01*
X2069205Y-8476104D02*
X1989205Y-8556104D01*
D11*
X2368077Y-8407588D02*
X2387125Y-8407588D01*
X2387125Y-8407588D02*
X2406172Y-8417112D01*
X2406172Y-8417112D02*
X2415696Y-8426636D01*
X2415696Y-8426636D02*
X2425220Y-8445683D01*
X2425220Y-8445683D02*
X2434744Y-8483779D01*
X2434744Y-8483779D02*
X2434744Y-8531398D01*
X2434744Y-8531398D02*
X2425220Y-8569493D01*
X2425220Y-8569493D02*
X2415696Y-8588541D01*
X2415696Y-8588541D02*
X2406172Y-8598064D01*
X2406172Y-8598064D02*
X2387125Y-8607588D01*
X2387125Y-8607588D02*
X2368077Y-8607588D01*
X2368077Y-8607588D02*
X2349029Y-8598064D01*
X2349029Y-8598064D02*
X2339506Y-8588541D01*
X2339506Y-8588541D02*
X2329982Y-8569493D01*
X2329982Y-8569493D02*
X2320458Y-8531398D01*
X2320458Y-8531398D02*
X2320458Y-8483779D01*
X2320458Y-8483779D02*
X2329982Y-8445683D01*
X2329982Y-8445683D02*
X2339506Y-8426636D01*
X2339506Y-8426636D02*
X2349029Y-8417112D01*
X2349029Y-8417112D02*
X2368077Y-8407588D01*
X2520458Y-8588541D02*
X2529982Y-8598064D01*
X2529982Y-8598064D02*
X2520458Y-8607588D01*
X2520458Y-8607588D02*
X2510934Y-8598064D01*
X2510934Y-8598064D02*
X2520458Y-8588541D01*
X2520458Y-8588541D02*
X2520458Y-8607588D01*
X2644267Y-8493302D02*
X2625220Y-8483779D01*
X2625220Y-8483779D02*
X2615696Y-8474255D01*
X2615696Y-8474255D02*
X2606172Y-8455207D01*
X2606172Y-8455207D02*
X2606172Y-8445683D01*
X2606172Y-8445683D02*
X2615696Y-8426636D01*
X2615696Y-8426636D02*
X2625220Y-8417112D01*
X2625220Y-8417112D02*
X2644267Y-8407588D01*
X2644267Y-8407588D02*
X2682363Y-8407588D01*
X2682363Y-8407588D02*
X2701410Y-8417112D01*
X2701410Y-8417112D02*
X2710934Y-8426636D01*
X2710934Y-8426636D02*
X2720458Y-8445683D01*
X2720458Y-8445683D02*
X2720458Y-8455207D01*
X2720458Y-8455207D02*
X2710934Y-8474255D01*
X2710934Y-8474255D02*
X2701410Y-8483779D01*
X2701410Y-8483779D02*
X2682363Y-8493302D01*
X2682363Y-8493302D02*
X2644267Y-8493302D01*
X2644267Y-8493302D02*
X2625220Y-8502826D01*
X2625220Y-8502826D02*
X2615696Y-8512350D01*
X2615696Y-8512350D02*
X2606172Y-8531398D01*
X2606172Y-8531398D02*
X2606172Y-8569493D01*
X2606172Y-8569493D02*
X2615696Y-8588541D01*
X2615696Y-8588541D02*
X2625220Y-8598064D01*
X2625220Y-8598064D02*
X2644267Y-8607588D01*
X2644267Y-8607588D02*
X2682363Y-8607588D01*
X2682363Y-8607588D02*
X2701410Y-8598064D01*
X2701410Y-8598064D02*
X2710934Y-8588541D01*
X2710934Y-8588541D02*
X2720458Y-8569493D01*
X2720458Y-8569493D02*
X2720458Y-8531398D01*
X2720458Y-8531398D02*
X2710934Y-8512350D01*
X2710934Y-8512350D02*
X2701410Y-8502826D01*
X2701410Y-8502826D02*
X2682363Y-8493302D01*
X2844267Y-8407588D02*
X2863315Y-8407588D01*
X2863315Y-8407588D02*
X2882363Y-8417112D01*
X2882363Y-8417112D02*
X2891886Y-8426636D01*
X2891886Y-8426636D02*
X2901410Y-8445683D01*
X2901410Y-8445683D02*
X2910934Y-8483779D01*
X2910934Y-8483779D02*
X2910934Y-8531398D01*
X2910934Y-8531398D02*
X2901410Y-8569493D01*
X2901410Y-8569493D02*
X2891886Y-8588541D01*
X2891886Y-8588541D02*
X2882363Y-8598064D01*
X2882363Y-8598064D02*
X2863315Y-8607588D01*
X2863315Y-8607588D02*
X2844267Y-8607588D01*
X2844267Y-8607588D02*
X2825220Y-8598064D01*
X2825220Y-8598064D02*
X2815696Y-8588541D01*
X2815696Y-8588541D02*
X2806172Y-8569493D01*
X2806172Y-8569493D02*
X2796648Y-8531398D01*
X2796648Y-8531398D02*
X2796648Y-8483779D01*
X2796648Y-8483779D02*
X2806172Y-8445683D01*
X2806172Y-8445683D02*
X2815696Y-8426636D01*
X2815696Y-8426636D02*
X2825220Y-8417112D01*
X2825220Y-8417112D02*
X2844267Y-8407588D01*
X3034744Y-8407588D02*
X3053791Y-8407588D01*
X3053791Y-8407588D02*
X3072839Y-8417112D01*
X3072839Y-8417112D02*
X3082363Y-8426636D01*
X3082363Y-8426636D02*
X3091886Y-8445683D01*
X3091886Y-8445683D02*
X3101410Y-8483779D01*
X3101410Y-8483779D02*
X3101410Y-8531398D01*
X3101410Y-8531398D02*
X3091886Y-8569493D01*
X3091886Y-8569493D02*
X3082363Y-8588541D01*
X3082363Y-8588541D02*
X3072839Y-8598064D01*
X3072839Y-8598064D02*
X3053791Y-8607588D01*
X3053791Y-8607588D02*
X3034744Y-8607588D01*
X3034744Y-8607588D02*
X3015696Y-8598064D01*
X3015696Y-8598064D02*
X3006172Y-8588541D01*
X3006172Y-8588541D02*
X2996648Y-8569493D01*
X2996648Y-8569493D02*
X2987125Y-8531398D01*
X2987125Y-8531398D02*
X2987125Y-8483779D01*
X2987125Y-8483779D02*
X2996648Y-8445683D01*
X2996648Y-8445683D02*
X3006172Y-8426636D01*
X3006172Y-8426636D02*
X3015696Y-8417112D01*
X3015696Y-8417112D02*
X3034744Y-8407588D01*
X3187125Y-8607588D02*
X3187125Y-8474255D01*
X3187125Y-8493302D02*
X3196648Y-8483779D01*
X3196648Y-8483779D02*
X3215696Y-8474255D01*
X3215696Y-8474255D02*
X3244267Y-8474255D01*
X3244267Y-8474255D02*
X3263315Y-8483779D01*
X3263315Y-8483779D02*
X3272839Y-8502826D01*
X3272839Y-8502826D02*
X3272839Y-8607588D01*
X3272839Y-8502826D02*
X3282363Y-8483779D01*
X3282363Y-8483779D02*
X3301410Y-8474255D01*
X3301410Y-8474255D02*
X3329982Y-8474255D01*
X3329982Y-8474255D02*
X3349029Y-8483779D01*
X3349029Y-8483779D02*
X3358553Y-8502826D01*
X3358553Y-8502826D02*
X3358553Y-8607588D01*
X3453791Y-8607588D02*
X3453791Y-8474255D01*
X3453791Y-8493302D02*
X3463315Y-8483779D01*
X3463315Y-8483779D02*
X3482363Y-8474255D01*
X3482363Y-8474255D02*
X3510934Y-8474255D01*
X3510934Y-8474255D02*
X3529982Y-8483779D01*
X3529982Y-8483779D02*
X3539506Y-8502826D01*
X3539506Y-8502826D02*
X3539506Y-8607588D01*
X3539506Y-8502826D02*
X3549029Y-8483779D01*
X3549029Y-8483779D02*
X3568077Y-8474255D01*
X3568077Y-8474255D02*
X3596648Y-8474255D01*
X3596648Y-8474255D02*
X3615696Y-8483779D01*
X3615696Y-8483779D02*
X3625220Y-8502826D01*
X3625220Y-8502826D02*
X3625220Y-8607588D01*
X4015696Y-8398064D02*
X3844268Y-8655207D01*
X4272839Y-8407588D02*
X4291887Y-8407588D01*
X4291887Y-8407588D02*
X4310934Y-8417112D01*
X4310934Y-8417112D02*
X4320458Y-8426636D01*
X4320458Y-8426636D02*
X4329982Y-8445683D01*
X4329982Y-8445683D02*
X4339506Y-8483779D01*
X4339506Y-8483779D02*
X4339506Y-8531398D01*
X4339506Y-8531398D02*
X4329982Y-8569493D01*
X4329982Y-8569493D02*
X4320458Y-8588541D01*
X4320458Y-8588541D02*
X4310934Y-8598064D01*
X4310934Y-8598064D02*
X4291887Y-8607588D01*
X4291887Y-8607588D02*
X4272839Y-8607588D01*
X4272839Y-8607588D02*
X4253791Y-8598064D01*
X4253791Y-8598064D02*
X4244268Y-8588541D01*
X4244268Y-8588541D02*
X4234744Y-8569493D01*
X4234744Y-8569493D02*
X4225220Y-8531398D01*
X4225220Y-8531398D02*
X4225220Y-8483779D01*
X4225220Y-8483779D02*
X4234744Y-8445683D01*
X4234744Y-8445683D02*
X4244268Y-8426636D01*
X4244268Y-8426636D02*
X4253791Y-8417112D01*
X4253791Y-8417112D02*
X4272839Y-8407588D01*
X4425220Y-8588541D02*
X4434744Y-8598064D01*
X4434744Y-8598064D02*
X4425220Y-8607588D01*
X4425220Y-8607588D02*
X4415696Y-8598064D01*
X4415696Y-8598064D02*
X4425220Y-8588541D01*
X4425220Y-8588541D02*
X4425220Y-8607588D01*
X4558553Y-8407588D02*
X4577601Y-8407588D01*
X4577601Y-8407588D02*
X4596649Y-8417112D01*
X4596649Y-8417112D02*
X4606172Y-8426636D01*
X4606172Y-8426636D02*
X4615696Y-8445683D01*
X4615696Y-8445683D02*
X4625220Y-8483779D01*
X4625220Y-8483779D02*
X4625220Y-8531398D01*
X4625220Y-8531398D02*
X4615696Y-8569493D01*
X4615696Y-8569493D02*
X4606172Y-8588541D01*
X4606172Y-8588541D02*
X4596649Y-8598064D01*
X4596649Y-8598064D02*
X4577601Y-8607588D01*
X4577601Y-8607588D02*
X4558553Y-8607588D01*
X4558553Y-8607588D02*
X4539506Y-8598064D01*
X4539506Y-8598064D02*
X4529982Y-8588541D01*
X4529982Y-8588541D02*
X4520458Y-8569493D01*
X4520458Y-8569493D02*
X4510934Y-8531398D01*
X4510934Y-8531398D02*
X4510934Y-8483779D01*
X4510934Y-8483779D02*
X4520458Y-8445683D01*
X4520458Y-8445683D02*
X4529982Y-8426636D01*
X4529982Y-8426636D02*
X4539506Y-8417112D01*
X4539506Y-8417112D02*
X4558553Y-8407588D01*
X4691887Y-8407588D02*
X4815696Y-8407588D01*
X4815696Y-8407588D02*
X4749030Y-8483779D01*
X4749030Y-8483779D02*
X4777601Y-8483779D01*
X4777601Y-8483779D02*
X4796649Y-8493302D01*
X4796649Y-8493302D02*
X4806172Y-8502826D01*
X4806172Y-8502826D02*
X4815696Y-8521874D01*
X4815696Y-8521874D02*
X4815696Y-8569493D01*
X4815696Y-8569493D02*
X4806172Y-8588541D01*
X4806172Y-8588541D02*
X4796649Y-8598064D01*
X4796649Y-8598064D02*
X4777601Y-8607588D01*
X4777601Y-8607588D02*
X4720458Y-8607588D01*
X4720458Y-8607588D02*
X4701411Y-8598064D01*
X4701411Y-8598064D02*
X4691887Y-8588541D01*
X5006172Y-8607588D02*
X4891887Y-8607588D01*
X4949030Y-8607588D02*
X4949030Y-8407588D01*
X4949030Y-8407588D02*
X4929982Y-8436160D01*
X4929982Y-8436160D02*
X4910934Y-8455207D01*
X4910934Y-8455207D02*
X4891887Y-8464731D01*
X5187125Y-8407588D02*
X5091887Y-8407588D01*
X5091887Y-8407588D02*
X5082363Y-8502826D01*
X5082363Y-8502826D02*
X5091887Y-8493302D01*
X5091887Y-8493302D02*
X5110934Y-8483779D01*
X5110934Y-8483779D02*
X5158553Y-8483779D01*
X5158553Y-8483779D02*
X5177601Y-8493302D01*
X5177601Y-8493302D02*
X5187125Y-8502826D01*
X5187125Y-8502826D02*
X5196649Y-8521874D01*
X5196649Y-8521874D02*
X5196649Y-8569493D01*
X5196649Y-8569493D02*
X5187125Y-8588541D01*
X5187125Y-8588541D02*
X5177601Y-8598064D01*
X5177601Y-8598064D02*
X5158553Y-8607588D01*
X5158553Y-8607588D02*
X5110934Y-8607588D01*
X5110934Y-8607588D02*
X5091887Y-8598064D01*
X5091887Y-8598064D02*
X5082363Y-8588541D01*
X5272839Y-8407588D02*
X5272839Y-8445683D01*
X5349030Y-8407588D02*
X5349030Y-8445683D01*
X5644268Y-8683779D02*
X5634744Y-8674255D01*
X5634744Y-8674255D02*
X5615696Y-8645683D01*
X5615696Y-8645683D02*
X5606172Y-8626636D01*
X5606172Y-8626636D02*
X5596649Y-8598064D01*
X5596649Y-8598064D02*
X5587125Y-8550445D01*
X5587125Y-8550445D02*
X5587125Y-8512350D01*
X5587125Y-8512350D02*
X5596649Y-8464731D01*
X5596649Y-8464731D02*
X5606172Y-8436160D01*
X5606172Y-8436160D02*
X5615696Y-8417112D01*
X5615696Y-8417112D02*
X5634744Y-8388540D01*
X5634744Y-8388540D02*
X5644268Y-8379017D01*
X5710934Y-8426636D02*
X5720458Y-8417112D01*
X5720458Y-8417112D02*
X5739506Y-8407588D01*
X5739506Y-8407588D02*
X5787125Y-8407588D01*
X5787125Y-8407588D02*
X5806172Y-8417112D01*
X5806172Y-8417112D02*
X5815696Y-8426636D01*
X5815696Y-8426636D02*
X5825220Y-8445683D01*
X5825220Y-8445683D02*
X5825220Y-8464731D01*
X5825220Y-8464731D02*
X5815696Y-8493302D01*
X5815696Y-8493302D02*
X5701411Y-8607588D01*
X5701411Y-8607588D02*
X5825220Y-8607588D01*
X6063315Y-8607588D02*
X6063315Y-8407588D01*
X6149030Y-8607588D02*
X6149030Y-8502826D01*
X6149030Y-8502826D02*
X6139506Y-8483779D01*
X6139506Y-8483779D02*
X6120458Y-8474255D01*
X6120458Y-8474255D02*
X6091887Y-8474255D01*
X6091887Y-8474255D02*
X6072839Y-8483779D01*
X6072839Y-8483779D02*
X6063315Y-8493302D01*
X6272839Y-8607588D02*
X6253792Y-8598064D01*
X6253792Y-8598064D02*
X6244268Y-8588541D01*
X6244268Y-8588541D02*
X6234744Y-8569493D01*
X6234744Y-8569493D02*
X6234744Y-8512350D01*
X6234744Y-8512350D02*
X6244268Y-8493302D01*
X6244268Y-8493302D02*
X6253792Y-8483779D01*
X6253792Y-8483779D02*
X6272839Y-8474255D01*
X6272839Y-8474255D02*
X6301411Y-8474255D01*
X6301411Y-8474255D02*
X6320458Y-8483779D01*
X6320458Y-8483779D02*
X6329982Y-8493302D01*
X6329982Y-8493302D02*
X6339506Y-8512350D01*
X6339506Y-8512350D02*
X6339506Y-8569493D01*
X6339506Y-8569493D02*
X6329982Y-8588541D01*
X6329982Y-8588541D02*
X6320458Y-8598064D01*
X6320458Y-8598064D02*
X6301411Y-8607588D01*
X6301411Y-8607588D02*
X6272839Y-8607588D01*
X6453792Y-8607588D02*
X6434744Y-8598064D01*
X6434744Y-8598064D02*
X6425220Y-8579017D01*
X6425220Y-8579017D02*
X6425220Y-8407588D01*
X6606173Y-8598064D02*
X6587125Y-8607588D01*
X6587125Y-8607588D02*
X6549030Y-8607588D01*
X6549030Y-8607588D02*
X6529982Y-8598064D01*
X6529982Y-8598064D02*
X6520458Y-8579017D01*
X6520458Y-8579017D02*
X6520458Y-8502826D01*
X6520458Y-8502826D02*
X6529982Y-8483779D01*
X6529982Y-8483779D02*
X6549030Y-8474255D01*
X6549030Y-8474255D02*
X6587125Y-8474255D01*
X6587125Y-8474255D02*
X6606173Y-8483779D01*
X6606173Y-8483779D02*
X6615696Y-8502826D01*
X6615696Y-8502826D02*
X6615696Y-8521874D01*
X6615696Y-8521874D02*
X6520458Y-8540922D01*
X6691887Y-8598064D02*
X6710934Y-8607588D01*
X6710934Y-8607588D02*
X6749030Y-8607588D01*
X6749030Y-8607588D02*
X6768077Y-8598064D01*
X6768077Y-8598064D02*
X6777601Y-8579017D01*
X6777601Y-8579017D02*
X6777601Y-8569493D01*
X6777601Y-8569493D02*
X6768077Y-8550445D01*
X6768077Y-8550445D02*
X6749030Y-8540922D01*
X6749030Y-8540922D02*
X6720458Y-8540922D01*
X6720458Y-8540922D02*
X6701411Y-8531398D01*
X6701411Y-8531398D02*
X6691887Y-8512350D01*
X6691887Y-8512350D02*
X6691887Y-8502826D01*
X6691887Y-8502826D02*
X6701411Y-8483779D01*
X6701411Y-8483779D02*
X6720458Y-8474255D01*
X6720458Y-8474255D02*
X6749030Y-8474255D01*
X6749030Y-8474255D02*
X6768077Y-8483779D01*
X6844268Y-8683779D02*
X6853792Y-8674255D01*
X6853792Y-8674255D02*
X6872839Y-8645683D01*
X6872839Y-8645683D02*
X6882363Y-8626636D01*
X6882363Y-8626636D02*
X6891887Y-8598064D01*
X6891887Y-8598064D02*
X6901411Y-8550445D01*
X6901411Y-8550445D02*
X6901411Y-8512350D01*
X6901411Y-8512350D02*
X6891887Y-8464731D01*
X6891887Y-8464731D02*
X6882363Y-8436160D01*
X6882363Y-8436160D02*
X6872839Y-8417112D01*
X6872839Y-8417112D02*
X6853792Y-8388540D01*
X6853792Y-8388540D02*
X6844268Y-8379017D01*
X7206173Y-8683779D02*
X7196649Y-8674255D01*
X7196649Y-8674255D02*
X7177601Y-8645683D01*
X7177601Y-8645683D02*
X7168077Y-8626636D01*
X7168077Y-8626636D02*
X7158554Y-8598064D01*
X7158554Y-8598064D02*
X7149030Y-8550445D01*
X7149030Y-8550445D02*
X7149030Y-8512350D01*
X7149030Y-8512350D02*
X7158554Y-8464731D01*
X7158554Y-8464731D02*
X7168077Y-8436160D01*
X7168077Y-8436160D02*
X7177601Y-8417112D01*
X7177601Y-8417112D02*
X7196649Y-8388540D01*
X7196649Y-8388540D02*
X7206173Y-8379017D01*
X7282363Y-8474255D02*
X7282363Y-8607588D01*
X7282363Y-8493302D02*
X7291887Y-8483779D01*
X7291887Y-8483779D02*
X7310934Y-8474255D01*
X7310934Y-8474255D02*
X7339506Y-8474255D01*
X7339506Y-8474255D02*
X7358554Y-8483779D01*
X7358554Y-8483779D02*
X7368077Y-8502826D01*
X7368077Y-8502826D02*
X7368077Y-8607588D01*
X7491887Y-8607588D02*
X7472839Y-8598064D01*
X7472839Y-8598064D02*
X7463315Y-8588541D01*
X7463315Y-8588541D02*
X7453792Y-8569493D01*
X7453792Y-8569493D02*
X7453792Y-8512350D01*
X7453792Y-8512350D02*
X7463315Y-8493302D01*
X7463315Y-8493302D02*
X7472839Y-8483779D01*
X7472839Y-8483779D02*
X7491887Y-8474255D01*
X7491887Y-8474255D02*
X7520458Y-8474255D01*
X7520458Y-8474255D02*
X7539506Y-8483779D01*
X7539506Y-8483779D02*
X7549030Y-8493302D01*
X7549030Y-8493302D02*
X7558554Y-8512350D01*
X7558554Y-8512350D02*
X7558554Y-8569493D01*
X7558554Y-8569493D02*
X7549030Y-8588541D01*
X7549030Y-8588541D02*
X7539506Y-8598064D01*
X7539506Y-8598064D02*
X7520458Y-8607588D01*
X7520458Y-8607588D02*
X7491887Y-8607588D01*
X7615696Y-8474255D02*
X7691887Y-8474255D01*
X7644268Y-8407588D02*
X7644268Y-8579017D01*
X7644268Y-8579017D02*
X7653792Y-8598064D01*
X7653792Y-8598064D02*
X7672839Y-8607588D01*
X7672839Y-8607588D02*
X7691887Y-8607588D01*
X7910935Y-8474255D02*
X7910935Y-8674255D01*
X7910935Y-8483779D02*
X7929982Y-8474255D01*
X7929982Y-8474255D02*
X7968077Y-8474255D01*
X7968077Y-8474255D02*
X7987125Y-8483779D01*
X7987125Y-8483779D02*
X7996649Y-8493302D01*
X7996649Y-8493302D02*
X8006173Y-8512350D01*
X8006173Y-8512350D02*
X8006173Y-8569493D01*
X8006173Y-8569493D02*
X7996649Y-8588541D01*
X7996649Y-8588541D02*
X7987125Y-8598064D01*
X7987125Y-8598064D02*
X7968077Y-8607588D01*
X7968077Y-8607588D02*
X7929982Y-8607588D01*
X7929982Y-8607588D02*
X7910935Y-8598064D01*
X8120458Y-8607588D02*
X8101411Y-8598064D01*
X8101411Y-8598064D02*
X8091887Y-8579017D01*
X8091887Y-8579017D02*
X8091887Y-8407588D01*
X8282363Y-8607588D02*
X8282363Y-8502826D01*
X8282363Y-8502826D02*
X8272839Y-8483779D01*
X8272839Y-8483779D02*
X8253792Y-8474255D01*
X8253792Y-8474255D02*
X8215696Y-8474255D01*
X8215696Y-8474255D02*
X8196649Y-8483779D01*
X8282363Y-8598064D02*
X8263316Y-8607588D01*
X8263316Y-8607588D02*
X8215696Y-8607588D01*
X8215696Y-8607588D02*
X8196649Y-8598064D01*
X8196649Y-8598064D02*
X8187125Y-8579017D01*
X8187125Y-8579017D02*
X8187125Y-8559969D01*
X8187125Y-8559969D02*
X8196649Y-8540922D01*
X8196649Y-8540922D02*
X8215696Y-8531398D01*
X8215696Y-8531398D02*
X8263316Y-8531398D01*
X8263316Y-8531398D02*
X8282363Y-8521874D01*
X8349030Y-8474255D02*
X8425220Y-8474255D01*
X8377601Y-8407588D02*
X8377601Y-8579017D01*
X8377601Y-8579017D02*
X8387125Y-8598064D01*
X8387125Y-8598064D02*
X8406173Y-8607588D01*
X8406173Y-8607588D02*
X8425220Y-8607588D01*
X8568078Y-8598064D02*
X8549030Y-8607588D01*
X8549030Y-8607588D02*
X8510935Y-8607588D01*
X8510935Y-8607588D02*
X8491887Y-8598064D01*
X8491887Y-8598064D02*
X8482363Y-8579017D01*
X8482363Y-8579017D02*
X8482363Y-8502826D01*
X8482363Y-8502826D02*
X8491887Y-8483779D01*
X8491887Y-8483779D02*
X8510935Y-8474255D01*
X8510935Y-8474255D02*
X8549030Y-8474255D01*
X8549030Y-8474255D02*
X8568078Y-8483779D01*
X8568078Y-8483779D02*
X8577601Y-8502826D01*
X8577601Y-8502826D02*
X8577601Y-8521874D01*
X8577601Y-8521874D02*
X8482363Y-8540922D01*
X8749030Y-8607588D02*
X8749030Y-8407588D01*
X8749030Y-8598064D02*
X8729982Y-8607588D01*
X8729982Y-8607588D02*
X8691887Y-8607588D01*
X8691887Y-8607588D02*
X8672839Y-8598064D01*
X8672839Y-8598064D02*
X8663316Y-8588541D01*
X8663316Y-8588541D02*
X8653792Y-8569493D01*
X8653792Y-8569493D02*
X8653792Y-8512350D01*
X8653792Y-8512350D02*
X8663316Y-8493302D01*
X8663316Y-8493302D02*
X8672839Y-8483779D01*
X8672839Y-8483779D02*
X8691887Y-8474255D01*
X8691887Y-8474255D02*
X8729982Y-8474255D01*
X8729982Y-8474255D02*
X8749030Y-8483779D01*
X8825220Y-8683779D02*
X8834744Y-8674255D01*
X8834744Y-8674255D02*
X8853792Y-8645683D01*
X8853792Y-8645683D02*
X8863316Y-8626636D01*
X8863316Y-8626636D02*
X8872839Y-8598064D01*
X8872839Y-8598064D02*
X8882363Y-8550445D01*
X8882363Y-8550445D02*
X8882363Y-8512350D01*
X8882363Y-8512350D02*
X8872839Y-8464731D01*
X8872839Y-8464731D02*
X8863316Y-8436160D01*
X8863316Y-8436160D02*
X8853792Y-8417112D01*
X8853792Y-8417112D02*
X8834744Y-8388540D01*
X8834744Y-8388540D02*
X8825220Y-8379017D01*
D13*
X2069205Y-8780104D02*
G75*
G02*
X1899205Y-8780104I-85000J0D01*
G01*
X1899205Y-8780104D02*
G75*
G02*
X2069205Y-8780104I85000J0D01*
G01*
D11*
X2434744Y-8871588D02*
X2320458Y-8871588D01*
X2377601Y-8871588D02*
X2377601Y-8671588D01*
X2377601Y-8671588D02*
X2358553Y-8700160D01*
X2358553Y-8700160D02*
X2339506Y-8719207D01*
X2339506Y-8719207D02*
X2320458Y-8728731D01*
X2520458Y-8852541D02*
X2529982Y-8862064D01*
X2529982Y-8862064D02*
X2520458Y-8871588D01*
X2520458Y-8871588D02*
X2510934Y-8862064D01*
X2510934Y-8862064D02*
X2520458Y-8852541D01*
X2520458Y-8852541D02*
X2520458Y-8871588D01*
X2596648Y-8671588D02*
X2729982Y-8671588D01*
X2729982Y-8671588D02*
X2644267Y-8871588D01*
X2844267Y-8671588D02*
X2863315Y-8671588D01*
X2863315Y-8671588D02*
X2882363Y-8681112D01*
X2882363Y-8681112D02*
X2891886Y-8690636D01*
X2891886Y-8690636D02*
X2901410Y-8709683D01*
X2901410Y-8709683D02*
X2910934Y-8747779D01*
X2910934Y-8747779D02*
X2910934Y-8795398D01*
X2910934Y-8795398D02*
X2901410Y-8833493D01*
X2901410Y-8833493D02*
X2891886Y-8852541D01*
X2891886Y-8852541D02*
X2882363Y-8862064D01*
X2882363Y-8862064D02*
X2863315Y-8871588D01*
X2863315Y-8871588D02*
X2844267Y-8871588D01*
X2844267Y-8871588D02*
X2825220Y-8862064D01*
X2825220Y-8862064D02*
X2815696Y-8852541D01*
X2815696Y-8852541D02*
X2806172Y-8833493D01*
X2806172Y-8833493D02*
X2796648Y-8795398D01*
X2796648Y-8795398D02*
X2796648Y-8747779D01*
X2796648Y-8747779D02*
X2806172Y-8709683D01*
X2806172Y-8709683D02*
X2815696Y-8690636D01*
X2815696Y-8690636D02*
X2825220Y-8681112D01*
X2825220Y-8681112D02*
X2844267Y-8671588D01*
X3034744Y-8671588D02*
X3053791Y-8671588D01*
X3053791Y-8671588D02*
X3072839Y-8681112D01*
X3072839Y-8681112D02*
X3082363Y-8690636D01*
X3082363Y-8690636D02*
X3091886Y-8709683D01*
X3091886Y-8709683D02*
X3101410Y-8747779D01*
X3101410Y-8747779D02*
X3101410Y-8795398D01*
X3101410Y-8795398D02*
X3091886Y-8833493D01*
X3091886Y-8833493D02*
X3082363Y-8852541D01*
X3082363Y-8852541D02*
X3072839Y-8862064D01*
X3072839Y-8862064D02*
X3053791Y-8871588D01*
X3053791Y-8871588D02*
X3034744Y-8871588D01*
X3034744Y-8871588D02*
X3015696Y-8862064D01*
X3015696Y-8862064D02*
X3006172Y-8852541D01*
X3006172Y-8852541D02*
X2996648Y-8833493D01*
X2996648Y-8833493D02*
X2987125Y-8795398D01*
X2987125Y-8795398D02*
X2987125Y-8747779D01*
X2987125Y-8747779D02*
X2996648Y-8709683D01*
X2996648Y-8709683D02*
X3006172Y-8690636D01*
X3006172Y-8690636D02*
X3015696Y-8681112D01*
X3015696Y-8681112D02*
X3034744Y-8671588D01*
X3187125Y-8871588D02*
X3187125Y-8738255D01*
X3187125Y-8757302D02*
X3196648Y-8747779D01*
X3196648Y-8747779D02*
X3215696Y-8738255D01*
X3215696Y-8738255D02*
X3244267Y-8738255D01*
X3244267Y-8738255D02*
X3263315Y-8747779D01*
X3263315Y-8747779D02*
X3272839Y-8766826D01*
X3272839Y-8766826D02*
X3272839Y-8871588D01*
X3272839Y-8766826D02*
X3282363Y-8747779D01*
X3282363Y-8747779D02*
X3301410Y-8738255D01*
X3301410Y-8738255D02*
X3329982Y-8738255D01*
X3329982Y-8738255D02*
X3349029Y-8747779D01*
X3349029Y-8747779D02*
X3358553Y-8766826D01*
X3358553Y-8766826D02*
X3358553Y-8871588D01*
X3453791Y-8871588D02*
X3453791Y-8738255D01*
X3453791Y-8757302D02*
X3463315Y-8747779D01*
X3463315Y-8747779D02*
X3482363Y-8738255D01*
X3482363Y-8738255D02*
X3510934Y-8738255D01*
X3510934Y-8738255D02*
X3529982Y-8747779D01*
X3529982Y-8747779D02*
X3539506Y-8766826D01*
X3539506Y-8766826D02*
X3539506Y-8871588D01*
X3539506Y-8766826D02*
X3549029Y-8747779D01*
X3549029Y-8747779D02*
X3568077Y-8738255D01*
X3568077Y-8738255D02*
X3596648Y-8738255D01*
X3596648Y-8738255D02*
X3615696Y-8747779D01*
X3615696Y-8747779D02*
X3625220Y-8766826D01*
X3625220Y-8766826D02*
X3625220Y-8871588D01*
X4015696Y-8662064D02*
X3844268Y-8919207D01*
X4272839Y-8671588D02*
X4291887Y-8671588D01*
X4291887Y-8671588D02*
X4310934Y-8681112D01*
X4310934Y-8681112D02*
X4320458Y-8690636D01*
X4320458Y-8690636D02*
X4329982Y-8709683D01*
X4329982Y-8709683D02*
X4339506Y-8747779D01*
X4339506Y-8747779D02*
X4339506Y-8795398D01*
X4339506Y-8795398D02*
X4329982Y-8833493D01*
X4329982Y-8833493D02*
X4320458Y-8852541D01*
X4320458Y-8852541D02*
X4310934Y-8862064D01*
X4310934Y-8862064D02*
X4291887Y-8871588D01*
X4291887Y-8871588D02*
X4272839Y-8871588D01*
X4272839Y-8871588D02*
X4253791Y-8862064D01*
X4253791Y-8862064D02*
X4244268Y-8852541D01*
X4244268Y-8852541D02*
X4234744Y-8833493D01*
X4234744Y-8833493D02*
X4225220Y-8795398D01*
X4225220Y-8795398D02*
X4225220Y-8747779D01*
X4225220Y-8747779D02*
X4234744Y-8709683D01*
X4234744Y-8709683D02*
X4244268Y-8690636D01*
X4244268Y-8690636D02*
X4253791Y-8681112D01*
X4253791Y-8681112D02*
X4272839Y-8671588D01*
X4425220Y-8852541D02*
X4434744Y-8862064D01*
X4434744Y-8862064D02*
X4425220Y-8871588D01*
X4425220Y-8871588D02*
X4415696Y-8862064D01*
X4415696Y-8862064D02*
X4425220Y-8852541D01*
X4425220Y-8852541D02*
X4425220Y-8871588D01*
X4558553Y-8671588D02*
X4577601Y-8671588D01*
X4577601Y-8671588D02*
X4596649Y-8681112D01*
X4596649Y-8681112D02*
X4606172Y-8690636D01*
X4606172Y-8690636D02*
X4615696Y-8709683D01*
X4615696Y-8709683D02*
X4625220Y-8747779D01*
X4625220Y-8747779D02*
X4625220Y-8795398D01*
X4625220Y-8795398D02*
X4615696Y-8833493D01*
X4615696Y-8833493D02*
X4606172Y-8852541D01*
X4606172Y-8852541D02*
X4596649Y-8862064D01*
X4596649Y-8862064D02*
X4577601Y-8871588D01*
X4577601Y-8871588D02*
X4558553Y-8871588D01*
X4558553Y-8871588D02*
X4539506Y-8862064D01*
X4539506Y-8862064D02*
X4529982Y-8852541D01*
X4529982Y-8852541D02*
X4520458Y-8833493D01*
X4520458Y-8833493D02*
X4510934Y-8795398D01*
X4510934Y-8795398D02*
X4510934Y-8747779D01*
X4510934Y-8747779D02*
X4520458Y-8709683D01*
X4520458Y-8709683D02*
X4529982Y-8690636D01*
X4529982Y-8690636D02*
X4539506Y-8681112D01*
X4539506Y-8681112D02*
X4558553Y-8671588D01*
X4796649Y-8671588D02*
X4758553Y-8671588D01*
X4758553Y-8671588D02*
X4739506Y-8681112D01*
X4739506Y-8681112D02*
X4729982Y-8690636D01*
X4729982Y-8690636D02*
X4710934Y-8719207D01*
X4710934Y-8719207D02*
X4701411Y-8757302D01*
X4701411Y-8757302D02*
X4701411Y-8833493D01*
X4701411Y-8833493D02*
X4710934Y-8852541D01*
X4710934Y-8852541D02*
X4720458Y-8862064D01*
X4720458Y-8862064D02*
X4739506Y-8871588D01*
X4739506Y-8871588D02*
X4777601Y-8871588D01*
X4777601Y-8871588D02*
X4796649Y-8862064D01*
X4796649Y-8862064D02*
X4806172Y-8852541D01*
X4806172Y-8852541D02*
X4815696Y-8833493D01*
X4815696Y-8833493D02*
X4815696Y-8785874D01*
X4815696Y-8785874D02*
X4806172Y-8766826D01*
X4806172Y-8766826D02*
X4796649Y-8757302D01*
X4796649Y-8757302D02*
X4777601Y-8747779D01*
X4777601Y-8747779D02*
X4739506Y-8747779D01*
X4739506Y-8747779D02*
X4720458Y-8757302D01*
X4720458Y-8757302D02*
X4710934Y-8766826D01*
X4710934Y-8766826D02*
X4701411Y-8785874D01*
X4987125Y-8671588D02*
X4949030Y-8671588D01*
X4949030Y-8671588D02*
X4929982Y-8681112D01*
X4929982Y-8681112D02*
X4920458Y-8690636D01*
X4920458Y-8690636D02*
X4901411Y-8719207D01*
X4901411Y-8719207D02*
X4891887Y-8757302D01*
X4891887Y-8757302D02*
X4891887Y-8833493D01*
X4891887Y-8833493D02*
X4901411Y-8852541D01*
X4901411Y-8852541D02*
X4910934Y-8862064D01*
X4910934Y-8862064D02*
X4929982Y-8871588D01*
X4929982Y-8871588D02*
X4968077Y-8871588D01*
X4968077Y-8871588D02*
X4987125Y-8862064D01*
X4987125Y-8862064D02*
X4996649Y-8852541D01*
X4996649Y-8852541D02*
X5006172Y-8833493D01*
X5006172Y-8833493D02*
X5006172Y-8785874D01*
X5006172Y-8785874D02*
X4996649Y-8766826D01*
X4996649Y-8766826D02*
X4987125Y-8757302D01*
X4987125Y-8757302D02*
X4968077Y-8747779D01*
X4968077Y-8747779D02*
X4929982Y-8747779D01*
X4929982Y-8747779D02*
X4910934Y-8757302D01*
X4910934Y-8757302D02*
X4901411Y-8766826D01*
X4901411Y-8766826D02*
X4891887Y-8785874D01*
X5101411Y-8871588D02*
X5139506Y-8871588D01*
X5139506Y-8871588D02*
X5158553Y-8862064D01*
X5158553Y-8862064D02*
X5168077Y-8852541D01*
X5168077Y-8852541D02*
X5187125Y-8823969D01*
X5187125Y-8823969D02*
X5196649Y-8785874D01*
X5196649Y-8785874D02*
X5196649Y-8709683D01*
X5196649Y-8709683D02*
X5187125Y-8690636D01*
X5187125Y-8690636D02*
X5177601Y-8681112D01*
X5177601Y-8681112D02*
X5158553Y-8671588D01*
X5158553Y-8671588D02*
X5120458Y-8671588D01*
X5120458Y-8671588D02*
X5101411Y-8681112D01*
X5101411Y-8681112D02*
X5091887Y-8690636D01*
X5091887Y-8690636D02*
X5082363Y-8709683D01*
X5082363Y-8709683D02*
X5082363Y-8757302D01*
X5082363Y-8757302D02*
X5091887Y-8776350D01*
X5091887Y-8776350D02*
X5101411Y-8785874D01*
X5101411Y-8785874D02*
X5120458Y-8795398D01*
X5120458Y-8795398D02*
X5158553Y-8795398D01*
X5158553Y-8795398D02*
X5177601Y-8785874D01*
X5177601Y-8785874D02*
X5187125Y-8776350D01*
X5187125Y-8776350D02*
X5196649Y-8757302D01*
X5272839Y-8671588D02*
X5272839Y-8709683D01*
X5349030Y-8671588D02*
X5349030Y-8709683D01*
X5644268Y-8947779D02*
X5634744Y-8938255D01*
X5634744Y-8938255D02*
X5615696Y-8909683D01*
X5615696Y-8909683D02*
X5606172Y-8890636D01*
X5606172Y-8890636D02*
X5596649Y-8862064D01*
X5596649Y-8862064D02*
X5587125Y-8814445D01*
X5587125Y-8814445D02*
X5587125Y-8776350D01*
X5587125Y-8776350D02*
X5596649Y-8728731D01*
X5596649Y-8728731D02*
X5606172Y-8700160D01*
X5606172Y-8700160D02*
X5615696Y-8681112D01*
X5615696Y-8681112D02*
X5634744Y-8652541D01*
X5634744Y-8652541D02*
X5644268Y-8643017D01*
X5710934Y-8690636D02*
X5720458Y-8681112D01*
X5720458Y-8681112D02*
X5739506Y-8671588D01*
X5739506Y-8671588D02*
X5787125Y-8671588D01*
X5787125Y-8671588D02*
X5806172Y-8681112D01*
X5806172Y-8681112D02*
X5815696Y-8690636D01*
X5815696Y-8690636D02*
X5825220Y-8709683D01*
X5825220Y-8709683D02*
X5825220Y-8728731D01*
X5825220Y-8728731D02*
X5815696Y-8757302D01*
X5815696Y-8757302D02*
X5701411Y-8871588D01*
X5701411Y-8871588D02*
X5825220Y-8871588D01*
X6063315Y-8871588D02*
X6063315Y-8671588D01*
X6149030Y-8871588D02*
X6149030Y-8766826D01*
X6149030Y-8766826D02*
X6139506Y-8747779D01*
X6139506Y-8747779D02*
X6120458Y-8738255D01*
X6120458Y-8738255D02*
X6091887Y-8738255D01*
X6091887Y-8738255D02*
X6072839Y-8747779D01*
X6072839Y-8747779D02*
X6063315Y-8757302D01*
X6272839Y-8871588D02*
X6253792Y-8862064D01*
X6253792Y-8862064D02*
X6244268Y-8852541D01*
X6244268Y-8852541D02*
X6234744Y-8833493D01*
X6234744Y-8833493D02*
X6234744Y-8776350D01*
X6234744Y-8776350D02*
X6244268Y-8757302D01*
X6244268Y-8757302D02*
X6253792Y-8747779D01*
X6253792Y-8747779D02*
X6272839Y-8738255D01*
X6272839Y-8738255D02*
X6301411Y-8738255D01*
X6301411Y-8738255D02*
X6320458Y-8747779D01*
X6320458Y-8747779D02*
X6329982Y-8757302D01*
X6329982Y-8757302D02*
X6339506Y-8776350D01*
X6339506Y-8776350D02*
X6339506Y-8833493D01*
X6339506Y-8833493D02*
X6329982Y-8852541D01*
X6329982Y-8852541D02*
X6320458Y-8862064D01*
X6320458Y-8862064D02*
X6301411Y-8871588D01*
X6301411Y-8871588D02*
X6272839Y-8871588D01*
X6453792Y-8871588D02*
X6434744Y-8862064D01*
X6434744Y-8862064D02*
X6425220Y-8843017D01*
X6425220Y-8843017D02*
X6425220Y-8671588D01*
X6606173Y-8862064D02*
X6587125Y-8871588D01*
X6587125Y-8871588D02*
X6549030Y-8871588D01*
X6549030Y-8871588D02*
X6529982Y-8862064D01*
X6529982Y-8862064D02*
X6520458Y-8843017D01*
X6520458Y-8843017D02*
X6520458Y-8766826D01*
X6520458Y-8766826D02*
X6529982Y-8747779D01*
X6529982Y-8747779D02*
X6549030Y-8738255D01*
X6549030Y-8738255D02*
X6587125Y-8738255D01*
X6587125Y-8738255D02*
X6606173Y-8747779D01*
X6606173Y-8747779D02*
X6615696Y-8766826D01*
X6615696Y-8766826D02*
X6615696Y-8785874D01*
X6615696Y-8785874D02*
X6520458Y-8804922D01*
X6691887Y-8862064D02*
X6710934Y-8871588D01*
X6710934Y-8871588D02*
X6749030Y-8871588D01*
X6749030Y-8871588D02*
X6768077Y-8862064D01*
X6768077Y-8862064D02*
X6777601Y-8843017D01*
X6777601Y-8843017D02*
X6777601Y-8833493D01*
X6777601Y-8833493D02*
X6768077Y-8814445D01*
X6768077Y-8814445D02*
X6749030Y-8804922D01*
X6749030Y-8804922D02*
X6720458Y-8804922D01*
X6720458Y-8804922D02*
X6701411Y-8795398D01*
X6701411Y-8795398D02*
X6691887Y-8776350D01*
X6691887Y-8776350D02*
X6691887Y-8766826D01*
X6691887Y-8766826D02*
X6701411Y-8747779D01*
X6701411Y-8747779D02*
X6720458Y-8738255D01*
X6720458Y-8738255D02*
X6749030Y-8738255D01*
X6749030Y-8738255D02*
X6768077Y-8747779D01*
X6844268Y-8947779D02*
X6853792Y-8938255D01*
X6853792Y-8938255D02*
X6872839Y-8909683D01*
X6872839Y-8909683D02*
X6882363Y-8890636D01*
X6882363Y-8890636D02*
X6891887Y-8862064D01*
X6891887Y-8862064D02*
X6901411Y-8814445D01*
X6901411Y-8814445D02*
X6901411Y-8776350D01*
X6901411Y-8776350D02*
X6891887Y-8728731D01*
X6891887Y-8728731D02*
X6882363Y-8700160D01*
X6882363Y-8700160D02*
X6872839Y-8681112D01*
X6872839Y-8681112D02*
X6853792Y-8652541D01*
X6853792Y-8652541D02*
X6844268Y-8643017D01*
X7206173Y-8947779D02*
X7196649Y-8938255D01*
X7196649Y-8938255D02*
X7177601Y-8909683D01*
X7177601Y-8909683D02*
X7168077Y-8890636D01*
X7168077Y-8890636D02*
X7158554Y-8862064D01*
X7158554Y-8862064D02*
X7149030Y-8814445D01*
X7149030Y-8814445D02*
X7149030Y-8776350D01*
X7149030Y-8776350D02*
X7158554Y-8728731D01*
X7158554Y-8728731D02*
X7168077Y-8700160D01*
X7168077Y-8700160D02*
X7177601Y-8681112D01*
X7177601Y-8681112D02*
X7196649Y-8652541D01*
X7196649Y-8652541D02*
X7206173Y-8643017D01*
X7282363Y-8738255D02*
X7282363Y-8871588D01*
X7282363Y-8757302D02*
X7291887Y-8747779D01*
X7291887Y-8747779D02*
X7310934Y-8738255D01*
X7310934Y-8738255D02*
X7339506Y-8738255D01*
X7339506Y-8738255D02*
X7358554Y-8747779D01*
X7358554Y-8747779D02*
X7368077Y-8766826D01*
X7368077Y-8766826D02*
X7368077Y-8871588D01*
X7491887Y-8871588D02*
X7472839Y-8862064D01*
X7472839Y-8862064D02*
X7463315Y-8852541D01*
X7463315Y-8852541D02*
X7453792Y-8833493D01*
X7453792Y-8833493D02*
X7453792Y-8776350D01*
X7453792Y-8776350D02*
X7463315Y-8757302D01*
X7463315Y-8757302D02*
X7472839Y-8747779D01*
X7472839Y-8747779D02*
X7491887Y-8738255D01*
X7491887Y-8738255D02*
X7520458Y-8738255D01*
X7520458Y-8738255D02*
X7539506Y-8747779D01*
X7539506Y-8747779D02*
X7549030Y-8757302D01*
X7549030Y-8757302D02*
X7558554Y-8776350D01*
X7558554Y-8776350D02*
X7558554Y-8833493D01*
X7558554Y-8833493D02*
X7549030Y-8852541D01*
X7549030Y-8852541D02*
X7539506Y-8862064D01*
X7539506Y-8862064D02*
X7520458Y-8871588D01*
X7520458Y-8871588D02*
X7491887Y-8871588D01*
X7615696Y-8738255D02*
X7691887Y-8738255D01*
X7644268Y-8671588D02*
X7644268Y-8843017D01*
X7644268Y-8843017D02*
X7653792Y-8862064D01*
X7653792Y-8862064D02*
X7672839Y-8871588D01*
X7672839Y-8871588D02*
X7691887Y-8871588D01*
X7910935Y-8738255D02*
X7910935Y-8938255D01*
X7910935Y-8747779D02*
X7929982Y-8738255D01*
X7929982Y-8738255D02*
X7968077Y-8738255D01*
X7968077Y-8738255D02*
X7987125Y-8747779D01*
X7987125Y-8747779D02*
X7996649Y-8757302D01*
X7996649Y-8757302D02*
X8006173Y-8776350D01*
X8006173Y-8776350D02*
X8006173Y-8833493D01*
X8006173Y-8833493D02*
X7996649Y-8852541D01*
X7996649Y-8852541D02*
X7987125Y-8862064D01*
X7987125Y-8862064D02*
X7968077Y-8871588D01*
X7968077Y-8871588D02*
X7929982Y-8871588D01*
X7929982Y-8871588D02*
X7910935Y-8862064D01*
X8120458Y-8871588D02*
X8101411Y-8862064D01*
X8101411Y-8862064D02*
X8091887Y-8843017D01*
X8091887Y-8843017D02*
X8091887Y-8671588D01*
X8282363Y-8871588D02*
X8282363Y-8766826D01*
X8282363Y-8766826D02*
X8272839Y-8747779D01*
X8272839Y-8747779D02*
X8253792Y-8738255D01*
X8253792Y-8738255D02*
X8215696Y-8738255D01*
X8215696Y-8738255D02*
X8196649Y-8747779D01*
X8282363Y-8862064D02*
X8263316Y-8871588D01*
X8263316Y-8871588D02*
X8215696Y-8871588D01*
X8215696Y-8871588D02*
X8196649Y-8862064D01*
X8196649Y-8862064D02*
X8187125Y-8843017D01*
X8187125Y-8843017D02*
X8187125Y-8823969D01*
X8187125Y-8823969D02*
X8196649Y-8804922D01*
X8196649Y-8804922D02*
X8215696Y-8795398D01*
X8215696Y-8795398D02*
X8263316Y-8795398D01*
X8263316Y-8795398D02*
X8282363Y-8785874D01*
X8349030Y-8738255D02*
X8425220Y-8738255D01*
X8377601Y-8671588D02*
X8377601Y-8843017D01*
X8377601Y-8843017D02*
X8387125Y-8862064D01*
X8387125Y-8862064D02*
X8406173Y-8871588D01*
X8406173Y-8871588D02*
X8425220Y-8871588D01*
X8568078Y-8862064D02*
X8549030Y-8871588D01*
X8549030Y-8871588D02*
X8510935Y-8871588D01*
X8510935Y-8871588D02*
X8491887Y-8862064D01*
X8491887Y-8862064D02*
X8482363Y-8843017D01*
X8482363Y-8843017D02*
X8482363Y-8766826D01*
X8482363Y-8766826D02*
X8491887Y-8747779D01*
X8491887Y-8747779D02*
X8510935Y-8738255D01*
X8510935Y-8738255D02*
X8549030Y-8738255D01*
X8549030Y-8738255D02*
X8568078Y-8747779D01*
X8568078Y-8747779D02*
X8577601Y-8766826D01*
X8577601Y-8766826D02*
X8577601Y-8785874D01*
X8577601Y-8785874D02*
X8482363Y-8804922D01*
X8749030Y-8871588D02*
X8749030Y-8671588D01*
X8749030Y-8862064D02*
X8729982Y-8871588D01*
X8729982Y-8871588D02*
X8691887Y-8871588D01*
X8691887Y-8871588D02*
X8672839Y-8862064D01*
X8672839Y-8862064D02*
X8663316Y-8852541D01*
X8663316Y-8852541D02*
X8653792Y-8833493D01*
X8653792Y-8833493D02*
X8653792Y-8776350D01*
X8653792Y-8776350D02*
X8663316Y-8757302D01*
X8663316Y-8757302D02*
X8672839Y-8747779D01*
X8672839Y-8747779D02*
X8691887Y-8738255D01*
X8691887Y-8738255D02*
X8729982Y-8738255D01*
X8729982Y-8738255D02*
X8749030Y-8747779D01*
X8825220Y-8947779D02*
X8834744Y-8938255D01*
X8834744Y-8938255D02*
X8853792Y-8909683D01*
X8853792Y-8909683D02*
X8863316Y-8890636D01*
X8863316Y-8890636D02*
X8872839Y-8862064D01*
X8872839Y-8862064D02*
X8882363Y-8814445D01*
X8882363Y-8814445D02*
X8882363Y-8776350D01*
X8882363Y-8776350D02*
X8872839Y-8728731D01*
X8872839Y-8728731D02*
X8863316Y-8700160D01*
X8863316Y-8700160D02*
X8853792Y-8681112D01*
X8853792Y-8681112D02*
X8834744Y-8652541D01*
X8834744Y-8652541D02*
X8825220Y-8643017D01*
M02*
